<svg width="1108" height="264" viewBox="0 0 1108 264" xmlns="http://www.w3.org/2000/svg" xmlns:xlink="http://www.w3.org/1999/xlink" fill="none" overflow="hidden"><path d="M36 10.5 1072 10.5C1091.61 10.5 1107.5 26.3939 1107.5 46L1107.5 136.5 0.5 136.5 0.5 46C0.5 26.3939 16.3939 10.5 36 10.5Z" stroke="#000000" fill="#FFFFFF"/><path d="M36 263.5 1072 263.5C1091.61 263.5 1107.5 247.606 1107.5 228L1107.5 137.5 0.5 137.5 0.5 228C0.5 247.606 16.3939 263.5 36 263.5Z" stroke="#000000" fill="#FFFFFF"/><path d="M38.792 89.624C37.384 89.624 36.072 89.224 34.856 88.424 33.672 87.592 32.712 86.392 31.976 84.824 31.272 83.224 30.92 81.288 30.92 79.016 30.92 75.272 31.928 72.312 33.944 70.136 35.992 67.96 38.744 66.872 42.2 66.872 43.352 66.872 44.92 67.048 46.904 67.4 48.376 67.656 49.704 67.832 50.888 67.928L51.464 68.456 50.84 69.272C50.616 69.656 50.456 69.96 50.36 70.184 50.296 70.376 50.264 70.648 50.264 71L50.264 85.16C50.264 86.056 50.728 86.504 51.656 86.504 52.36 86.504 53.08 86.248 53.816 85.736L54.632 86.84C53.864 87.704 53.048 88.392 52.184 88.904 51.32 89.384 50.536 89.624 49.832 89.624 48.616 89.624 47.736 89.272 47.192 88.568 46.648 87.832 46.376 86.648 46.376 85.016 45.224 86.712 44.024 87.912 42.776 88.616 41.56 89.288 40.232 89.624 38.792 89.624ZM40.472 86.216C42.904 86.216 44.872 84.904 46.376 82.28L46.376 70.52C45.128 69.688 43.72 69.272 42.152 69.272 40.072 69.272 38.44 70.056 37.256 71.624 36.104 73.16 35.528 75.352 35.528 78.2 35.528 80.952 35.992 82.984 36.92 84.296 37.88 85.576 39.064 86.216 40.472 86.216ZM85.5336 89.624C83.8376 89.624 82.2536 89.384 80.7816 88.904 79.3416 88.392 78.1896 87.704 77.3256 86.84L77.3256 59.672C77.3256 59.32 77.2616 59.08 77.1336 58.952 77.0056 58.792 76.7816 58.712 76.4616 58.712L74.5896 58.712 74.1576 57.608C74.9896 56.84 75.9496 56.216 77.0376 55.736 78.1256 55.224 79.1016 54.968 79.9656 54.968 80.3816 54.968 80.7176 55.096 80.9736 55.352 81.2296 55.608 81.3576 55.944 81.3576 56.36L81.3576 85.784C82.6056 86.712 84.1096 87.176 85.8696 87.176 87.8216 87.176 89.3576 86.376 90.4776 84.776 91.5976 83.144 92.1576 80.952 92.1576 78.2 92.1576 75.512 91.6136 73.352 90.5256 71.72 89.4376 70.088 87.9816 69.272 86.1576 69.272 85.3576 69.272 84.7176 69.368 84.2376 69.56 83.7896 69.72 83.5176 69.8 83.4216 69.8 83.2616 69.8 83.1016 69.704 82.9416 69.512 82.8136 69.32 82.7496 69.112 82.7496 68.888 82.7496 68.536 82.8936 68.248 83.1816 68.024 84.4936 67.256 85.9656 66.872 87.5976 66.872 89.3576 66.872 90.9256 67.32 92.3016 68.216 93.7096 69.112 94.7976 70.36 95.5656 71.96 96.3656 73.528 96.7656 75.336 96.7656 77.384 96.7656 79.688 96.2696 81.784 95.2776 83.672 94.3176 85.528 92.9896 86.984 91.2936 88.04 89.5976 89.096 87.6776 89.624 85.5336 89.624ZM130 89.624C127.984 89.624 126.176 89.128 124.576 88.136 122.976 87.144 121.712 85.784 120.784 84.056 119.888 82.328 119.44 80.392 119.44 78.248 119.44 75.944 119.872 73.944 120.736 72.248 121.6 70.52 122.832 69.192 124.432 68.264 126.032 67.336 127.888 66.872 130 66.872 132.24 66.872 134.064 67.416 135.472 68.504 136.912 69.56 137.632 70.936 137.632 72.632 137.632 73.88 137.232 74.904 136.432 75.704 135.632 76.472 134.608 76.856 133.36 76.856 133.072 76.856 132.864 76.824 132.736 76.76 132.608 76.696 132.544 76.584 132.544 76.424 132.544 76.328 132.64 76.12 132.832 75.8 133.056 75.48 133.248 75.096 133.408 74.648 133.568 74.168 133.648 73.56 133.648 72.824 133.648 71.672 133.264 70.776 132.496 70.136 131.76 69.464 130.768 69.128 129.52 69.128 127.856 69.128 126.512 69.944 125.488 71.576 124.496 73.176 124 75.304 124 77.96 124 80.648 124.592 82.776 125.776 84.344 126.992 85.912 128.624 86.696 130.672 86.696 131.728 86.696 132.72 86.52 133.648 86.168 134.576 85.816 135.504 85.256 136.432 84.488 136.496 84.424 136.624 84.392 136.816 84.392 137.072 84.392 137.312 84.536 137.536 84.824 137.792 85.08 137.92 85.352 137.92 85.64 137.92 85.864 137.888 85.976 137.824 85.976 136.8 87.16 135.6 88.072 134.224 88.712 132.88 89.32 131.472 89.624 130 89.624ZM164.202 89.624C162.794 89.624 161.482 89.224 160.266 88.424 159.082 87.592 158.122 86.392 157.386 84.824 156.682 83.224 156.33 81.288 156.33 79.016 156.33 75.272 157.338 72.312 159.354 70.136 161.402 67.96 164.154 66.872 167.61 66.872 169.306 66.872 170.682 67.048 171.738 67.4L171.738 59.672C171.738 59.32 171.674 59.08 171.546 58.952 171.418 58.792 171.21 58.712 170.922 58.712L169.002 58.712 168.618 57.608C169.418 56.84 170.362 56.216 171.45 55.736 172.538 55.224 173.482 54.968 174.282 54.968 174.698 54.968 175.034 55.096 175.29 55.352 175.546 55.608 175.674 55.944 175.674 56.36L175.674 85.16C175.674 86.056 176.138 86.504 177.066 86.504 177.77 86.504 178.49 86.248 179.226 85.736L180.042 86.84C179.274 87.704 178.458 88.392 177.594 88.904 176.73 89.384 175.946 89.624 175.242 89.624 174.026 89.624 173.146 89.272 172.602 88.568 172.058 87.832 171.786 86.648 171.786 85.016 170.634 86.712 169.434 87.912 168.186 88.616 166.97 89.288 165.642 89.624 164.202 89.624ZM165.882 86.216C168.314 86.216 170.282 84.904 171.786 82.28L171.786 70.52C170.538 69.688 169.13 69.272 167.562 69.272 165.482 69.272 163.85 70.056 162.666 71.624 161.514 73.16 160.938 75.352 160.938 78.2 160.938 80.952 161.402 82.984 162.33 84.296 163.29 85.576 164.474 86.216 165.882 86.216ZM217.561 89.624C215.545 89.624 213.785 89.16 212.281 88.232 210.777 87.304 209.609 86.008 208.777 84.344 207.945 82.648 207.529 80.696 207.529 78.488 207.529 76.184 207.993 74.152 208.921 72.392 209.849 70.632 211.161 69.272 212.857 68.312 214.585 67.352 216.569 66.872 218.809 66.872 221.177 66.872 223.001 67.496 224.281 68.744 225.593 69.992 226.249 71.496 226.249 73.256 226.249 74.472 225.913 75.64 225.241 76.76 224.601 77.88 223.641 78.792 222.361 79.496 221.113 80.2 219.641 80.552 217.945 80.552 216.985 80.552 215.945 80.392 214.825 80.072 213.705 79.72 213.145 79.208 213.145 78.536 213.145 78.28 213.209 78.056 213.337 77.864 213.465 77.672 213.609 77.576 213.769 77.576 213.865 77.576 214.153 77.672 214.633 77.864 215.145 78.024 215.801 78.104 216.601 78.104 218.361 78.104 219.721 77.624 220.681 76.664 221.641 75.704 222.121 74.552 222.121 73.208 222.121 72.056 221.737 71.064 220.969 70.232 220.233 69.4 219.241 68.984 217.993 68.984 216.105 68.984 214.633 69.816 213.577 71.48 212.553 73.112 212.041 75.448 212.041 78.488 212.041 81.08 212.585 83.112 213.673 84.584 214.793 86.024 216.393 86.744 218.473 86.744 221.033 86.744 223.145 85.912 224.809 84.248 224.905 84.152 225.033 84.104 225.193 84.104 225.449 84.104 225.705 84.232 225.961 84.488 226.249 84.744 226.393 85.016 226.393 85.304 226.393 85.4 226.361 85.496 226.297 85.592 226.233 85.656 226.201 85.704 226.201 85.736 225.113 87.016 223.817 87.992 222.313 88.664 220.841 89.304 219.257 89.624 217.561 89.624ZM247.601 99.368C246.033 99.368 244.753 98.968 243.761 98.168 242.737 97.368 242.225 96.296 242.225 94.952 242.225 93.832 242.641 92.888 243.473 92.12 244.273 91.384 245.281 91.016 246.497 91.016 247.041 91.016 247.313 91.176 247.313 91.496 247.313 91.56 247.185 91.736 246.929 92.024 246.705 92.344 246.513 92.696 246.353 93.08 246.161 93.496 246.065 94.008 246.065 94.616 246.065 95.512 246.289 96.216 246.737 96.728 247.185 97.24 247.761 97.496 248.465 97.496 249.329 97.496 250.049 97.096 250.625 96.296 251.233 95.528 251.537 94.408 251.537 92.936L251.537 70.088 247.697 70.088C247.697 69.32 247.745 68.824 247.841 68.6 247.969 68.344 248.257 68.152 248.705 68.024L251.537 67.4C251.537 63.496 252.209 60.456 253.553 58.28 254.929 56.072 256.945 54.968 259.601 54.968 261.489 54.968 263.041 55.432 264.257 56.36 265.473 57.256 266.081 58.424 266.081 59.864 266.081 61.08 265.665 62.088 264.833 62.888 264.033 63.656 263.025 64.04 261.809 64.04 261.265 64.04 260.993 63.896 260.993 63.608 260.993 63.512 261.089 63.304 261.281 62.984 261.505 62.664 261.681 62.28 261.809 61.832 261.969 61.352 262.049 60.744 262.049 60.008 262.049 59.08 261.793 58.344 261.281 57.8 260.769 57.224 260.065 56.936 259.169 56.936 257.889 56.936 256.945 57.576 256.337 58.856 255.729 60.104 255.425 61.832 255.425 64.04L255.425 67.4 261.569 67.4C261.569 68.008 261.473 68.552 261.281 69.032 261.089 69.512 260.833 69.864 260.513 70.088L255.425 70.088 255.425 89.576C255.425 92.584 254.769 94.968 253.457 96.728 252.145 98.488 250.193 99.368 247.601 99.368ZM298.602 101.144C296.97 101.144 295.594 100.84 294.474 100.232 293.354 99.656 292.506 98.888 291.93 97.928 291.386 97 291.114 95.992 291.114 94.904 291.114 93.432 291.61 92.184 292.602 91.16 293.594 90.136 294.954 89.624 296.682 89.624 296.938 89.624 297.13 89.656 297.258 89.72 297.386 89.816 297.45 89.928 297.45 90.056 297.45 90.184 297.242 90.456 296.826 90.872 296.442 91.32 296.09 91.848 295.77 92.456 295.482 93.064 295.338 93.832 295.338 94.76 295.338 95.912 295.674 96.872 296.346 97.64 297.05 98.44 297.978 98.84 299.13 98.84 300.922 98.84 302.234 98.088 303.066 96.584 303.898 95.112 304.314 93.128 304.314 90.632L304.314 83.768C303.13 85.4 301.898 86.568 300.618 87.272 299.37 87.976 298.058 88.328 296.682 88.328 295.274 88.328 293.962 87.976 292.746 87.272 291.562 86.568 290.618 85.512 289.914 84.104 289.21 82.696 288.858 81 288.858 79.016 288.858 75.272 289.866 72.312 291.882 70.136 293.93 67.96 296.698 66.872 300.186 66.872 301.274 66.872 302.81 67.048 304.794 67.4 305.114 67.432 305.69 67.512 306.522 67.64 307.386 67.768 308.17 67.864 308.874 67.928L309.306 68.456 308.826 69.272C308.602 69.592 308.442 69.864 308.346 70.088 308.25 70.312 308.202 70.616 308.202 71L308.202 89.96C308.202 93.512 307.338 96.264 305.61 98.216 303.914 100.168 301.578 101.144 298.602 101.144ZM298.458 85.016C299.61 85.016 300.682 84.696 301.674 84.056 302.698 83.416 303.578 82.408 304.314 81.032L304.314 70.52C303.066 69.688 301.674 69.272 300.138 69.272 298.026 69.272 296.362 70.056 295.146 71.624 293.962 73.16 293.37 75.352 293.37 78.2 293.37 80.536 293.85 82.264 294.81 83.384 295.77 84.472 296.986 85.016 298.458 85.016ZM349.266 89.72C348.082 89.72 347.234 89.352 346.722 88.616 346.21 87.88 345.954 86.696 345.954 85.064L345.954 74.744C345.954 73.24 345.65 72.104 345.042 71.336 344.466 70.568 343.522 70.184 342.21 70.184 340.962 70.184 339.858 70.68 338.898 71.672 337.938 72.664 337.186 74.056 336.642 75.848 336.13 77.64 335.874 79.704 335.874 82.04 335.874 83.384 335.97 84.472 336.162 85.304 336.386 86.136 336.77 86.92 337.314 87.656L337.842 88.328 337.314 89 329.682 89 329.154 87.656 330.114 87.416C330.85 87.288 331.33 87 331.554 86.552 331.81 86.072 331.938 85.272 331.938 84.152L331.938 59.672C331.938 59.32 331.874 59.08 331.746 58.952 331.618 58.792 331.394 58.712 331.074 58.712L329.106 58.712 328.77 57.608C329.602 56.84 330.546 56.216 331.602 55.736 332.69 55.224 333.634 54.968 334.434 54.968 334.85 54.968 335.186 55.096 335.442 55.352 335.73 55.608 335.874 55.944 335.874 56.36L335.874 73.352C336.61 71.464 337.746 69.912 339.282 68.696 340.818 67.48 342.418 66.872 344.082 66.872 346.194 66.872 347.682 67.496 348.546 68.744 349.442 69.96 349.89 71.96 349.89 74.744L349.89 85.256C349.89 86.248 350.306 86.744 351.138 86.744 351.81 86.744 352.53 86.456 353.298 85.88L354.21 86.936C353.41 87.8 352.562 88.488 351.666 89 350.802 89.48 350.002 89.72 349.266 89.72ZM381.667 63.224C381.187 63.224 380.627 62.888 379.987 62.216 379.347 61.544 379.027 60.936 379.027 60.392 379.027 59.848 379.331 59.24 379.939 58.568 380.579 57.896 381.155 57.56 381.667 57.56 382.211 57.56 382.803 57.896 383.443 58.568 384.083 59.24 384.403 59.848 384.403 60.392 384.403 60.936 384.083 61.544 383.443 62.216 382.803 62.888 382.211 63.224 381.667 63.224ZM383.107 89.624C381.923 89.624 381.059 89.272 380.515 88.568 380.003 87.832 379.747 86.648 379.747 85.016L379.747 71.576C379.747 71.192 379.683 70.92 379.555 70.76 379.427 70.6 379.203 70.52 378.883 70.52L376.915 70.52 376.579 69.464C377.411 68.696 378.355 68.072 379.411 67.592 380.499 67.112 381.443 66.872 382.243 66.872 382.659 66.872 382.995 67 383.251 67.256 383.539 67.48 383.683 67.784 383.683 68.168L383.683 85.16C383.683 86.152 384.115 86.648 384.979 86.648 385.651 86.648 386.387 86.344 387.187 85.736L388.003 86.84C387.203 87.672 386.355 88.344 385.459 88.856 384.595 89.368 383.811 89.624 383.107 89.624ZM409.834 63.224C409.322 63.224 408.746 62.888 408.106 62.216 407.498 61.544 407.194 60.936 407.194 60.392 407.194 59.848 407.498 59.24 408.106 58.568 408.746 57.896 409.322 57.56 409.834 57.56 410.378 57.56 410.97 57.896 411.61 58.568 412.25 59.24 412.57 59.848 412.57 60.392 412.57 60.936 412.25 61.544 411.61 62.216 410.97 62.888 410.378 63.224 409.834 63.224ZM403.978 101.144C402.41 101.144 401.114 100.744 400.09 99.944 399.066 99.144 398.554 98.056 398.554 96.68 398.554 95.56 398.97 94.616 399.802 93.848 400.602 93.112 401.61 92.744 402.826 92.744 403.37 92.744 403.642 92.904 403.642 93.224 403.642 93.288 403.53 93.464 403.306 93.752 403.082 94.04 402.89 94.376 402.73 94.76 402.538 95.176 402.442 95.688 402.442 96.296 402.442 97.192 402.666 97.896 403.114 98.408 403.562 98.952 404.138 99.224 404.842 99.224 405.706 99.224 406.426 98.84 407.002 98.072 407.61 97.304 407.914 96.168 407.914 94.664L407.914 71.576C407.914 71.192 407.85 70.92 407.722 70.76 407.594 70.6 407.37 70.52 407.05 70.52L405.082 70.52 404.746 69.464C405.578 68.696 406.522 68.072 407.578 67.592 408.666 67.112 409.61 66.872 410.41 66.872 410.826 66.872 411.162 67 411.418 67.256 411.706 67.48 411.85 67.784 411.85 68.168L411.85 91.304C411.85 94.312 411.178 96.696 409.834 98.456 408.522 100.248 406.57 101.144 403.978 101.144ZM457.793 89.624C456.897 89.624 456.161 89.448 455.585 89.096 455.041 88.776 454.561 88.328 454.145 87.752 453.761 87.144 453.249 86.232 452.609 85.016L449.345 78.872 448.961 78.728C448.417 78.6 448.145 78.312 448.145 77.864 448.145 77.672 448.193 77.48 448.289 77.288 448.417 77.096 448.593 77 448.817 77 448.913 77 449.201 77.08 449.681 77.24 450.161 77.368 450.785 77.432 451.553 77.432 453.121 77.432 454.353 76.968 455.249 76.04 456.145 75.112 456.593 74.056 456.593 72.872 456.593 72.008 456.337 71.288 455.825 70.712 455.313 70.104 454.577 69.8 453.617 69.8 451.473 69.8 449.761 70.92 448.481 73.16 447.233 75.4 446.609 78.36 446.609 82.04 446.609 83.416 446.705 84.52 446.897 85.352 447.121 86.184 447.505 86.952 448.049 87.656L448.577 88.328 448.049 89 440.417 89 439.889 87.656 440.849 87.416C441.585 87.288 442.065 87 442.289 86.552 442.545 86.072 442.673 85.272 442.673 84.152L442.673 59.672C442.673 59.32 442.609 59.08 442.481 58.952 442.353 58.792 442.129 58.712 441.809 58.712L439.841 58.712 439.505 57.608C440.337 56.84 441.281 56.216 442.337 55.736 443.425 55.224 444.369 54.968 445.169 54.968 445.585 54.968 445.921 55.096 446.177 55.352 446.465 55.608 446.609 55.944 446.609 56.36L446.609 73.352C447.345 71.432 448.433 69.88 449.873 68.696 451.345 67.48 452.897 66.872 454.529 66.872 456.449 66.872 457.921 67.416 458.945 68.504 460.001 69.592 460.529 70.92 460.529 72.488 460.529 74.12 459.953 75.592 458.801 76.904 457.649 78.184 456.081 78.936 454.097 79.16L457.409 85.64C457.857 86.44 458.465 86.84 459.233 86.84 459.649 86.84 460.065 86.744 460.481 86.552 460.897 86.328 461.249 86.056 461.537 85.736L462.497 86.84C461.121 88.696 459.553 89.624 457.793 89.624ZM487.624 89.624C486.408 89.624 485.528 89.272 484.984 88.568 484.472 87.832 484.216 86.648 484.216 85.016L484.216 59.672C484.216 59.32 484.152 59.08 484.024 58.952 483.896 58.792 483.672 58.712 483.352 58.712L481.48 58.712 481.048 57.608C481.88 56.84 482.84 56.216 483.928 55.736 485.016 55.224 485.992 54.968 486.856 54.968 487.272 54.968 487.608 55.096 487.864 55.352 488.12 55.608 488.248 55.944 488.248 56.36L488.152 85.16C488.152 85.64 488.264 86.008 488.488 86.264 488.712 86.52 489.032 86.648 489.448 86.648 490.248 86.648 490.968 86.344 491.608 85.736L492.472 86.84C491.736 87.672 490.92 88.344 490.024 88.856 489.128 89.368 488.328 89.624 487.624 89.624ZM548.93 89.624C547.746 89.624 546.882 89.272 546.338 88.568 545.826 87.832 545.57 86.648 545.57 85.016L545.57 74.648C545.57 71.672 544.498 70.184 542.354 70.184 541.17 70.184 540.098 70.664 539.138 71.624 538.21 72.552 537.474 73.88 536.93 75.608 536.386 77.304 536.098 79.272 536.066 81.512L536.066 82.04C536.066 83.512 536.178 84.696 536.402 85.592 536.658 86.488 537.17 87.4 537.938 88.328L537.41 89 532.178 89 532.178 74.648C532.178 73.176 531.89 72.072 531.314 71.336 530.77 70.568 529.954 70.184 528.866 70.184 527.618 70.184 526.514 70.68 525.554 71.672 524.626 72.664 523.906 74.056 523.394 75.848 522.882 77.64 522.626 79.704 522.626 82.04 522.626 83.384 522.722 84.472 522.914 85.304 523.138 86.136 523.506 86.92 524.018 87.656L524.546 88.328 524.018 89 516.386 89 515.954 87.656 516.77 87.416C517.538 87.288 518.034 87 518.258 86.552 518.514 86.072 518.642 85.272 518.642 84.152L518.642 71.96C518.642 71.608 518.578 71.368 518.45 71.24 518.322 71.08 518.098 71 517.778 71L515.906 71 515.474 69.848C516.306 69.08 517.266 68.456 518.354 67.976 519.442 67.496 520.402 67.256 521.234 67.256 521.65 67.256 521.986 67.384 522.242 67.64 522.498 67.896 522.626 68.216 522.626 68.6L522.626 73.352C523.362 71.432 524.45 69.88 525.89 68.696 527.362 67.48 528.898 66.872 530.498 66.872 532.29 66.872 533.634 67.4 534.53 68.456 535.426 69.48 535.938 71.112 536.066 73.352 536.802 71.464 537.906 69.912 539.378 68.696 540.85 67.48 542.37 66.872 543.938 66.872 545.89 66.872 547.298 67.496 548.162 68.744 549.058 69.992 549.506 71.96 549.506 74.648L549.506 85.16C549.506 86.152 549.922 86.648 550.754 86.648 551.49 86.648 552.21 86.344 552.914 85.736L553.778 86.84C553.01 87.704 552.194 88.392 551.33 88.904 550.466 89.384 549.666 89.624 548.93 89.624ZM591.658 89.624C590.474 89.624 589.626 89.272 589.114 88.568 588.602 87.832 588.346 86.648 588.346 85.016L588.346 74.648C588.346 73.176 588.026 72.072 587.386 71.336 586.746 70.568 585.802 70.184 584.554 70.184 583.306 70.184 582.202 70.68 581.242 71.672 580.314 72.664 579.594 74.056 579.082 75.848 578.57 77.64 578.314 79.704 578.314 82.04 578.314 83.384 578.41 84.472 578.602 85.304 578.826 86.136 579.194 86.92 579.706 87.656L580.234 88.328 579.706 89 572.074 89 571.642 87.656 572.458 87.416C573.226 87.288 573.722 87 573.946 86.552 574.202 86.072 574.33 85.272 574.33 84.152L574.33 71.96C574.33 71.608 574.266 71.368 574.138 71.24 574.01 71.08 573.786 71 573.466 71L571.594 71 571.162 69.848C571.994 69.08 572.954 68.456 574.042 67.976 575.13 67.496 576.09 67.256 576.922 67.256 577.338 67.256 577.674 67.384 577.93 67.64 578.186 67.896 578.314 68.216 578.314 68.6L578.314 73.352C579.05 71.464 580.17 69.912 581.674 68.696 583.178 67.48 584.762 66.872 586.426 66.872 588.442 66.872 589.914 67.496 590.842 68.744 591.802 69.992 592.282 71.96 592.282 74.648L592.282 85.16C592.282 86.152 592.714 86.648 593.578 86.648 594.282 86.648 595.002 86.344 595.738 85.736L596.554 86.84C595.818 87.672 595.002 88.344 594.106 88.856 593.21 89.368 592.394 89.624 591.658 89.624ZM624.76 89.624C621.496 89.624 618.904 88.6 616.984 86.552 615.064 84.472 614.104 81.688 614.104 78.2 614.104 74.712 615.064 71.96 616.984 69.944 618.904 67.896 621.496 66.872 624.76 66.872 626.904 66.872 628.776 67.336 630.376 68.264 631.976 69.192 633.208 70.504 634.072 72.2 634.936 73.896 635.368 75.896 635.368 78.2 635.368 80.504 634.92 82.52 634.024 84.248 633.16 85.976 631.928 87.304 630.328 88.232 628.728 89.16 626.872 89.624 624.76 89.624ZM624.664 87.272C626.488 87.272 627.96 86.456 629.08 84.824 630.232 83.16 630.808 80.984 630.808 78.296 630.808 76.92 630.616 75.544 630.232 74.168 629.848 72.76 629.208 71.576 628.312 70.616 627.448 69.624 626.312 69.128 624.904 69.128 623.016 69.128 621.496 69.96 620.344 71.624 619.224 73.288 618.664 75.496 618.664 78.248 618.664 81 619.192 83.192 620.248 84.824 621.336 86.456 622.808 87.272 624.664 87.272ZM654.665 99.944 655.145 99.224C655.689 98.488 656.073 97.704 656.297 96.872 656.521 96.072 656.633 94.984 656.633 93.608L656.633 72.44C656.633 72.024 656.569 71.704 656.441 71.48 656.313 71.256 656.073 71.096 655.721 71L653.465 70.472 653.465 69.128C653.913 68.712 654.777 68.312 656.057 67.928 657.337 67.544 658.457 67.352 659.417 67.352 660.153 67.352 660.521 68.024 660.521 69.368L660.521 69.56C662.377 67.768 664.473 66.872 666.809 66.872 668.569 66.872 670.153 67.32 671.561 68.216 672.969 69.112 674.057 70.36 674.825 71.96 675.625 73.528 676.025 75.336 676.025 77.384 676.025 79.688 675.609 81.784 674.777 83.672 673.945 85.528 672.793 86.984 671.321 88.04 669.881 89.096 668.265 89.624 666.473 89.624 664.745 89.624 663.305 89.224 662.153 88.424 661.865 88.264 661.721 88.008 661.721 87.656 661.721 87.336 661.769 87.08 661.865 86.888 661.993 86.664 662.169 86.552 662.393 86.552 662.489 86.552 662.793 86.68 663.305 86.936 663.849 87.16 664.553 87.272 665.417 87.272 667.209 87.272 668.649 86.424 669.737 84.728 670.857 83.032 671.417 80.856 671.417 78.2 671.417 75.704 670.857 73.672 669.737 72.104 668.649 70.504 667.193 69.704 665.369 69.704 664.409 69.704 663.545 69.832 662.777 70.088 662.009 70.344 661.257 70.776 660.521 71.384L660.521 95.768C660.521 96.888 660.633 97.672 660.857 98.12 661.113 98.568 661.609 98.872 662.345 99.032L663.209 99.224 662.825 100.52 655.145 100.52 654.665 99.944ZM707.065 99.128 708.409 98.456C709.113 98.2 709.577 97.848 709.801 97.4 710.057 96.984 710.185 96.296 710.185 95.336L710.185 85.016C709.033 86.712 707.833 87.912 706.585 88.616 705.369 89.288 704.041 89.624 702.601 89.624 701.193 89.624 699.881 89.224 698.665 88.424 697.481 87.592 696.521 86.392 695.785 84.824 695.081 83.224 694.729 81.288 694.729 79.016 694.729 75.272 695.737 72.312 697.753 70.136 699.801 67.96 702.553 66.872 706.009 66.872 707.129 66.872 708.713 67.048 710.761 67.4 712.265 67.656 713.609 67.832 714.793 67.928L715.321 68.456 714.745 69.272C714.681 69.368 714.569 69.576 714.409 69.896 714.249 70.184 714.169 70.552 714.169 71L714.169 94.088C714.169 95.496 714.233 96.552 714.361 97.256 714.521 97.96 714.825 98.616 715.273 99.224L715.705 99.944 715.225 100.52 707.065 100.52 707.065 99.128ZM704.281 86.216C706.713 86.216 708.681 84.904 710.185 82.28L710.185 70.52C708.937 69.688 707.529 69.272 705.961 69.272 703.881 69.272 702.249 70.056 701.065 71.624 699.913 73.16 699.337 75.352 699.337 78.2 699.337 80.952 699.801 82.984 700.729 84.296 701.689 85.576 702.873 86.216 704.281 86.216ZM735.423 87.656 736.239 87.416C737.007 87.288 737.503 87 737.727 86.552 737.983 86.072 738.111 85.272 738.111 84.152L738.111 71.96C738.111 71.608 738.047 71.368 737.919 71.24 737.791 71.08 737.567 71 737.247 71L735.375 71 734.943 69.848C735.775 69.08 736.735 68.456 737.823 67.976 738.911 67.496 739.871 67.256 740.703 67.256 741.119 67.256 741.455 67.384 741.711 67.64 741.967 67.896 742.095 68.216 742.095 68.6L742.095 73.352 742.335 73.352C742.847 71.4 743.615 69.832 744.639 68.648 745.695 67.464 746.831 66.872 748.047 66.872 749.263 66.872 750.255 67.272 751.023 68.072 751.823 68.84 752.223 69.912 752.223 71.288 752.223 72.376 751.823 73.288 751.023 74.024 750.223 74.76 749.215 75.128 747.999 75.128 747.423 75.128 747.135 74.984 747.135 74.696 747.135 74.6 747.247 74.376 747.471 74.024 747.695 73.672 747.887 73.32 748.047 72.968 748.207 72.616 748.287 72.2 748.287 71.72 748.287 71.176 748.159 70.76 747.903 70.472 747.647 70.152 747.311 69.992 746.895 69.992 746.223 69.992 745.519 70.408 744.783 71.24 744.047 72.072 743.407 73.4 742.863 75.224 742.351 77.048 742.095 79.368 742.095 82.184 742.095 83.496 742.191 84.568 742.383 85.4 742.607 86.2 742.975 86.952 743.487 87.656L744.015 88.328 743.487 89 735.855 89 735.423 87.656ZM779.463 89.624C777.287 89.624 775.479 89.128 774.039 88.136 772.599 87.112 771.879 85.784 771.879 84.152 771.879 83.192 772.215 82.392 772.887 81.752 773.591 81.08 774.471 80.744 775.527 80.744 775.751 80.744 775.959 80.792 776.151 80.888 776.343 80.984 776.439 81.112 776.439 81.272 776.439 81.368 776.343 81.656 776.151 82.136 775.959 82.584 775.863 83.128 775.863 83.768 775.863 84.952 776.279 85.864 777.111 86.504 777.975 87.144 778.935 87.464 779.991 87.464 781.207 87.464 782.199 87.144 782.967 86.504 783.735 85.864 784.119 85.032 784.119 84.008 784.119 83.08 783.703 82.312 782.871 81.704 782.071 81.096 780.903 80.472 779.367 79.832 777.959 79.224 776.775 78.648 775.815 78.104 774.887 77.56 774.087 76.84 773.415 75.944 772.743 75.048 772.407 73.96 772.407 72.68 772.407 70.984 773.159 69.592 774.663 68.504 776.167 67.416 778.055 66.872 780.327 66.872 782.407 66.872 784.119 67.272 785.463 68.072 786.807 68.84 787.479 69.912 787.479 71.288 787.479 72.408 787.143 73.32 786.471 74.024 785.799 74.728 784.919 75.08 783.831 75.08 783.191 75.08 782.871 74.872 782.871 74.456 782.871 74.328 782.983 74.04 783.207 73.592 783.463 73.144 783.591 72.632 783.591 72.056 783.591 71.032 783.223 70.264 782.487 69.752 781.751 69.208 780.919 68.936 779.991 68.936 778.807 68.936 777.863 69.224 777.159 69.8 776.487 70.376 776.151 71.128 776.151 72.056 776.151 73.144 776.599 74.04 777.495 74.744 778.391 75.416 779.655 76.056 781.287 76.664 782.695 77.272 783.863 77.832 784.791 78.344 785.719 78.856 786.503 79.512 787.143 80.312 787.783 81.08 788.103 81.992 788.103 83.048 788.103 85.032 787.303 86.632 785.703 87.848 784.135 89.032 782.055 89.624 779.463 89.624ZM815.779 89.624C814.595 89.624 813.667 89.256 812.995 88.52 812.323 87.752 811.987 86.712 811.987 85.4L811.987 70.088 808.195 70.088C808.195 69.32 808.259 68.824 808.387 68.6 808.515 68.344 808.803 68.152 809.251 68.024 810.787 67.64 811.875 67 812.515 66.104 813.155 65.208 813.635 64.024 813.955 62.552 814.019 62.104 814.163 61.832 814.387 61.736 814.643 61.608 815.187 61.544 816.019 61.544L816.019 67.4 821.635 67.4C821.635 68.008 821.539 68.552 821.347 69.032 821.187 69.512 820.963 69.864 820.675 70.088L816.019 70.088 816.019 84.152C816.019 85.048 816.131 85.688 816.355 86.072 816.611 86.424 817.043 86.6 817.651 86.6 818.515 86.6 819.491 86.136 820.579 85.208L821.395 86.36C820.659 87.32 819.763 88.104 818.707 88.712 817.651 89.32 816.675 89.624 815.779 89.624ZM853.01 89.624C850.93 89.624 849.314 89 848.162 87.752 847.01 86.472 846.434 84.696 846.434 82.424L846.434 71.576C846.434 70.872 846.146 70.52 845.57 70.52L843.602 70.52 843.266 69.464C844.002 68.696 844.898 68.072 845.954 67.592 847.042 67.112 848.034 66.872 848.93 66.872 849.346 66.872 849.682 67 849.938 67.256 850.226 67.48 850.37 67.784 850.37 68.168L850.37 81.368C850.37 83.096 850.722 84.424 851.426 85.352 852.13 86.248 853.17 86.696 854.546 86.696 856.498 86.696 858.018 85.864 859.106 84.2 860.194 82.504 860.738 80.168 860.738 77.192 860.738 75.08 860.61 73.432 860.354 72.248 860.13 71.032 859.682 69.848 859.01 68.696L858.482 68.024 859.01 67.4 864.386 66.872 864.386 85.16C864.386 86.056 864.77 86.504 865.538 86.504 866.274 86.504 866.994 86.248 867.698 85.736L868.562 86.84C867.858 87.672 867.058 88.344 866.162 88.856 865.298 89.368 864.482 89.624 863.714 89.624 862.562 89.624 861.73 89.288 861.218 88.616 860.706 87.912 860.45 86.84 860.45 85.4 859.746 86.712 858.738 87.752 857.426 88.52 856.114 89.256 854.642 89.624 853.01 89.624ZM895.819 89.624C894.315 89.624 893.099 89.336 892.171 88.76 891.275 88.184 890.555 87.272 890.011 86.024 889.499 84.744 889.083 82.968 888.763 80.696L887.323 71.576C887.259 71.16 887.179 70.888 887.083 70.76 886.987 70.6 886.795 70.52 886.507 70.52L884.635 70.52 884.203 69.464C884.971 68.728 885.867 68.12 886.891 67.64 887.947 67.128 888.875 66.872 889.675 66.872 890.475 66.872 890.955 67.304 891.115 68.168L893.035 81.848C893.291 83.576 893.675 84.84 894.187 85.64 894.699 86.408 895.435 86.792 896.395 86.792 898.187 86.792 899.547 85.768 900.475 83.72 901.403 81.672 901.867 79.176 901.867 76.232 901.867 74.856 901.691 73.512 901.339 72.2 901.019 70.856 900.539 69.672 899.899 68.648L899.515 67.976 899.995 67.448 905.227 66.872C905.355 68.92 905.419 70.456 905.419 71.48 905.419 75.32 904.971 78.616 904.075 81.368 903.211 84.088 902.043 86.152 900.571 87.56 899.131 88.936 897.547 89.624 895.819 89.624ZM934.632 89.624C933.128 89.624 931.912 89.336 930.984 88.76 930.088 88.184 929.368 87.272 928.824 86.024 928.312 84.744 927.896 82.968 927.576 80.696L926.136 71.576C926.072 71.16 925.992 70.888 925.896 70.76 925.8 70.6 925.608 70.52 925.32 70.52L923.448 70.52 923.016 69.464C923.784 68.728 924.68 68.12 925.704 67.64 926.76 67.128 927.688 66.872 928.488 66.872 929.288 66.872 929.768 67.304 929.928 68.168L931.848 81.848C932.104 83.576 932.488 84.84 933 85.64 933.512 86.408 934.248 86.792 935.208 86.792 936.136 86.792 936.952 86.296 937.656 85.304 938.392 84.312 938.952 83 939.336 81.368 939.72 79.736 939.912 78.008 939.912 76.184 939.912 74.808 939.752 73.464 939.432 72.152 939.112 70.808 938.632 69.624 937.992 68.6L937.56 67.976 938.04 67.4 943.128 66.872C943.32 68.408 943.416 69.944 943.416 71.48 943.416 72.888 943.32 74.296 943.128 75.704L944.04 81.848C944.296 83.608 944.68 84.872 945.192 85.64 945.736 86.408 946.52 86.792 947.544 86.792 948.472 86.792 949.288 86.296 949.992 85.304 950.728 84.28 951.288 82.968 951.672 81.368 952.088 79.736 952.296 78.008 952.296 76.184 952.296 74.808 952.136 73.464 951.816 72.152 951.496 70.808 951.016 69.624 950.376 68.6L949.992 67.976 950.424 67.4 955.56 66.872C955.688 68.92 955.752 70.456 955.752 71.48 955.752 75.32 955.352 78.616 954.552 81.368 953.784 84.088 952.744 86.152 951.432 87.56 950.152 88.936 948.744 89.624 947.208 89.624 945.544 89.624 944.232 89.208 943.272 88.376 942.312 87.544 941.576 86.136 941.064 84.152 940.296 85.944 939.352 87.304 938.232 88.232 937.144 89.16 935.944 89.624 934.632 89.624ZM992.324 89.624C990.34 89.624 988.804 88.6 987.716 86.552L984.164 80.552C981.572 83.464 980.276 85.352 980.276 86.216 980.276 86.504 980.34 86.76 980.468 86.984 980.628 87.176 980.852 87.4 981.14 87.656L981.956 88.328 981.476 89 974.708 89 974.18 88.088C977.54 84.792 980.564 81.736 983.252 78.92L978.452 70.76C978.196 70.312 977.924 70.008 977.636 69.848 977.348 69.656 977.012 69.56 976.628 69.56 976.308 69.56 975.764 69.736 974.996 70.088L974.036 68.84C975.252 67.528 976.596 66.872 978.068 66.872 980.084 66.872 981.62 67.864 982.676 69.848L986.18 75.8C988.74 72.856 990.02 70.952 990.02 70.088 990.02 69.832 989.956 69.608 989.828 69.416 989.7 69.224 989.492 68.984 989.204 68.696L988.244 68.024 988.82 67.4 995.636 67.4 996.068 68.264 994.916 69.416C991.94 72.328 989.332 75 987.092 77.432L991.94 85.64C992.196 86.12 992.452 86.44 992.708 86.6 992.996 86.76 993.348 86.84 993.764 86.84 994.276 86.84 994.804 86.664 995.348 86.312L996.356 87.608C995.652 88.312 994.98 88.824 994.34 89.144 993.732 89.464 993.06 89.624 992.324 89.624ZM1024.66 101.144C1023.06 101.144 1021.68 100.84 1020.53 100.232 1019.41 99.656 1018.56 98.888 1017.98 97.928 1017.44 96.968 1017.17 95.96 1017.17 94.904 1017.17 93.432 1017.66 92.184 1018.66 91.16 1019.65 90.136 1021.01 89.624 1022.74 89.624 1022.99 89.624 1023.18 89.656 1023.31 89.72 1023.44 89.816 1023.5 89.928 1023.5 90.056 1023.5 90.184 1023.3 90.456 1022.88 90.872 1022.5 91.32 1022.14 91.848 1021.82 92.456 1021.54 93.064 1021.39 93.832 1021.39 94.76 1021.39 95.912 1021.73 96.872 1022.4 97.64 1023.1 98.44 1024.03 98.84 1025.18 98.84 1026.98 98.84 1028.3 98.088 1029.17 96.584 1030.03 95.112 1030.46 93.128 1030.46 90.632L1030.46 84.2C1029.76 85.48 1028.74 86.488 1027.39 87.224 1026.08 87.96 1024.61 88.328 1022.98 88.328 1020.93 88.328 1019.33 87.704 1018.18 86.456 1017.06 85.176 1016.5 83.4 1016.5 81.128L1016.5 71.528C1016.5 71.144 1016.43 70.872 1016.3 70.712 1016.18 70.552 1015.95 70.472 1015.63 70.472L1013.66 70.472 1013.33 69.416C1014.06 68.648 1014.96 68.024 1016.02 67.544 1017.1 67.064 1018.1 66.824 1018.99 66.824 1019.41 66.824 1019.74 66.952 1020 67.208 1020.29 67.432 1020.43 67.736 1020.43 68.12L1020.43 80.12C1020.43 81.848 1020.78 83.16 1021.49 84.056 1022.19 84.952 1023.2 85.4 1024.51 85.4 1026.46 85.4 1027.98 84.68 1029.07 83.24 1030.16 81.8 1030.7 79.768 1030.7 77.144 1030.7 74.744 1030.61 72.968 1030.42 71.816 1030.22 70.664 1029.74 69.608 1028.98 68.648L1028.5 67.976 1028.98 67.352 1034.3 66.824 1034.3 89.96C1034.3 93.512 1033.44 96.264 1031.71 98.216 1029.98 100.168 1027.63 101.144 1024.66 101.144ZM1071.47 90.008C1070.83 89.624 1070.15 89.352 1069.41 89.192 1068.67 89.064 1067.62 89 1066.24 89L1055.11 89 1054.67 87.656 1066.82 69.944 1060.34 69.944C1059.22 69.944 1058.43 70.072 1057.99 70.328 1057.57 70.552 1057.28 71.032 1057.12 71.768L1056.59 74.024 1055.25 73.592 1055.25 66.92 1055.73 66.296C1056.37 66.744 1057.06 67.048 1057.79 67.208 1058.53 67.336 1059.59 67.4 1060.96 67.4L1071.81 67.4C1072.35 67.912 1072.63 68.536 1072.63 69.272L1071.47 69.992 1060.05 86.504 1066.82 86.504C1067.94 86.504 1068.74 86.376 1069.22 86.12 1069.7 85.864 1070 85.368 1070.13 84.632L1070.61 82.376 1072 82.808 1072 89.528 1071.47 90.008Z" fill="#000000"/><path d="M47.24 219.008C46.6 218.624 45.912 218.352 45.176 218.192 44.44 218.064 43.384 218 42.008 218L30.872 218 30.44 216.656 42.584 198.944 36.104 198.944C34.984 198.944 34.2 199.072 33.752 199.328 33.336 199.552 33.048 200.032 32.888 200.768L32.36 203.024 31.016 202.592 31.016 195.92 31.496 195.296C32.136 195.744 32.824 196.048 33.56 196.208 34.296 196.336 35.352 196.4 36.728 196.4L47.576 196.4C48.12 196.912 48.392 197.536 48.392 198.272L47.24 198.992 35.816 215.504 42.584 215.504C43.704 215.504 44.504 215.376 44.984 215.12 45.464 214.864 45.768 214.368 45.896 213.632L46.376 211.376 47.768 211.808 47.768 218.528 47.24 219.008ZM82.5431 230.144C80.9431 230.144 79.5671 229.84 78.4151 229.232 77.2951 228.656 76.4471 227.888 75.8711 226.928 75.3271 225.968 75.0551 224.96 75.0551 223.904 75.0551 222.432 75.5511 221.184 76.5431 220.16 77.5351 219.136 78.8951 218.624 80.6231 218.624 80.8791 218.624 81.0711 218.656 81.1991 218.72 81.3271 218.816 81.3911 218.928 81.3911 219.056 81.3911 219.184 81.1831 219.456 80.7671 219.872 80.3831 220.32 80.0311 220.848 79.7111 221.456 79.4231 222.064 79.2791 222.832 79.2791 223.76 79.2791 224.912 79.6151 225.872 80.2871 226.64 80.9911 227.44 81.9191 227.84 83.0711 227.84 84.8631 227.84 86.1911 227.088 87.0551 225.584 87.9191 224.112 88.3511 222.128 88.3511 219.632L88.3511 213.2C87.6471 214.48 86.6231 215.488 85.2791 216.224 83.9671 216.96 82.4951 217.328 80.8631 217.328 78.8151 217.328 77.2151 216.704 76.0631 215.456 74.9431 214.176 74.3831 212.4 74.3831 210.128L74.3831 200.528C74.3831 200.144 74.3191 199.872 74.1911 199.712 74.0631 199.552 73.8391 199.472 73.5191 199.472L71.5511 199.472 71.2151 198.416C71.9511 197.648 72.8471 197.024 73.9031 196.544 74.9911 196.064 75.9831 195.824 76.8791 195.824 77.2951 195.824 77.6311 195.952 77.8871 196.208 78.1751 196.432 78.3191 196.736 78.3191 197.12L78.3191 209.12C78.3191 210.848 78.6711 212.16 79.3751 213.056 80.0791 213.952 81.0871 214.4 82.3991 214.4 84.3511 214.4 85.8711 213.68 86.9591 212.24 88.0471 210.8 88.5911 208.768 88.5911 206.144 88.5911 203.744 88.4951 201.968 88.3031 200.816 88.1111 199.664 87.6311 198.608 86.8631 197.648L86.3831 196.976 86.8631 196.352 92.1911 195.824 92.1911 218.96C92.1911 222.512 91.3271 225.264 89.5991 227.216 87.8711 229.168 85.5191 230.144 82.5431 230.144ZM133.05 218.624C131.066 218.624 129.53 217.6 128.442 215.552L124.89 209.552C122.298 212.464 121.002 214.352 121.002 215.216 121.002 215.504 121.066 215.76 121.194 215.984 121.354 216.176 121.578 216.4 121.866 216.656L122.682 217.328 122.202 218 115.434 218 114.906 217.088C118.266 213.792 121.29 210.736 123.978 207.92L119.178 199.76C118.922 199.312 118.65 199.008 118.362 198.848 118.074 198.656 117.738 198.56 117.354 198.56 117.034 198.56 116.49 198.736 115.722 199.088L114.762 197.84C115.978 196.528 117.322 195.872 118.794 195.872 120.81 195.872 122.346 196.864 123.402 198.848L126.906 204.8C129.466 201.856 130.746 199.952 130.746 199.088 130.746 198.832 130.682 198.608 130.554 198.416 130.426 198.224 130.218 197.984 129.93 197.696L128.97 197.024 129.546 196.4 136.362 196.4 136.794 197.264 135.642 198.416C132.666 201.328 130.058 204 127.818 206.432L132.666 214.64C132.922 215.12 133.178 215.44 133.434 215.6 133.722 215.76 134.074 215.84 134.49 215.84 135.002 215.84 135.53 215.664 136.074 215.312L137.082 216.608C136.378 217.312 135.706 217.824 135.066 218.144 134.458 218.464 133.786 218.624 133.05 218.624ZM164.327 218.624C162.823 218.624 161.607 218.336 160.679 217.76 159.783 217.184 159.063 216.272 158.519 215.024 158.007 213.744 157.591 211.968 157.271 209.696L155.831 200.576C155.767 200.16 155.687 199.888 155.591 199.76 155.495 199.6 155.303 199.52 155.015 199.52L153.143 199.52 152.711 198.464C153.479 197.728 154.375 197.12 155.399 196.64 156.455 196.128 157.383 195.872 158.183 195.872 158.983 195.872 159.463 196.304 159.623 197.168L161.543 210.848C161.799 212.576 162.183 213.84 162.695 214.64 163.207 215.408 163.943 215.792 164.903 215.792 165.831 215.792 166.647 215.296 167.351 214.304 168.087 213.312 168.647 212 169.031 210.368 169.415 208.736 169.607 207.008 169.607 205.184 169.607 203.808 169.447 202.464 169.127 201.152 168.807 199.808 168.327 198.624 167.687 197.6L167.255 196.976 167.735 196.4 172.823 195.872C173.015 197.408 173.111 198.944 173.111 200.48 173.111 201.888 173.015 203.296 172.823 204.704L173.735 210.848C173.991 212.608 174.375 213.872 174.887 214.64 175.431 215.408 176.215 215.792 177.239 215.792 178.167 215.792 178.983 215.296 179.687 214.304 180.423 213.28 180.983 211.968 181.367 210.368 181.783 208.736 181.991 207.008 181.991 205.184 181.991 203.808 181.831 202.464 181.511 201.152 181.191 199.808 180.711 198.624 180.071 197.6L179.687 196.976 180.119 196.4 185.255 195.872C185.383 197.92 185.447 199.456 185.447 200.48 185.447 204.32 185.047 207.616 184.247 210.368 183.479 213.088 182.439 215.152 181.127 216.56 179.847 217.936 178.439 218.624 176.903 218.624 175.239 218.624 173.927 218.208 172.967 217.376 172.007 216.544 171.271 215.136 170.759 213.152 169.991 214.944 169.047 216.304 167.927 217.232 166.839 218.16 165.639 218.624 164.327 218.624ZM214.483 218.624C212.979 218.624 211.763 218.336 210.835 217.76 209.939 217.184 209.219 216.272 208.675 215.024 208.163 213.744 207.747 211.968 207.427 209.696L205.987 200.576C205.923 200.16 205.843 199.888 205.747 199.76 205.651 199.6 205.459 199.52 205.171 199.52L203.299 199.52 202.867 198.464C203.635 197.728 204.531 197.12 205.555 196.64 206.611 196.128 207.539 195.872 208.339 195.872 209.139 195.872 209.619 196.304 209.779 197.168L211.699 210.848C211.955 212.576 212.339 213.84 212.851 214.64 213.363 215.408 214.099 215.792 215.059 215.792 216.851 215.792 218.211 214.768 219.139 212.72 220.067 210.672 220.531 208.176 220.531 205.232 220.531 203.856 220.355 202.512 220.003 201.2 219.683 199.856 219.203 198.672 218.563 197.648L218.179 196.976 218.659 196.448 223.891 195.872C224.019 197.92 224.083 199.456 224.083 200.48 224.083 204.32 223.635 207.616 222.739 210.368 221.875 213.088 220.707 215.152 219.235 216.56 217.795 217.936 216.211 218.624 214.483 218.624ZM252.768 218.624C250.688 218.624 249.072 218 247.92 216.752 246.768 215.472 246.192 213.696 246.192 211.424L246.192 200.576C246.192 199.872 245.904 199.52 245.328 199.52L243.36 199.52 243.024 198.464C243.76 197.696 244.656 197.072 245.712 196.592 246.8 196.112 247.792 195.872 248.688 195.872 249.104 195.872 249.44 196 249.696 196.256 249.984 196.48 250.128 196.784 250.128 197.168L250.128 210.368C250.128 212.096 250.48 213.424 251.184 214.352 251.888 215.248 252.928 215.696 254.304 215.696 256.256 215.696 257.776 214.864 258.864 213.2 259.952 211.504 260.496 209.168 260.496 206.192 260.496 204.08 260.368 202.432 260.112 201.248 259.888 200.032 259.44 198.848 258.768 197.696L258.24 197.024 258.768 196.4 264.144 195.872 264.144 214.16C264.144 215.056 264.528 215.504 265.296 215.504 266.032 215.504 266.752 215.248 267.456 214.736L268.32 215.84C267.616 216.672 266.816 217.344 265.92 217.856 265.056 218.368 264.24 218.624 263.472 218.624 262.32 218.624 261.488 218.288 260.976 217.616 260.464 216.912 260.208 215.84 260.208 214.4 259.504 215.712 258.496 216.752 257.184 217.52 255.872 218.256 254.4 218.624 252.768 218.624ZM298.814 218.624C297.63 218.624 296.702 218.256 296.03 217.52 295.358 216.752 295.022 215.712 295.022 214.4L295.022 199.088 291.23 199.088C291.23 198.32 291.294 197.824 291.422 197.6 291.55 197.344 291.838 197.152 292.286 197.024 293.822 196.64 294.91 196 295.55 195.104 296.19 194.208 296.67 193.024 296.99 191.552 297.054 191.104 297.198 190.832 297.422 190.736 297.678 190.608 298.222 190.544 299.054 190.544L299.054 196.4 304.67 196.4C304.67 197.008 304.574 197.552 304.382 198.032 304.222 198.512 303.998 198.864 303.71 199.088L299.054 199.088 299.054 213.152C299.054 214.048 299.166 214.688 299.39 215.072 299.646 215.424 300.078 215.6 300.686 215.6 301.55 215.6 302.526 215.136 303.614 214.208L304.43 215.36C303.694 216.32 302.798 217.104 301.742 217.712 300.686 218.32 299.71 218.624 298.814 218.624ZM338.288 218.624C336.112 218.624 334.304 218.128 332.864 217.136 331.424 216.112 330.704 214.784 330.704 213.152 330.704 212.192 331.04 211.392 331.712 210.752 332.416 210.08 333.296 209.744 334.352 209.744 334.576 209.744 334.784 209.792 334.976 209.888 335.168 209.984 335.264 210.112 335.264 210.272 335.264 210.368 335.168 210.656 334.976 211.136 334.784 211.584 334.688 212.128 334.688 212.768 334.688 213.952 335.104 214.864 335.936 215.504 336.8 216.144 337.76 216.464 338.816 216.464 340.032 216.464 341.024 216.144 341.792 215.504 342.56 214.864 342.944 214.032 342.944 213.008 342.944 212.08 342.528 211.312 341.696 210.704 340.896 210.096 339.728 209.472 338.192 208.832 336.784 208.224 335.6 207.648 334.64 207.104 333.712 206.56 332.912 205.84 332.24 204.944 331.568 204.048 331.232 202.96 331.232 201.68 331.232 199.984 331.984 198.592 333.488 197.504 334.992 196.416 336.88 195.872 339.152 195.872 341.232 195.872 342.944 196.272 344.288 197.072 345.632 197.84 346.304 198.912 346.304 200.288 346.304 201.408 345.968 202.32 345.296 203.024 344.624 203.728 343.744 204.08 342.656 204.08 342.016 204.08 341.696 203.872 341.696 203.456 341.696 203.328 341.808 203.04 342.032 202.592 342.288 202.144 342.416 201.632 342.416 201.056 342.416 200.032 342.048 199.264 341.312 198.752 340.576 198.208 339.744 197.936 338.816 197.936 337.632 197.936 336.688 198.224 335.984 198.8 335.312 199.376 334.976 200.128 334.976 201.056 334.976 202.144 335.424 203.04 336.32 203.744 337.216 204.416 338.48 205.056 340.112 205.664 341.52 206.272 342.688 206.832 343.616 207.344 344.544 207.856 345.328 208.512 345.968 209.312 346.608 210.08 346.928 210.992 346.928 212.048 346.928 214.032 346.128 215.632 344.528 216.848 342.96 218.032 340.88 218.624 338.288 218.624ZM368.438 216.656 369.254 216.416C370.022 216.288 370.518 216 370.742 215.552 370.998 215.072 371.126 214.272 371.126 213.152L371.126 200.96C371.126 200.608 371.062 200.368 370.934 200.24 370.806 200.08 370.582 200 370.262 200L368.39 200 367.958 198.848C368.79 198.08 369.75 197.456 370.838 196.976 371.926 196.496 372.886 196.256 373.718 196.256 374.134 196.256 374.47 196.384 374.726 196.64 374.982 196.896 375.11 197.216 375.11 197.6L375.11 202.352 375.35 202.352C375.862 200.4 376.63 198.832 377.654 197.648 378.71 196.464 379.846 195.872 381.062 195.872 382.278 195.872 383.27 196.272 384.038 197.072 384.838 197.84 385.238 198.912 385.238 200.288 385.238 201.376 384.838 202.288 384.038 203.024 383.238 203.76 382.23 204.128 381.014 204.128 380.438 204.128 380.15 203.984 380.15 203.696 380.15 203.6 380.262 203.376 380.486 203.024 380.71 202.672 380.902 202.32 381.062 201.968 381.222 201.616 381.302 201.2 381.302 200.72 381.302 200.176 381.174 199.76 380.918 199.472 380.662 199.152 380.326 198.992 379.91 198.992 379.238 198.992 378.534 199.408 377.798 200.24 377.062 201.072 376.422 202.4 375.878 204.224 375.366 206.048 375.11 208.368 375.11 211.184 375.11 212.496 375.206 213.568 375.398 214.4 375.622 215.2 375.99 215.952 376.502 216.656L377.03 217.328 376.502 218 368.87 218 368.438 216.656ZM414.33 228.128 415.674 227.456C416.378 227.2 416.842 226.848 417.066 226.4 417.322 225.984 417.45 225.296 417.45 224.336L417.45 214.016C416.298 215.712 415.098 216.912 413.85 217.616 412.634 218.288 411.306 218.624 409.866 218.624 408.458 218.624 407.146 218.224 405.93 217.424 404.746 216.592 403.786 215.392 403.05 213.824 402.346 212.224 401.994 210.288 401.994 208.016 401.994 204.272 403.002 201.312 405.018 199.136 407.066 196.96 409.818 195.872 413.274 195.872 414.394 195.872 415.978 196.048 418.026 196.4 419.53 196.656 420.874 196.832 422.058 196.928L422.586 197.456 422.01 198.272C421.946 198.368 421.834 198.576 421.674 198.896 421.514 199.184 421.434 199.552 421.434 200L421.434 223.088C421.434 224.496 421.498 225.552 421.626 226.256 421.786 226.96 422.09 227.616 422.538 228.224L422.97 228.944 422.49 229.52 414.33 229.52 414.33 228.128ZM411.546 215.216C413.978 215.216 415.946 213.904 417.45 211.28L417.45 199.52C416.202 198.688 414.794 198.272 413.226 198.272 411.146 198.272 409.514 199.056 408.33 200.624 407.178 202.16 406.602 204.352 406.602 207.2 406.602 209.952 407.066 211.984 407.994 213.296 408.954 214.576 410.138 215.216 411.546 215.216ZM443.024 228.944 443.504 228.224C444.048 227.488 444.432 226.704 444.656 225.872 444.88 225.072 444.992 223.984 444.992 222.608L444.992 201.44C444.992 201.024 444.928 200.704 444.8 200.48 444.672 200.256 444.432 200.096 444.08 200L441.824 199.472 441.824 198.128C442.272 197.712 443.136 197.312 444.416 196.928 445.696 196.544 446.816 196.352 447.776 196.352 448.512 196.352 448.88 197.024 448.88 198.368L448.88 198.56C450.736 196.768 452.832 195.872 455.168 195.872 456.928 195.872 458.512 196.32 459.92 197.216 461.328 198.112 462.416 199.36 463.184 200.96 463.984 202.528 464.384 204.336 464.384 206.384 464.384 208.688 463.968 210.784 463.136 212.672 462.304 214.528 461.152 215.984 459.68 217.04 458.24 218.096 456.624 218.624 454.832 218.624 453.104 218.624 451.664 218.224 450.512 217.424 450.224 217.264 450.08 217.008 450.08 216.656 450.08 216.336 450.128 216.08 450.224 215.888 450.352 215.664 450.528 215.552 450.752 215.552 450.848 215.552 451.152 215.68 451.664 215.936 452.208 216.16 452.912 216.272 453.776 216.272 455.568 216.272 457.008 215.424 458.096 213.728 459.216 212.032 459.776 209.856 459.776 207.2 459.776 204.704 459.216 202.672 458.096 201.104 457.008 199.504 455.552 198.704 453.728 198.704 452.768 198.704 451.904 198.832 451.136 199.088 450.368 199.344 449.616 199.776 448.88 200.384L448.88 224.768C448.88 225.888 448.992 226.672 449.216 227.12 449.472 227.568 449.968 227.872 450.704 228.032L451.568 228.224 451.184 229.52 443.504 229.52 443.024 228.944ZM493.744 218.624C490.48 218.624 487.888 217.6 485.968 215.552 484.048 213.472 483.088 210.688 483.088 207.2 483.088 203.712 484.048 200.96 485.968 198.944 487.888 196.896 490.48 195.872 493.744 195.872 495.888 195.872 497.76 196.336 499.36 197.264 500.96 198.192 502.192 199.504 503.056 201.2 503.92 202.896 504.352 204.896 504.352 207.2 504.352 209.504 503.904 211.52 503.008 213.248 502.144 214.976 500.912 216.304 499.312 217.232 497.712 218.16 495.856 218.624 493.744 218.624ZM493.648 216.272C495.472 216.272 496.944 215.456 498.064 213.824 499.216 212.16 499.792 209.984 499.792 207.296 499.792 205.92 499.6 204.544 499.216 203.168 498.832 201.76 498.192 200.576 497.296 199.616 496.432 198.624 495.296 198.128 493.888 198.128 492 198.128 490.48 198.96 489.328 200.624 488.208 202.288 487.648 204.496 487.648 207.248 487.648 210 488.176 212.192 489.232 213.824 490.32 215.456 491.792 216.272 493.648 216.272ZM543.329 218.624C542.145 218.624 541.297 218.272 540.785 217.568 540.273 216.832 540.017 215.648 540.017 214.016L540.017 203.648C540.017 202.176 539.697 201.072 539.057 200.336 538.417 199.568 537.473 199.184 536.225 199.184 534.977 199.184 533.873 199.68 532.913 200.672 531.985 201.664 531.265 203.056 530.753 204.848 530.241 206.64 529.985 208.704 529.985 211.04 529.985 212.384 530.081 213.472 530.273 214.304 530.497 215.136 530.865 215.92 531.377 216.656L531.905 217.328 531.377 218 523.745 218 523.313 216.656 524.129 216.416C524.897 216.288 525.393 216 525.617 215.552 525.873 215.072 526.001 214.272 526.001 213.152L526.001 200.96C526.001 200.608 525.937 200.368 525.809 200.24 525.681 200.08 525.457 200 525.137 200L523.265 200 522.833 198.848C523.665 198.08 524.625 197.456 525.713 196.976 526.801 196.496 527.761 196.256 528.593 196.256 529.009 196.256 529.345 196.384 529.601 196.64 529.857 196.896 529.985 197.216 529.985 197.6L529.985 202.352C530.721 200.464 531.841 198.912 533.345 197.696 534.849 196.48 536.433 195.872 538.097 195.872 540.113 195.872 541.585 196.496 542.513 197.744 543.473 198.992 543.953 200.96 543.953 203.648L543.953 214.16C543.953 215.152 544.385 215.648 545.249 215.648 545.953 215.648 546.673 215.344 547.409 214.736L548.225 215.84C547.489 216.672 546.673 217.344 545.777 217.856 544.881 218.368 544.065 218.624 543.329 218.624ZM604.286 218.624C603.102 218.624 602.238 218.272 601.694 217.568 601.182 216.832 600.926 215.648 600.926 214.016L600.926 203.648C600.926 200.672 599.854 199.184 597.71 199.184 596.526 199.184 595.454 199.664 594.494 200.624 593.566 201.552 592.83 202.88 592.286 204.608 591.742 206.304 591.454 208.272 591.422 210.512L591.422 211.04C591.422 212.512 591.534 213.696 591.758 214.592 592.014 215.488 592.526 216.4 593.294 217.328L592.766 218 587.534 218 587.534 203.648C587.534 202.176 587.246 201.072 586.67 200.336 586.126 199.568 585.31 199.184 584.222 199.184 582.974 199.184 581.87 199.68 580.91 200.672 579.982 201.664 579.262 203.056 578.75 204.848 578.238 206.64 577.982 208.704 577.982 211.04 577.982 212.384 578.078 213.472 578.27 214.304 578.494 215.136 578.862 215.92 579.374 216.656L579.902 217.328 579.374 218 571.742 218 571.31 216.656 572.126 216.416C572.894 216.288 573.39 216 573.614 215.552 573.87 215.072 573.998 214.272 573.998 213.152L573.998 200.96C573.998 200.608 573.934 200.368 573.806 200.24 573.678 200.08 573.454 200 573.134 200L571.262 200 570.83 198.848C571.662 198.08 572.622 197.456 573.71 196.976 574.798 196.496 575.758 196.256 576.59 196.256 577.006 196.256 577.342 196.384 577.598 196.64 577.854 196.896 577.982 197.216 577.982 197.6L577.982 202.352C578.718 200.432 579.806 198.88 581.246 197.696 582.718 196.48 584.254 195.872 585.854 195.872 587.646 195.872 588.99 196.4 589.886 197.456 590.782 198.48 591.294 200.112 591.422 202.352 592.158 200.464 593.262 198.912 594.734 197.696 596.206 196.48 597.726 195.872 599.294 195.872 601.246 195.872 602.654 196.496 603.518 197.744 604.414 198.992 604.862 200.96 604.862 203.648L604.862 214.16C604.862 215.152 605.278 215.648 606.11 215.648 606.846 215.648 607.566 215.344 608.27 214.736L609.134 215.84C608.366 216.704 607.55 217.392 606.686 217.904 605.822 218.384 605.022 218.624 604.286 218.624ZM632.421 218.624C631.205 218.624 630.325 218.272 629.781 217.568 629.269 216.832 629.013 215.648 629.013 214.016L629.013 188.672C629.013 188.32 628.949 188.08 628.821 187.952 628.693 187.792 628.469 187.712 628.149 187.712L626.277 187.712 625.845 186.608C626.677 185.84 627.637 185.216 628.725 184.736 629.813 184.224 630.789 183.968 631.653 183.968 632.069 183.968 632.405 184.096 632.661 184.352 632.917 184.608 633.045 184.944 633.045 185.36L632.949 214.16C632.949 214.64 633.061 215.008 633.285 215.264 633.509 215.52 633.829 215.648 634.245 215.648 635.045 215.648 635.765 215.344 636.405 214.736L637.269 215.84C636.533 216.672 635.717 217.344 634.821 217.856 633.925 218.368 633.125 218.624 632.421 218.624ZM676.515 218.624C675.619 218.624 674.883 218.448 674.307 218.096 673.763 217.776 673.283 217.328 672.867 216.752 672.483 216.144 671.971 215.232 671.331 214.016L668.067 207.872 667.683 207.728C667.139 207.6 666.867 207.312 666.867 206.864 666.867 206.672 666.915 206.48 667.011 206.288 667.139 206.096 667.315 206 667.539 206 667.635 206 667.923 206.08 668.403 206.24 668.883 206.368 669.507 206.432 670.275 206.432 671.843 206.432 673.075 205.968 673.971 205.04 674.867 204.112 675.315 203.056 675.315 201.872 675.315 201.008 675.059 200.288 674.547 199.712 674.035 199.104 673.299 198.8 672.339 198.8 670.195 198.8 668.483 199.92 667.203 202.16 665.955 204.4 665.331 207.36 665.331 211.04 665.331 212.416 665.427 213.52 665.619 214.352 665.843 215.184 666.227 215.952 666.771 216.656L667.299 217.328 666.771 218 659.139 218 658.611 216.656 659.571 216.416C660.307 216.288 660.787 216 661.011 215.552 661.267 215.072 661.395 214.272 661.395 213.152L661.395 188.672C661.395 188.32 661.331 188.08 661.203 187.952 661.075 187.792 660.851 187.712 660.531 187.712L658.563 187.712 658.227 186.608C659.059 185.84 660.003 185.216 661.059 184.736 662.147 184.224 663.091 183.968 663.891 183.968 664.307 183.968 664.643 184.096 664.899 184.352 665.187 184.608 665.331 184.944 665.331 185.36L665.331 202.352C666.067 200.432 667.155 198.88 668.595 197.696 670.067 196.48 671.619 195.872 673.251 195.872 675.171 195.872 676.643 196.416 677.667 197.504 678.723 198.592 679.251 199.92 679.251 201.488 679.251 203.12 678.675 204.592 677.523 205.904 676.371 207.184 674.803 207.936 672.819 208.16L676.131 214.64C676.579 215.44 677.187 215.84 677.955 215.84 678.371 215.84 678.787 215.744 679.203 215.552 679.619 215.328 679.971 215.056 680.259 214.736L681.219 215.84C679.843 217.696 678.275 218.624 676.515 218.624ZM708.233 192.224C707.721 192.224 707.145 191.888 706.505 191.216 705.897 190.544 705.593 189.936 705.593 189.392 705.593 188.848 705.897 188.24 706.505 187.568 707.145 186.896 707.721 186.56 708.233 186.56 708.777 186.56 709.369 186.896 710.009 187.568 710.649 188.24 710.969 188.848 710.969 189.392 710.969 189.936 710.649 190.544 710.009 191.216 709.369 191.888 708.777 192.224 708.233 192.224ZM702.377 230.144C700.809 230.144 699.513 229.744 698.489 228.944 697.465 228.144 696.953 227.056 696.953 225.68 696.953 224.56 697.369 223.616 698.201 222.848 699.001 222.112 700.009 221.744 701.225 221.744 701.769 221.744 702.041 221.904 702.041 222.224 702.041 222.288 701.929 222.464 701.705 222.752 701.481 223.04 701.289 223.376 701.129 223.76 700.937 224.176 700.841 224.688 700.841 225.296 700.841 226.192 701.065 226.896 701.513 227.408 701.961 227.952 702.537 228.224 703.241 228.224 704.105 228.224 704.825 227.84 705.401 227.072 706.009 226.304 706.313 225.168 706.313 223.664L706.313 200.576C706.313 200.192 706.249 199.92 706.121 199.76 705.993 199.6 705.769 199.52 705.449 199.52L703.481 199.52 703.145 198.464C703.977 197.696 704.921 197.072 705.977 196.592 707.065 196.112 708.009 195.872 708.809 195.872 709.225 195.872 709.561 196 709.817 196.256 710.105 196.48 710.249 196.784 710.249 197.168L710.249 220.304C710.249 223.312 709.577 225.696 708.233 227.456 706.921 229.248 704.969 230.144 702.377 230.144ZM742.065 192.224C741.585 192.224 741.025 191.888 740.385 191.216 739.745 190.544 739.425 189.936 739.425 189.392 739.425 188.848 739.729 188.24 740.337 187.568 740.977 186.896 741.553 186.56 742.065 186.56 742.609 186.56 743.201 186.896 743.841 187.568 744.481 188.24 744.801 188.848 744.801 189.392 744.801 189.936 744.481 190.544 743.841 191.216 743.201 191.888 742.609 192.224 742.065 192.224ZM743.505 218.624C742.321 218.624 741.457 218.272 740.913 217.568 740.401 216.832 740.145 215.648 740.145 214.016L740.145 200.576C740.145 200.192 740.081 199.92 739.953 199.76 739.825 199.6 739.601 199.52 739.281 199.52L737.313 199.52 736.977 198.464C737.809 197.696 738.753 197.072 739.809 196.592 740.897 196.112 741.841 195.872 742.641 195.872 743.057 195.872 743.393 196 743.649 196.256 743.937 196.48 744.081 196.784 744.081 197.168L744.081 214.16C744.081 215.152 744.513 215.648 745.377 215.648 746.049 215.648 746.785 215.344 747.585 214.736L748.401 215.84C747.601 216.672 746.753 217.344 745.857 217.856 744.993 218.368 744.209 218.624 743.505 218.624ZM785.833 218.72C784.649 218.72 783.801 218.352 783.289 217.616 782.777 216.88 782.521 215.696 782.521 214.064L782.521 203.744C782.521 202.24 782.217 201.104 781.609 200.336 781.033 199.568 780.089 199.184 778.777 199.184 777.529 199.184 776.425 199.68 775.465 200.672 774.505 201.664 773.753 203.056 773.209 204.848 772.697 206.64 772.441 208.704 772.441 211.04 772.441 212.384 772.537 213.472 772.729 214.304 772.953 215.136 773.337 215.92 773.881 216.656L774.409 217.328 773.881 218 766.249 218 765.721 216.656 766.681 216.416C767.417 216.288 767.897 216 768.121 215.552 768.377 215.072 768.505 214.272 768.505 213.152L768.505 188.672C768.505 188.32 768.441 188.08 768.313 187.952 768.185 187.792 767.961 187.712 767.641 187.712L765.673 187.712 765.337 186.608C766.169 185.84 767.113 185.216 768.169 184.736 769.257 184.224 770.201 183.968 771.001 183.968 771.417 183.968 771.753 184.096 772.009 184.352 772.297 184.608 772.441 184.944 772.441 185.36L772.441 202.352C773.177 200.464 774.313 198.912 775.849 197.696 777.385 196.48 778.985 195.872 780.649 195.872 782.761 195.872 784.249 196.496 785.113 197.744 786.009 198.96 786.457 200.96 786.457 203.744L786.457 214.256C786.457 215.248 786.873 215.744 787.705 215.744 788.377 215.744 789.097 215.456 789.865 214.88L790.777 215.936C789.977 216.8 789.129 217.488 788.233 218 787.369 218.48 786.569 218.72 785.833 218.72ZM818.699 230.144C817.067 230.144 815.691 229.84 814.571 229.232 813.451 228.656 812.603 227.888 812.027 226.928 811.483 226 811.211 224.992 811.211 223.904 811.211 222.432 811.707 221.184 812.699 220.16 813.691 219.136 815.051 218.624 816.779 218.624 817.035 218.624 817.227 218.656 817.355 218.72 817.483 218.816 817.547 218.928 817.547 219.056 817.547 219.184 817.339 219.456 816.923 219.872 816.539 220.32 816.187 220.848 815.867 221.456 815.579 222.064 815.435 222.832 815.435 223.76 815.435 224.912 815.771 225.872 816.443 226.64 817.147 227.44 818.075 227.84 819.227 227.84 821.019 227.84 822.331 227.088 823.163 225.584 823.995 224.112 824.411 222.128 824.411 219.632L824.411 212.768C823.227 214.4 821.995 215.568 820.715 216.272 819.467 216.976 818.155 217.328 816.779 217.328 815.371 217.328 814.059 216.976 812.843 216.272 811.659 215.568 810.715 214.512 810.011 213.104 809.307 211.696 808.955 210 808.955 208.016 808.955 204.272 809.963 201.312 811.979 199.136 814.027 196.96 816.795 195.872 820.283 195.872 821.371 195.872 822.907 196.048 824.891 196.4 825.211 196.432 825.787 196.512 826.619 196.64 827.483 196.768 828.267 196.864 828.971 196.928L829.403 197.456 828.923 198.272C828.699 198.592 828.539 198.864 828.443 199.088 828.347 199.312 828.299 199.616 828.299 200L828.299 218.96C828.299 222.512 827.435 225.264 825.707 227.216 824.011 229.168 821.675 230.144 818.699 230.144ZM818.555 214.016C819.707 214.016 820.779 213.696 821.771 213.056 822.795 212.416 823.675 211.408 824.411 210.032L824.411 199.52C823.163 198.688 821.771 198.272 820.235 198.272 818.123 198.272 816.459 199.056 815.243 200.624 814.059 202.16 813.467 204.352 813.467 207.2 813.467 209.536 813.947 211.264 814.907 212.384 815.867 213.472 817.083 214.016 818.555 214.016ZM848.148 228.368C846.58 228.368 845.3 227.968 844.308 227.168 843.284 226.368 842.772 225.296 842.772 223.952 842.772 222.832 843.188 221.888 844.02 221.12 844.82 220.384 845.828 220.016 847.044 220.016 847.588 220.016 847.86 220.176 847.86 220.496 847.86 220.56 847.732 220.736 847.476 221.024 847.252 221.344 847.06 221.696 846.9 222.08 846.708 222.496 846.612 223.008 846.612 223.616 846.612 224.512 846.836 225.216 847.284 225.728 847.732 226.24 848.308 226.496 849.012 226.496 849.876 226.496 850.596 226.096 851.172 225.296 851.78 224.528 852.084 223.408 852.084 221.936L852.084 199.088 848.244 199.088C848.244 198.32 848.292 197.824 848.388 197.6 848.516 197.344 848.804 197.152 849.252 197.024L852.084 196.4C852.084 192.496 852.756 189.456 854.1 187.28 855.476 185.072 857.492 183.968 860.148 183.968 862.036 183.968 863.588 184.432 864.804 185.36 866.02 186.256 866.628 187.424 866.628 188.864 866.628 190.08 866.212 191.088 865.38 191.888 864.58 192.656 863.572 193.04 862.356 193.04 861.812 193.04 861.54 192.896 861.54 192.608 861.54 192.512 861.636 192.304 861.828 191.984 862.052 191.664 862.228 191.28 862.356 190.832 862.516 190.352 862.596 189.744 862.596 189.008 862.596 188.08 862.34 187.344 861.828 186.8 861.316 186.224 860.612 185.936 859.716 185.936 858.436 185.936 857.492 186.576 856.884 187.856 856.276 189.104 855.972 190.832 855.972 193.04L855.972 196.4 862.116 196.4C862.116 197.008 862.02 197.552 861.828 198.032 861.636 198.512 861.38 198.864 861.06 199.088L855.972 199.088 855.972 218.576C855.972 221.584 855.316 223.968 854.004 225.728 852.692 227.488 850.74 228.368 848.148 228.368ZM894.136 218.624C892.12 218.624 890.36 218.16 888.856 217.232 887.352 216.304 886.184 215.008 885.352 213.344 884.52 211.648 884.104 209.696 884.104 207.488 884.104 205.184 884.568 203.152 885.496 201.392 886.424 199.632 887.736 198.272 889.432 197.312 891.16 196.352 893.144 195.872 895.384 195.872 897.752 195.872 899.576 196.496 900.856 197.744 902.168 198.992 902.824 200.496 902.824 202.256 902.824 203.472 902.488 204.64 901.816 205.76 901.176 206.88 900.216 207.792 898.936 208.496 897.688 209.2 896.216 209.552 894.52 209.552 893.56 209.552 892.52 209.392 891.4 209.072 890.28 208.72 889.72 208.208 889.72 207.536 889.72 207.28 889.784 207.056 889.912 206.864 890.04 206.672 890.184 206.576 890.344 206.576 890.44 206.576 890.728 206.672 891.208 206.864 891.72 207.024 892.376 207.104 893.176 207.104 894.936 207.104 896.296 206.624 897.256 205.664 898.216 204.704 898.696 203.552 898.696 202.208 898.696 201.056 898.312 200.064 897.544 199.232 896.808 198.4 895.816 197.984 894.568 197.984 892.68 197.984 891.208 198.816 890.152 200.48 889.128 202.112 888.616 204.448 888.616 207.488 888.616 210.08 889.16 212.112 890.248 213.584 891.368 215.024 892.968 215.744 895.048 215.744 897.608 215.744 899.72 214.912 901.384 213.248 901.48 213.152 901.608 213.104 901.768 213.104 902.024 213.104 902.28 213.232 902.536 213.488 902.824 213.744 902.968 214.016 902.968 214.304 902.968 214.4 902.936 214.496 902.872 214.592 902.808 214.656 902.776 214.704 902.776 214.736 901.688 216.016 900.392 216.992 898.888 217.664 897.416 218.304 895.832 218.624 894.136 218.624ZM935.312 218.624C933.904 218.624 932.592 218.224 931.376 217.424 930.192 216.592 929.232 215.392 928.496 213.824 927.792 212.224 927.44 210.288 927.44 208.016 927.44 204.272 928.448 201.312 930.464 199.136 932.512 196.96 935.264 195.872 938.72 195.872 940.416 195.872 941.792 196.048 942.848 196.4L942.848 188.672C942.848 188.32 942.784 188.08 942.656 187.952 942.528 187.792 942.32 187.712 942.032 187.712L940.112 187.712 939.728 186.608C940.528 185.84 941.472 185.216 942.56 184.736 943.648 184.224 944.592 183.968 945.392 183.968 945.808 183.968 946.144 184.096 946.4 184.352 946.656 184.608 946.784 184.944 946.784 185.36L946.784 214.16C946.784 215.056 947.248 215.504 948.176 215.504 948.88 215.504 949.6 215.248 950.336 214.736L951.152 215.84C950.384 216.704 949.568 217.392 948.704 217.904 947.84 218.384 947.056 218.624 946.352 218.624 945.136 218.624 944.256 218.272 943.712 217.568 943.168 216.832 942.896 215.648 942.896 214.016 941.744 215.712 940.544 216.912 939.296 217.616 938.08 218.288 936.752 218.624 935.312 218.624ZM936.992 215.216C939.424 215.216 941.392 213.904 942.896 211.28L942.896 199.52C941.648 198.688 940.24 198.272 938.672 198.272 936.592 198.272 934.96 199.056 933.776 200.624 932.624 202.16 932.048 204.352 932.048 207.2 932.048 209.952 932.512 211.984 933.44 213.296 934.4 214.576 935.584 215.216 936.992 215.216ZM984.878 218.624C982.862 218.624 981.054 218.128 979.454 217.136 977.854 216.144 976.59 214.784 975.662 213.056 974.766 211.328 974.318 209.392 974.318 207.248 974.318 204.944 974.75 202.944 975.614 201.248 976.478 199.52 977.71 198.192 979.31 197.264 980.91 196.336 982.766 195.872 984.878 195.872 987.118 195.872 988.942 196.416 990.35 197.504 991.79 198.56 992.51 199.936 992.51 201.632 992.51 202.88 992.11 203.904 991.31 204.704 990.51 205.472 989.486 205.856 988.238 205.856 987.95 205.856 987.742 205.824 987.614 205.76 987.486 205.696 987.422 205.584 987.422 205.424 987.422 205.328 987.518 205.12 987.71 204.8 987.934 204.48 988.126 204.096 988.286 203.648 988.446 203.168 988.526 202.56 988.526 201.824 988.526 200.672 988.142 199.776 987.374 199.136 986.638 198.464 985.646 198.128 984.398 198.128 982.734 198.128 981.39 198.944 980.366 200.576 979.374 202.176 978.878 204.304 978.878 206.96 978.878 209.648 979.47 211.776 980.654 213.344 981.87 214.912 983.502 215.696 985.55 215.696 986.606 215.696 987.598 215.52 988.526 215.168 989.454 214.816 990.382 214.256 991.31 213.488 991.374 213.424 991.502 213.392 991.694 213.392 991.95 213.392 992.19 213.536 992.414 213.824 992.67 214.08 992.798 214.352 992.798 214.64 992.798 214.864 992.766 214.976 992.702 214.976 991.678 216.16 990.478 217.072 989.102 217.712 987.758 218.32 986.35 218.624 984.878 218.624ZM1021.72 218.624C1020.03 218.624 1018.44 218.384 1016.97 217.904 1015.53 217.392 1014.38 216.704 1013.51 215.84L1013.51 188.672C1013.51 188.32 1013.45 188.08 1013.32 187.952 1013.19 187.792 1012.97 187.712 1012.65 187.712L1010.78 187.712 1010.35 186.608C1011.18 185.84 1012.14 185.216 1013.23 184.736 1014.31 184.224 1015.29 183.968 1016.15 183.968 1016.57 183.968 1016.91 184.096 1017.16 184.352 1017.42 184.608 1017.55 184.944 1017.55 185.36L1017.55 214.784C1018.79 215.712 1020.3 216.176 1022.06 216.176 1024.01 216.176 1025.55 215.376 1026.67 213.776 1027.79 212.144 1028.35 209.952 1028.35 207.2 1028.35 204.512 1027.8 202.352 1026.71 200.72 1025.63 199.088 1024.17 198.272 1022.35 198.272 1021.55 198.272 1020.91 198.368 1020.43 198.56 1019.98 198.72 1019.71 198.8 1019.61 198.8 1019.45 198.8 1019.29 198.704 1019.13 198.512 1019 198.32 1018.94 198.112 1018.94 197.888 1018.94 197.536 1019.08 197.248 1019.37 197.024 1020.68 196.256 1022.15 195.872 1023.79 195.872 1025.55 195.872 1027.11 196.32 1028.49 197.216 1029.9 198.112 1030.99 199.36 1031.75 200.96 1032.55 202.528 1032.95 204.336 1032.95 206.384 1032.95 208.688 1032.46 210.784 1031.47 212.672 1030.51 214.528 1029.18 215.984 1027.48 217.04 1025.79 218.096 1023.87 218.624 1021.72 218.624ZM1061.65 218.624C1060.24 218.624 1058.93 218.224 1057.71 217.424 1056.53 216.592 1055.57 215.392 1054.83 213.824 1054.13 212.224 1053.78 210.288 1053.78 208.016 1053.78 204.272 1054.78 201.312 1056.8 199.136 1058.85 196.96 1061.6 195.872 1065.06 195.872 1066.21 195.872 1067.78 196.048 1069.76 196.4 1071.23 196.656 1072.56 196.832 1073.74 196.928L1074.32 197.456 1073.7 198.272C1073.47 198.656 1073.31 198.96 1073.22 199.184 1073.15 199.376 1073.12 199.648 1073.12 200L1073.12 214.16C1073.12 215.056 1073.58 215.504 1074.51 215.504 1075.22 215.504 1075.94 215.248 1076.67 214.736L1077.49 215.84C1076.72 216.704 1075.9 217.392 1075.04 217.904 1074.18 218.384 1073.39 218.624 1072.69 218.624 1071.47 218.624 1070.59 218.272 1070.05 217.568 1069.5 216.832 1069.23 215.648 1069.23 214.016 1068.08 215.712 1066.88 216.912 1065.63 217.616 1064.42 218.288 1063.09 218.624 1061.65 218.624ZM1063.33 215.216C1065.76 215.216 1067.73 213.904 1069.23 211.28L1069.23 199.52C1067.98 198.688 1066.58 198.272 1065.01 198.272 1062.93 198.272 1061.3 199.056 1060.11 200.624 1058.96 202.16 1058.38 204.352 1058.38 207.2 1058.38 209.952 1058.85 211.984 1059.78 213.296 1060.74 214.576 1061.92 215.216 1063.33 215.216Z" fill="#000000"/></svg>