<svg width="1412" height="309" viewBox="0 0 1412 309" xmlns="http://www.w3.org/2000/svg" xmlns:xlink="http://www.w3.org/1999/xlink" fill="none" overflow="hidden"><rect x="0.5" y="0.5" rx="22.5" width="1411" height="308" stroke="#000000" fill="#FFFCFC"/><path d="M325.544 74.832C321.533 74.832 318.141 73.8933 315.368 72.016 312.595 70.096 310.504 67.5147 309.096 64.272 307.731 60.9867 307.048 57.3173 307.048 53.264 307.048 49.1253 307.731 45.4347 309.096 42.192 310.504 38.9067 312.595 36.3253 315.368 34.448 318.184 32.528 321.64 31.568 325.736 31.568 328.253 31.568 330.493 31.9307 332.456 32.656 334.419 33.3813 335.955 34.384 337.064 35.664 338.173 36.944 338.728 38.416 338.728 40.08 338.728 42.0427 338.152 43.664 337 44.944 335.848 46.1813 334.397 46.8 332.648 46.8 331.752 46.8 331.304 46.5653 331.304 46.096 331.304 46.0107 331.475 45.712 331.816 45.2 332.157 44.6453 332.456 44.0267 332.712 43.344 332.968 42.6187 333.096 41.7867 333.096 40.848 333.096 39.056 332.413 37.6053 331.048 36.496 329.725 35.344 327.955 34.768 325.736 34.768 322.877 34.768 320.531 35.664 318.696 37.456 316.904 39.248 315.603 41.552 314.792 44.368 313.981 47.1413 313.576 50.1067 313.576 53.264 313.576 56.464 314.088 59.408 315.112 62.096 316.136 64.784 317.587 66.9173 319.464 68.496 321.384 70.032 323.581 70.8 326.056 70.8 328.531 70.8 330.685 70.352 332.52 69.456 334.397 68.5173 335.891 67.2373 337 65.616 337.128 65.4453 337.256 65.36 337.384 65.36 337.768 65.36 338.173 65.552 338.6 65.936 339.027 66.2773 339.24 66.64 339.24 67.024 339.24 67.152 339.197 67.3013 339.112 67.472 335.699 72.3787 331.176 74.832 325.544 74.832Z" fill="#000000"/><line x1="264.5" y1="2.18557e-08" x2="264.5" y2="309" stroke="#000000"/><line x1="369.5" y1="2.18557e-08" x2="369.5" y2="309" stroke="#000000"/><line x1="579.5" y1="2.18557e-08" x2="579.5" y2="309" stroke="#000000"/><line x1="474.5" y1="2.18557e-08" x2="474.5" y2="309" stroke="#000000"/><line x1="684.5" y1="2.18557e-08" x2="684.5" y2="309" stroke="#000000"/><line x1="1" y1="103.5" x2="1412" y2="103.5" stroke="#000000"/><path d="M413.904 73.04 414.608 72.016C415.589 70.736 416.293 69.392 416.72 67.984 417.147 66.576 417.36 64.6987 417.36 62.352L417.36 56.912 408.08 40.656C406.971 38.736 406.011 37.264 405.2 36.24 404.389 35.1733 403.408 34.192 402.256 33.296L403.024 32.4 416.144 32.4 416.72 34.384 415.504 34.704C414.565 34.9173 413.883 35.2373 413.456 35.664 413.029 36.048 412.816 36.5813 412.816 37.264 412.816 37.7333 413.413 38.928 414.608 40.848L420.944 51.856 427.408 40.144C427.877 39.2053 428.112 38.416 428.112 37.776 428.112 36.9653 427.877 36.304 427.408 35.792 426.939 35.2373 426.363 34.8747 425.68 34.704L424.464 34.384 425.04 32.4 436.112 32.4 436.816 33.296 435.984 34.384C434.363 36.3893 433.019 38.4373 431.952 40.528L422.864 56.464 422.864 66.32C422.864 68.0693 423.141 69.3067 423.696 70.032 424.251 70.7573 425.275 71.312 426.768 71.696L427.984 72.016 427.344 74 414.608 74 413.904 73.04Z" fill="#000000"/><path d="M513.56 72.016 514.968 71.696C516.419 71.2267 517.379 70.6507 517.848 69.968 518.36 69.2853 518.616 68.0693 518.616 66.32L518.616 37.648C518.616 37.136 518.509 36.7947 518.296 36.624 518.125 36.4107 517.827 36.304 517.4 36.304L514.008 36.304 513.304 34.128C514.968 33.488 517.165 32.912 519.896 32.4 522.627 31.8453 525.229 31.568 527.704 31.568 533.037 31.568 536.984 32.6347 539.544 34.768 542.104 36.8587 543.384 39.5893 543.384 42.96 543.384 45.136 542.872 47.12 541.848 48.912 540.867 50.6613 539.352 52.0053 537.304 52.944 539.864 53.7973 541.869 55.0987 543.32 56.848 544.771 58.5547 545.496 60.4533 545.496 62.544 545.496 66.0853 544.301 68.88 541.912 70.928 539.565 72.976 535.768 74 530.52 74L514.328 74 513.56 72.016ZM530.84 70.992C533.528 70.992 535.64 70.2027 537.176 68.624 538.712 67.0027 539.48 64.8907 539.48 62.288 539.48 60.0267 538.648 58.128 536.984 56.592 535.363 55.0133 533.165 54.224 530.392 54.224 528.899 54.224 527.597 53.9893 526.488 53.52 525.933 53.2213 525.656 52.7733 525.656 52.176 525.656 51.536 525.912 51.216 526.424 51.216 526.637 51.216 527 51.2587 527.512 51.344 528.024 51.4293 528.643 51.472 529.368 51.472 531.971 51.472 533.997 50.7253 535.448 49.232 536.941 47.696 537.688 45.648 537.688 43.088 537.688 40.6133 536.856 38.608 535.192 37.072 533.571 35.536 531.288 34.768 528.344 34.768 525.741 34.768 524.44 35.6853 524.44 37.52L524.44 63.376C524.44 66.576 525.059 68.6453 526.296 69.584 527.576 70.5227 529.091 70.992 530.84 70.992Z" fill="#000000"/><path d="M642.144 74.832C641.845 74.5333 641.504 74.32 641.12 74.192 640.779 74.064 640.309 74 639.712 74L615.264 74 614.56 72.144 615.84 71.824C617.248 71.3973 618.187 70.864 618.656 70.224 619.125 69.5413 619.36 68.368 619.36 66.704L619.36 43.984C619.36 41.68 619.168 39.824 618.784 38.416 618.4 37.008 617.739 35.664 616.8 34.384L616.032 33.296 616.8 32.4 634.528 32.4C637.899 32.4 640.075 31.9947 641.056 31.184L642.208 30.416 643.04 31.184 643.04 41.488 641.056 42.192 640.736 40.784C640.224 38.6933 639.563 37.3067 638.752 36.624 637.941 35.9413 636.533 35.6 634.528 35.6L628.832 35.6C627.339 35.6 626.336 35.8987 625.824 36.496 625.355 37.0933 625.12 38.288 625.12 40.08L625.12 51.216 632.48 51.216C633.461 51.216 634.293 51.024 634.976 50.64 635.659 50.256 636.363 49.5733 637.088 48.592L637.536 47.952 638.688 48.592 638.688 58.512 636.768 59.216 636.384 57.744C635.957 56.4213 635.317 55.5467 634.464 55.12 633.611 54.6933 632.117 54.48 629.984 54.48L625.12 54.48 625.12 66.32C625.12 67.5573 625.205 68.496 625.376 69.136 625.589 69.7333 625.952 70.1387 626.464 70.352 626.976 70.5653 627.765 70.672 628.832 70.672L635.04 70.672C636.448 70.672 637.536 70.544 638.304 70.288 639.072 69.9893 639.669 69.4773 640.096 68.752 640.565 68.0267 640.992 66.96 641.376 65.552L641.76 64.272 643.68 64.848 643.68 74.832 642.592 75.408 642.144 74.832Z" fill="#000000"/><path d="M751.656 74.832C749.864 74.832 748.371 74.32 747.176 73.296 746.024 72.272 744.851 70.5013 743.656 67.984L739.24 58.704C738.899 57.936 738.493 57.3813 738.024 57.04 737.555 56.6987 736.659 56.3147 735.336 55.888 734.611 55.504 734.248 55.0133 734.248 54.416 734.248 53.5627 734.568 53.136 735.208 53.136 735.379 53.136 735.677 53.2 736.104 53.328 736.531 53.456 737.149 53.52 737.96 53.52 740.819 53.52 743.059 52.7093 744.68 51.088 746.344 49.4667 747.176 47.2693 747.176 44.496 747.176 41.552 746.301 39.2053 744.552 37.456 742.803 35.664 740.413 34.768 737.384 34.768 735.933 34.768 734.824 35.0027 734.056 35.472 733.288 35.9413 732.904 36.624 732.904 37.52L732.904 62.352C732.904 64.6987 733.096 66.576 733.48 67.984 733.864 69.3493 734.568 70.6933 735.592 72.016L736.296 73.04 735.592 74 722.856 74 722.152 72.016 723.496 71.696C724.947 71.312 725.928 70.7573 726.44 70.032 726.952 69.3067 727.208 68.0693 727.208 66.32L727.208 37.648C727.208 37.1787 727.101 36.8373 726.888 36.624 726.717 36.4107 726.397 36.304 725.928 36.304L722.6 36.304 721.896 34.128C723.731 33.4027 726.013 32.8053 728.744 32.336 731.517 31.824 734.035 31.568 736.296 31.568 741.629 31.568 745.768 32.6773 748.712 34.896 751.699 37.1147 753.192 40.2293 753.192 44.24 753.192 47.2693 752.36 49.8293 750.696 51.92 749.032 53.968 746.728 55.3547 743.784 56.08 744.808 56.8053 745.619 57.744 746.216 58.896L751.592 69.904C752.104 71.056 752.851 71.632 753.832 71.632 754.557 71.632 755.283 71.3547 756.008 70.8L757.032 72.528C755.283 74.064 753.491 74.832 751.656 74.832Z" fill="#000000"/><path d="M307.304 282.016 308.712 281.696C309.907 281.312 310.803 280.8 311.4 280.16 312.04 279.477 312.36 278.411 312.36 276.96L312.36 247.648C312.36 247.136 312.253 246.795 312.04 246.624 311.827 246.411 311.507 246.304 311.08 246.304L307.752 246.304 307.048 244.128C308.883 243.488 311.272 242.912 314.216 242.4 317.16 241.845 319.997 241.568 322.728 241.568 330.792 241.568 336.595 243.573 340.136 247.584 343.677 251.595 345.448 256.821 345.448 263.264 345.448 267.189 344.723 270.731 343.272 273.888 341.821 277.003 339.645 279.477 336.744 281.312 333.885 283.104 330.365 284 326.184 284L308.008 284 307.304 282.016ZM324.392 281.056C334.248 281.056 339.176 275.083 339.176 263.136 339.176 259.851 338.6 256.821 337.448 254.048 336.339 251.275 334.632 249.035 332.328 247.328 330.024 245.621 327.187 244.768 323.816 244.768 320.019 244.768 318.12 245.685 318.12 247.52L318.12 273.824C318.12 276.597 318.696 278.496 319.848 279.52 321 280.544 322.515 281.056 324.392 281.056Z" fill="#000000"/><path d="M401.04 282.016 402.384 281.696C403.963 281.227 405.093 280.672 405.776 280.032 406.459 279.349 407.099 278.112 407.696 276.32L416.784 250.08C417.211 248.715 417.424 247.776 417.424 247.264 417.424 246.539 417.211 245.984 416.784 245.6 416.4 245.173 415.76 244.875 414.864 244.704L413.52 244.384 414.224 242.4 425.36 242.4 437.072 275.936C437.712 277.771 438.373 279.136 439.056 280.032 439.781 280.928 440.869 281.931 442.32 283.04L441.552 284 428.432 284 427.792 282.016 429.2 281.696C430.096 281.483 430.736 281.184 431.12 280.8 431.547 280.373 431.76 279.797 431.76 279.072 431.76 278.645 431.653 278.155 431.44 277.6 431.269 277.003 431.141 276.576 431.056 276.32L428.304 268.192 414.928 268.192 413.52 272.416C412.667 275.061 412.24 277.088 412.24 278.496 412.24 279.904 412.517 281.077 413.072 282.016L413.52 283.04 412.432 284 401.808 284 401.04 282.016ZM416.208 264.544 427.152 264.544 421.584 248.288 416.208 264.544Z" fill="#000000"/><path d="M536.144 284.832C535.845 284.533 535.504 284.32 535.12 284.192 534.779 284.064 534.309 284 533.712 284L509.264 284 508.56 282.144 509.84 281.824C511.248 281.397 512.187 280.864 512.656 280.224 513.125 279.541 513.36 278.368 513.36 276.704L513.36 253.984C513.36 251.68 513.168 249.824 512.784 248.416 512.4 247.008 511.739 245.664 510.8 244.384L510.032 243.296 510.8 242.4 528.528 242.4C531.899 242.4 534.075 241.995 535.056 241.184L536.208 240.416 537.04 241.184 537.04 251.488 535.056 252.192 534.736 250.784C534.224 248.693 533.563 247.307 532.752 246.624 531.941 245.941 530.533 245.6 528.528 245.6L522.832 245.6C521.339 245.6 520.336 245.899 519.824 246.496 519.355 247.093 519.12 248.288 519.12 250.08L519.12 261.216 526.48 261.216C527.461 261.216 528.293 261.024 528.976 260.64 529.659 260.256 530.363 259.573 531.088 258.592L531.536 257.952 532.688 258.592 532.688 268.512 530.768 269.216 530.384 267.744C529.957 266.421 529.317 265.547 528.464 265.12 527.611 264.693 526.117 264.48 523.984 264.48L519.12 264.48 519.12 276.32C519.12 277.557 519.205 278.496 519.376 279.136 519.589 279.733 519.952 280.139 520.464 280.352 520.976 280.565 521.765 280.672 522.832 280.672L529.04 280.672C530.448 280.672 531.536 280.544 532.304 280.288 533.072 279.989 533.669 279.477 534.096 278.752 534.565 278.027 534.992 276.96 535.376 275.552L535.76 274.272 537.68 274.848 537.68 284.832 536.592 285.408 536.144 284.832Z" fill="#000000"/><path d="M1369.14 284.832C1368.85 284.533 1368.5 284.32 1368.12 284.192 1367.78 284.064 1367.31 284 1366.71 284L1342.26 284 1341.56 282.144 1342.84 281.824C1344.25 281.397 1345.19 280.864 1345.66 280.224 1346.13 279.541 1346.36 278.368 1346.36 276.704L1346.36 253.984C1346.36 251.68 1346.17 249.824 1345.78 248.416 1345.4 247.008 1344.74 245.664 1343.8 244.384L1343.03 243.296 1343.8 242.4 1361.53 242.4C1364.9 242.4 1367.07 241.995 1368.06 241.184L1369.21 240.416 1370.04 241.184 1370.04 251.488 1368.06 252.192 1367.74 250.784C1367.22 248.693 1366.56 247.307 1365.75 246.624 1364.94 245.941 1363.53 245.6 1361.53 245.6L1355.83 245.6C1354.34 245.6 1353.34 245.899 1352.82 246.496 1352.35 247.093 1352.12 248.288 1352.12 250.08L1352.12 261.216 1359.48 261.216C1360.46 261.216 1361.29 261.024 1361.98 260.64 1362.66 260.256 1363.36 259.573 1364.09 258.592L1364.54 257.952 1365.69 258.592 1365.69 268.512 1363.77 269.216 1363.38 267.744C1362.96 266.421 1362.32 265.547 1361.46 265.12 1360.61 264.693 1359.12 264.48 1356.98 264.48L1352.12 264.48 1352.12 276.32C1352.12 277.557 1352.21 278.496 1352.38 279.136 1352.59 279.733 1352.95 280.139 1353.46 280.352 1353.98 280.565 1354.77 280.672 1355.83 280.672L1362.04 280.672C1363.45 280.672 1364.54 280.544 1365.3 280.288 1366.07 279.989 1366.67 279.477 1367.1 278.752 1367.57 278.027 1367.99 276.96 1368.38 275.552L1368.76 274.272 1370.68 274.848 1370.68 284.832 1369.59 285.408 1369.14 284.832Z" fill="#000000"/><path d="M624.304 282.016 625.712 281.696C627.205 281.227 628.187 280.672 628.656 280.032 629.125 279.349 629.36 278.112 629.36 276.32L629.36 250.08C629.36 248.288 629.104 247.051 628.592 246.368 628.123 245.643 627.163 245.088 625.712 244.704L624.304 244.384 625.008 242.4 637.744 242.4 638.512 243.296 637.744 244.384C636.763 245.621 636.08 246.965 635.696 248.416 635.312 249.824 635.12 251.68 635.12 253.984L635.12 276.704C635.12 278.368 635.355 279.541 635.824 280.224 636.293 280.864 637.232 281.397 638.64 281.824L639.792 282.144 639.28 284 625.008 284 624.304 282.016Z" fill="#000000"/><path d="M714.504 250.4C713.864 248.608 713.181 247.243 712.456 246.304 711.731 245.365 710.664 244.363 709.256 243.296L710.024 242.4 723.144 242.4 723.72 244.384 722.504 244.704C721.565 244.917 720.883 245.237 720.456 245.664 720.029 246.048 719.816 246.581 719.816 247.264 719.816 247.691 719.923 248.224 720.136 248.864 720.349 249.504 720.477 249.909 720.52 250.08L729.864 279.136 738.504 252.192 737.992 250.4C737.437 248.651 736.776 247.307 736.008 246.368 735.283 245.429 734.195 244.405 732.744 243.296L733.576 242.4 746.568 242.4 747.272 244.384 745.864 244.704C744.968 244.875 744.307 245.173 743.88 245.6 743.496 245.984 743.304 246.539 743.304 247.264 743.304 247.776 743.517 248.715 743.944 250.08L753.416 279.136 761.48 253.92C762.291 251.701 762.696 249.931 762.696 248.608 762.611 246.389 761.715 245.088 760.008 244.704L758.728 244.384 759.368 242.4 770.44 242.4 771.208 243.296 770.312 244.384C768.861 246.133 767.773 248.053 767.048 250.144L755.912 284 749.32 284 740.808 258.72 732.36 284 725.832 284 714.504 250.4Z" fill="#000000"/><path d="M309.928 183.016 312.424 182.44C313.491 182.184 314.259 181.885 314.728 181.544 315.24 181.203 315.603 180.733 315.816 180.136 316.029 179.496 316.136 178.557 316.136 177.32L316.136 149.288 309.032 153.896C308.179 153.768 307.411 153.32 306.728 152.552 306.045 151.784 305.469 150.909 305 149.928L321.064 142.44C322.045 142.653 322.813 143.379 323.368 144.616L321.896 145.576 321.896 173.352C321.896 175.741 322.088 177.64 322.472 179.048 322.856 180.456 323.539 181.779 324.52 183.016L325.16 184.04 324.52 185 310.632 185 309.928 183.016Z" fill="#000000"/><path d="M404.176 182.056C410.363 176.979 415.056 172.755 418.256 169.384 421.456 166.013 423.632 163.133 424.784 160.744 425.936 158.355 426.512 155.901 426.512 153.384 426.512 150.995 425.765 149.139 424.272 147.816 422.779 146.451 421.008 145.768 418.96 145.768 416.869 145.768 415.056 146.429 413.52 147.752 411.984 149.032 411.216 150.845 411.216 153.192 411.216 154.131 411.344 154.92 411.6 155.56 411.856 156.157 412.155 156.712 412.496 157.224 412.837 157.736 413.008 158.056 413.008 158.184 413.008 158.525 412.901 158.739 412.688 158.824 412.517 158.867 412.176 158.888 411.664 158.888 409.915 158.888 408.443 158.312 407.248 157.16 406.096 156.008 405.52 154.536 405.52 152.744 405.52 150.568 406.139 148.712 407.376 147.176 408.656 145.64 410.32 144.488 412.368 143.72 414.416 142.952 416.613 142.568 418.96 142.568 423.312 142.568 426.747 143.507 429.264 145.384 431.824 147.261 433.104 149.949 433.104 153.448 433.104 157.203 431.291 161.171 427.664 165.352 424.08 169.491 418.96 174.291 412.304 179.752L434.192 179.752C434.192 180.776 434.043 181.779 433.744 182.76 433.445 183.699 432.955 184.445 432.272 185L405.712 185 404.176 182.056Z" fill="#000000"/><path d="M524.768 185.832C522.421 185.832 520.224 185.469 518.176 184.744 516.128 184.019 514.464 182.952 513.184 181.544 511.947 180.136 511.328 178.429 511.328 176.424 511.328 174.632 511.904 173.181 513.056 172.072 514.251 170.92 515.723 170.344 517.472 170.344 517.984 170.344 518.325 170.387 518.496 170.472 518.667 170.515 518.752 170.685 518.752 170.984 518.752 171.112 518.581 171.432 518.24 171.944 517.899 172.456 517.6 173.032 517.344 173.672 517.131 174.269 517.024 175.016 517.024 175.912 517.024 177.832 517.749 179.347 519.2 180.456 520.693 181.565 522.507 182.12 524.64 182.12 526.901 182.12 528.864 181.416 530.528 180.008 532.235 178.6 533.088 176.573 533.088 173.928 533.088 171.709 532.363 169.704 530.912 167.912 529.504 166.12 526.901 165.224 523.104 165.224 521.781 165.224 520.715 165.331 519.904 165.544 519.093 165.715 518.603 165.8 518.432 165.8 517.835 165.8 517.536 165.48 517.536 164.84 517.536 164.328 517.707 163.944 518.048 163.688 518.432 163.389 519.349 163.112 520.8 162.856 525.195 162.045 528.117 160.744 529.568 158.952 531.061 157.117 531.808 155.112 531.808 152.936 531.808 150.675 531.083 148.925 529.632 147.688 528.181 146.408 526.496 145.768 524.576 145.768 522.784 145.768 521.248 146.301 519.968 147.368 518.731 148.392 518.112 149.843 518.112 151.72 518.112 152.701 518.24 153.533 518.496 154.216 518.795 154.856 519.093 155.432 519.392 155.944 519.691 156.413 519.84 156.691 519.84 156.776 519.84 157.245 519.435 157.48 518.624 157.48 516.832 157.48 515.339 156.904 514.144 155.752 512.992 154.6 512.416 153.128 512.416 151.336 512.416 148.563 513.611 146.408 516 144.872 518.389 143.336 521.269 142.568 524.64 142.568 526.901 142.568 529.077 142.952 531.168 143.72 533.259 144.488 534.944 145.64 536.224 147.176 537.547 148.669 538.208 150.483 538.208 152.616 538.208 155.091 537.461 157.224 535.968 159.016 534.475 160.765 532.363 162.152 529.632 163.176 532.789 163.901 535.2 165.267 536.864 167.272 538.528 169.277 539.36 171.624 539.36 174.312 539.36 177.981 538.037 180.819 535.392 182.824 532.789 184.829 529.248 185.832 524.768 185.832Z" fill="#000000"/><path d="M628.256 183.016 630.688 182.44C631.755 182.184 632.523 181.907 632.992 181.608 633.504 181.267 633.845 180.776 634.016 180.136 634.229 179.496 634.336 178.557 634.336 177.32L634.336 175.656 613.792 175.656 627.168 143.4 630.88 143.4 631.968 144.296 619.424 171.88 634.336 171.88 634.336 164.136C634.336 162.899 634.229 161.917 634.016 161.192 633.845 160.424 633.504 159.635 632.992 158.824L633.76 157.864 640.096 157.16 640.096 171.88 645.472 171.88C645.472 173.715 645.045 174.973 644.192 175.656L640.16 175.656C640.203 177.235 640.437 178.6 640.864 179.752 641.291 180.861 641.909 181.949 642.72 183.016L643.424 184.04 642.72 185 628.896 185 628.256 183.016Z" fill="#000000"/><path d="M737.768 185.832C735.421 185.832 733.224 185.469 731.176 184.744 729.128 184.019 727.464 182.952 726.184 181.544 724.947 180.136 724.328 178.429 724.328 176.424 724.328 174.632 724.904 173.181 726.056 172.072 727.251 170.92 728.723 170.344 730.472 170.344 730.984 170.344 731.325 170.387 731.496 170.472 731.667 170.515 731.752 170.685 731.752 170.984 731.752 171.112 731.581 171.432 731.24 171.944 730.899 172.456 730.6 173.032 730.344 173.672 730.131 174.269 730.024 175.016 730.024 175.912 730.024 177.832 730.749 179.347 732.2 180.456 733.693 181.565 735.507 182.12 737.64 182.12 739.048 182.12 740.392 181.8 741.672 181.16 742.995 180.52 744.061 179.581 744.872 178.344 745.683 177.064 746.088 175.549 746.088 173.8 746.088 171.283 745.235 169.043 743.528 167.08 741.821 165.117 738.664 164.136 734.056 164.136 732.605 164.136 730.536 164.392 727.848 164.904L726.632 162.664 727.656 143.4 750.248 143.4C750.248 144.424 750.077 145.427 749.736 146.408 749.437 147.347 748.968 148.093 748.328 148.648L731.304 148.648 730.472 161.768C732.819 161.213 735.229 160.936 737.704 160.936 741.032 160.936 743.784 161.533 745.96 162.728 748.179 163.923 749.8 165.501 750.824 167.464 751.848 169.384 752.36 171.496 752.36 173.8 752.36 177.469 751.016 180.392 748.328 182.568 745.683 184.744 742.163 185.832 737.768 185.832Z" fill="#000000"/><path d="M120.304 183.016 121.712 182.696C123.205 182.227 124.187 181.672 124.656 181.032 125.125 180.349 125.36 179.112 125.36 177.32L125.36 151.08C125.36 149.288 125.104 148.051 124.592 147.368 124.123 146.643 123.163 146.088 121.712 145.704L120.304 145.384 121.008 143.4 133.744 143.4 134.512 144.296 133.744 145.384C132.763 146.621 132.08 147.965 131.696 149.416 131.312 150.824 131.12 152.68 131.12 154.984L131.12 177.704C131.12 179.368 131.355 180.541 131.824 181.224 132.293 181.864 133.232 182.397 134.64 182.824L135.792 183.144 135.28 185 121.008 185 120.304 183.016ZM150.384 185.832C148.635 185.832 147.163 185.363 145.968 184.424 144.816 183.485 143.728 182.056 142.704 180.136L135.728 167.592C135.344 166.867 134.939 166.333 134.512 165.992 134.128 165.651 133.531 165.309 132.72 164.968 132.592 164.883 132.528 164.669 132.528 164.328 132.528 163.389 132.912 162.92 133.68 162.92L135.024 162.92 142.96 151.272C143.429 150.461 143.728 149.843 143.856 149.416 144.027 148.947 144.112 148.456 144.112 147.944 144.112 147.432 143.984 146.92 143.728 146.408 143.515 145.853 143.387 145.512 143.344 145.384L142.896 144.296 143.92 143.4 154.48 143.4 155.184 145.384 153.84 145.704C152.901 145.917 152.069 146.259 151.344 146.728 150.661 147.155 149.979 147.859 149.296 148.84L138.864 163.944C140.571 164.712 141.915 165.949 142.896 167.656L150.256 180.904C150.725 181.587 151.088 182.056 151.344 182.312 151.643 182.525 152.027 182.632 152.496 182.632 153.307 182.632 154.053 182.355 154.736 181.8L155.696 183.528C154.16 185.064 152.389 185.832 150.384 185.832ZM186.894 185.832C186.595 185.533 186.254 185.32 185.87 185.192 185.529 185.064 185.059 185 184.462 185L160.014 185 159.31 183.144 160.59 182.824C161.998 182.397 162.937 181.864 163.406 181.224 163.875 180.541 164.11 179.368 164.11 177.704L164.11 154.984C164.11 152.68 163.918 150.824 163.534 149.416 163.15 148.008 162.489 146.664 161.55 145.384L160.782 144.296 161.55 143.4 179.278 143.4C182.649 143.4 184.825 142.995 185.806 142.184L186.958 141.416 187.79 142.184 187.79 152.488 185.806 153.192 185.486 151.784C184.974 149.693 184.313 148.307 183.502 147.624 182.691 146.941 181.283 146.6 179.278 146.6L173.582 146.6C172.089 146.6 171.086 146.899 170.574 147.496 170.105 148.093 169.87 149.288 169.87 151.08L169.87 162.216 177.23 162.216C178.211 162.216 179.043 162.024 179.726 161.64 180.409 161.256 181.113 160.573 181.838 159.592L182.286 158.952 183.438 159.592 183.438 169.512 181.518 170.216 181.134 168.744C180.707 167.421 180.067 166.547 179.214 166.12 178.361 165.693 176.867 165.48 174.734 165.48L169.87 165.48 169.87 177.32C169.87 178.557 169.955 179.496 170.126 180.136 170.339 180.733 170.702 181.139 171.214 181.352 171.726 181.565 172.515 181.672 173.582 181.672L179.79 181.672C181.198 181.672 182.286 181.544 183.054 181.288 183.822 180.989 184.419 180.477 184.846 179.752 185.315 179.027 185.742 177.96 186.126 176.552L186.51 175.272 188.43 175.848 188.43 185.832 187.342 186.408 186.894 185.832ZM203.904 184.04 204.608 183.016C205.589 181.736 206.293 180.392 206.72 178.984 207.147 177.576 207.36 175.699 207.36 173.352L207.36 167.912 198.08 151.656C196.971 149.736 196.011 148.264 195.2 147.24 194.389 146.173 193.408 145.192 192.256 144.296L193.024 143.4 206.144 143.4 206.72 145.384 205.504 145.704C204.565 145.917 203.883 146.237 203.456 146.664 203.029 147.048 202.816 147.581 202.816 148.264 202.816 148.733 203.413 149.928 204.608 151.848L210.944 162.856 217.408 151.144C217.877 150.205 218.112 149.416 218.112 148.776 218.112 147.965 217.877 147.304 217.408 146.792 216.939 146.237 216.363 145.875 215.68 145.704L214.464 145.384 215.04 143.4 226.112 143.4 226.816 144.296 225.984 145.384C224.363 147.389 223.019 149.437 221.952 151.528L212.864 167.464 212.864 177.32C212.864 179.069 213.141 180.307 213.696 181.032 214.251 181.757 215.275 182.312 216.768 182.696L217.984 183.016 217.344 185 204.608 185 203.904 184.04Z" fill="#000000"/><path d="M52.544 273.832C48.5333 273.832 45.1413 272.893 42.368 271.016 39.5947 269.096 37.504 266.515 36.096 263.272 34.7307 259.987 34.048 256.317 34.048 252.264 34.048 248.125 34.7307 244.435 36.096 241.192 37.504 237.907 39.5947 235.325 42.368 233.448 45.184 231.528 48.64 230.568 52.736 230.568 55.2533 230.568 57.4933 230.931 59.456 231.656 61.4187 232.381 62.9547 233.384 64.064 234.664 65.1733 235.944 65.728 237.416 65.728 239.08 65.728 241.043 65.152 242.664 64 243.944 62.848 245.181 61.3973 245.8 59.648 245.8 58.752 245.8 58.304 245.565 58.304 245.096 58.304 245.011 58.4747 244.712 58.816 244.2 59.1573 243.645 59.456 243.027 59.712 242.344 59.968 241.619 60.096 240.787 60.096 239.848 60.096 238.056 59.4133 236.605 58.048 235.496 56.7253 234.344 54.9547 233.768 52.736 233.768 49.8773 233.768 47.5307 234.664 45.696 236.456 43.904 238.248 42.6027 240.552 41.792 243.368 40.9813 246.141 40.576 249.107 40.576 252.264 40.576 255.464 41.088 258.408 42.112 261.096 43.136 263.784 44.5867 265.917 46.464 267.496 48.384 269.032 50.5813 269.8 53.056 269.8 55.5307 269.8 57.6853 269.352 59.52 268.456 61.3973 267.517 62.8907 266.237 64 264.616 64.128 264.445 64.256 264.36 64.384 264.36 64.768 264.36 65.1733 264.552 65.6 264.936 66.0267 265.277 66.24 265.64 66.24 266.024 66.24 266.152 66.1973 266.301 66.112 266.472 62.6987 271.379 58.176 273.832 52.544 273.832ZM70.054 271.016 71.462 270.696C72.9553 270.227 73.9367 269.672 74.406 269.032 74.8753 268.349 75.11 267.112 75.11 265.32L75.11 239.08C75.11 237.288 74.854 236.051 74.342 235.368 73.8727 234.643 72.9127 234.088 71.462 233.704L70.054 233.384 70.758 231.4 83.494 231.4 84.262 232.296 83.494 233.384C82.5127 234.621 81.83 235.965 81.446 237.416 81.062 238.824 80.87 240.68 80.87 242.984L80.87 265.704C80.87 267.368 81.1047 268.541 81.574 269.224 82.0433 269.864 82.982 270.397 84.39 270.824L85.542 271.144 85.03 273 70.758 273 70.054 271.016ZM90.4915 271.016 91.8995 270.696C93.3502 270.312 94.3102 269.779 94.7795 269.096 95.2915 268.371 95.5475 267.112 95.5475 265.32L95.5475 236.648C95.5475 236.136 95.4408 235.795 95.2275 235.624 95.0142 235.411 94.6942 235.304 94.2675 235.304L90.9395 235.304 90.2355 233.128C91.8995 232.488 94.0968 231.912 96.8275 231.4 99.5582 230.845 102.182 230.568 104.7 230.568 110.374 230.568 114.598 231.848 117.372 234.408 120.145 236.968 121.532 240.275 121.532 244.328 121.532 246.845 121.02 249.128 119.996 251.176 119.014 253.224 117.478 254.867 115.388 256.104 113.34 257.299 110.78 257.896 107.708 257.896 106.342 257.896 105.148 257.725 104.124 257.384 103.1 257 102.588 256.488 102.588 255.848 102.588 255.464 102.652 255.144 102.78 254.888 102.95 254.589 103.185 254.44 103.484 254.44 103.612 254.44 103.932 254.525 104.444 254.696 104.956 254.824 105.574 254.888 106.3 254.888 109.201 254.888 111.462 253.949 113.084 252.072 114.748 250.195 115.58 247.699 115.58 244.584 115.58 241.427 114.705 238.845 112.956 236.84 111.249 234.792 108.817 233.768 105.66 233.768 102.758 233.768 101.308 234.685 101.308 236.52L101.308 261.352C101.308 263.741 101.5 265.64 101.884 267.048 102.268 268.413 102.95 269.736 103.932 271.016L104.7 272.04 103.932 273 91.1955 273 90.4915 271.016ZM124.992 271.016 126.4 270.696C127.893 270.227 128.874 269.672 129.344 269.032 129.813 268.349 130.048 267.112 130.048 265.32L130.048 239.08C130.048 237.288 129.792 236.051 129.28 235.368 128.81 234.643 127.85 234.088 126.4 233.704L124.992 233.384 125.696 231.4 138.432 231.4 139.2 232.296 138.432 233.384C137.45 234.621 136.768 235.965 136.384 237.416 136 238.824 135.808 240.68 135.808 242.984L135.808 250.152 154.752 250.152 154.752 239.08C154.752 237.331 154.496 236.093 153.984 235.368 153.472 234.643 152.469 234.088 150.976 233.704L149.76 233.384 150.464 231.4 163.072 231.4 163.968 232.296 163.072 233.384C162.133 234.664 161.45 236.029 161.024 237.48 160.64 238.888 160.448 240.723 160.448 242.984L160.448 265.704C160.448 267.368 160.682 268.541 161.152 269.224 161.664 269.864 162.624 270.397 164.032 270.824L165.248 271.144 164.608 273 150.464 273 149.76 271.016 150.976 270.696C152.512 270.227 153.514 269.672 153.984 269.032 154.496 268.349 154.752 267.112 154.752 265.32L154.752 253.608 135.808 253.608 135.808 265.704C135.808 267.368 136.042 268.541 136.512 269.224 136.981 269.864 137.92 270.397 139.328 270.824L140.48 271.144 139.968 273 125.696 273 124.992 271.016ZM197.957 273.832C197.658 273.533 197.317 273.32 196.933 273.192 196.591 273.064 196.122 273 195.525 273L171.077 273 170.373 271.144 171.653 270.824C173.061 270.397 173.999 269.864 174.469 269.224 174.938 268.541 175.173 267.368 175.173 265.704L175.173 242.984C175.173 240.68 174.981 238.824 174.597 237.416 174.213 236.008 173.551 234.664 172.613 233.384L171.845 232.296 172.613 231.4 190.341 231.4C193.711 231.4 195.887 230.995 196.869 230.184L198.021 229.416 198.853 230.184 198.853 240.488 196.869 241.192 196.549 239.784C196.037 237.693 195.375 236.307 194.565 235.624 193.754 234.941 192.346 234.6 190.341 234.6L184.645 234.6C183.151 234.6 182.149 234.899 181.637 235.496 181.167 236.093 180.933 237.288 180.933 239.08L180.933 250.216 188.293 250.216C189.274 250.216 190.106 250.024 190.789 249.64 191.471 249.256 192.175 248.573 192.901 247.592L193.349 246.952 194.501 247.592 194.501 257.512 192.581 258.216 192.197 256.744C191.77 255.421 191.13 254.547 190.277 254.12 189.423 253.693 187.93 253.48 185.797 253.48L180.933 253.48 180.933 265.32C180.933 266.557 181.018 267.496 181.189 268.136 181.402 268.733 181.765 269.139 182.277 269.352 182.789 269.565 183.578 269.672 184.645 269.672L190.853 269.672C192.261 269.672 193.349 269.544 194.117 269.288 194.885 268.989 195.482 268.477 195.909 267.752 196.378 267.027 196.805 265.96 197.189 264.552L197.573 263.272 199.493 263.848 199.493 273.832 198.405 274.408 197.957 273.832ZM233.719 273.832C231.927 273.832 230.433 273.32 229.239 272.296 228.087 271.272 226.913 269.501 225.719 266.984L221.303 257.704C220.961 256.936 220.556 256.381 220.087 256.04 219.617 255.699 218.721 255.315 217.399 254.888 216.673 254.504 216.311 254.013 216.311 253.416 216.311 252.563 216.631 252.136 217.271 252.136 217.441 252.136 217.74 252.2 218.167 252.328 218.593 252.456 219.212 252.52 220.023 252.52 222.881 252.52 225.121 251.709 226.743 250.088 228.407 248.467 229.239 246.269 229.239 243.496 229.239 240.552 228.364 238.205 226.615 236.456 224.865 234.664 222.476 233.768 219.447 233.768 217.996 233.768 216.887 234.003 216.119 234.472 215.351 234.941 214.967 235.624 214.967 236.52L214.967 261.352C214.967 263.699 215.159 265.576 215.543 266.984 215.927 268.349 216.631 269.693 217.655 271.016L218.359 272.04 217.655 273 204.919 273 204.215 271.016 205.559 270.696C207.009 270.312 207.991 269.757 208.503 269.032 209.015 268.307 209.271 267.069 209.271 265.32L209.271 236.648C209.271 236.179 209.164 235.837 208.951 235.624 208.78 235.411 208.46 235.304 207.991 235.304L204.663 235.304 203.959 233.128C205.793 232.403 208.076 231.805 210.807 231.336 213.58 230.824 216.097 230.568 218.359 230.568 223.692 230.568 227.831 231.677 230.775 233.896 233.761 236.115 235.255 239.229 235.255 243.24 235.255 246.269 234.423 248.829 232.759 250.92 231.095 252.968 228.791 254.355 225.847 255.08 226.871 255.805 227.681 256.744 228.279 257.896L233.655 268.904C234.167 270.056 234.913 270.632 235.895 270.632 236.62 270.632 237.345 270.355 238.071 269.8L239.095 271.528C237.345 273.064 235.553 273.832 233.719 273.832Z" fill="#000000"/><line x1="1" y1="209.5" x2="1412" y2="209.5" stroke="#000000"/><path d="M1344.3 72.016 1345.71 71.696C1346.91 71.312 1347.8 70.8 1348.4 70.16 1349.04 69.4773 1349.36 68.4107 1349.36 66.96L1349.36 37.648C1349.36 37.136 1349.25 36.7947 1349.04 36.624 1348.83 36.4107 1348.51 36.304 1348.08 36.304L1344.75 36.304 1344.05 34.128C1345.88 33.488 1348.27 32.912 1351.22 32.4 1354.16 31.8453 1357 31.568 1359.73 31.568 1367.79 31.568 1373.59 33.5733 1377.14 37.584 1380.68 41.5947 1382.45 46.8213 1382.45 53.264 1382.45 57.1893 1381.72 60.7307 1380.27 63.888 1378.82 67.0027 1376.65 69.4773 1373.74 71.312 1370.89 73.104 1367.37 74 1363.18 74L1345.01 74 1344.3 72.016ZM1361.39 71.056C1371.25 71.056 1376.18 65.0827 1376.18 53.136 1376.18 49.8507 1375.6 46.8213 1374.45 44.048 1373.34 41.2747 1371.63 39.0347 1369.33 37.328 1367.02 35.6213 1364.19 34.768 1360.82 34.768 1357.02 34.768 1355.12 35.6853 1355.12 37.52L1355.12 63.824C1355.12 66.5973 1355.7 68.496 1356.85 69.52 1358 70.544 1359.51 71.056 1361.39 71.056Z" fill="#000000"/><path d="M841.96 74.832C839.187 74.832 836.691 74.448 834.472 73.68 832.296 72.8693 830.589 71.76 829.352 70.352 828.157 68.9013 827.56 67.28 827.56 65.488 827.56 63.5253 828.179 61.904 829.416 60.624 830.696 59.344 832.296 58.704 834.216 58.704 834.6 58.704 834.899 58.768 835.112 58.896 835.325 59.024 835.432 59.1733 835.432 59.344 835.432 59.472 835.24 59.8133 834.856 60.368 834.515 60.9227 834.216 61.5413 833.96 62.224 833.704 62.9067 833.576 63.7173 833.576 64.656 833.576 66.704 834.344 68.368 835.88 69.648 837.416 70.928 839.443 71.568 841.96 71.568 844.179 71.568 845.971 70.992 847.336 69.84 848.701 68.6453 849.384 67.024 849.384 64.976 849.384 63.312 848.957 61.904 848.104 60.752 847.251 59.6 846.184 58.6613 844.904 57.936 843.667 57.168 841.981 56.3147 839.848 55.376 837.416 54.3093 835.432 53.3067 833.896 52.368 832.403 51.4293 831.123 50.192 830.056 48.656 829.032 47.12 828.52 45.1787 828.52 42.832 828.52 40.8693 828.989 39.0347 829.928 37.328 830.909 35.5787 832.36 34.192 834.28 33.168 836.2 32.1013 838.525 31.568 841.256 31.568 843.731 31.568 845.949 31.9307 847.912 32.656 849.875 33.3813 851.411 34.384 852.52 35.664 853.629 36.944 854.184 38.416 854.184 40.08 854.184 42.0427 853.587 43.664 852.392 44.944 851.24 46.1813 849.768 46.8 847.976 46.8 847.208 46.8 846.824 46.5653 846.824 46.096 846.824 46.0107 846.973 45.712 847.272 45.2 847.613 44.6453 847.912 44.0267 848.168 43.344 848.424 42.6187 848.552 41.7867 848.552 40.848 848.552 39.0987 847.869 37.648 846.504 36.496 845.139 35.344 843.389 34.768 841.256 34.768 838.952 34.768 837.181 35.4293 835.944 36.752 834.707 38.032 834.088 39.6107 834.088 41.488 834.088 42.9387 834.493 44.176 835.304 45.2 836.115 46.224 837.117 47.0987 838.312 47.824 839.507 48.5067 841.171 49.3173 843.304 50.256 845.864 51.408 847.933 52.4747 849.512 53.456 851.133 54.4373 852.499 55.76 853.608 57.424 854.717 59.0453 855.272 61.072 855.272 63.504 855.272 66.96 854.099 69.712 851.752 71.76 849.448 73.808 846.184 74.832 841.96 74.832Z" fill="#000000"/><line x1="792" y1="2.18557e-08" x2="792" y2="309" stroke="#000000"/><line x1="897" y1="2.18557e-08" x2="897" y2="309" stroke="#000000"/><line x1="1107" y1="2.18557e-08" x2="1107" y2="309" stroke="#000000"/><line x1="1002" y1="2.18557e-08" x2="1002" y2="309" stroke="#000000"/><line x1="1212" y1="2.18557e-08" x2="1212" y2="309" stroke="#000000"/><line x1="1316.5" y1="2.18557e-08" x2="1316.5" y2="309" stroke="#000000"/><path d="M931.804 72.016 933.212 71.696C934.705 71.2267 935.687 70.672 936.156 70.032 936.625 69.3493 936.86 68.112 936.86 66.32L936.86 40.08C936.86 38.288 936.604 37.0507 936.092 36.368 935.623 35.6427 934.663 35.088 933.212 34.704L931.804 34.384 932.508 32.4 945.244 32.4 946.012 33.296 945.244 34.384C944.263 35.6213 943.58 36.9653 943.196 38.416 942.812 39.824 942.62 41.68 942.62 43.984L942.62 51.152 961.564 51.152 961.564 40.08C961.564 38.3307 961.308 37.0933 960.796 36.368 960.284 35.6427 959.281 35.088 957.788 34.704L956.572 34.384 957.276 32.4 969.884 32.4 970.78 33.296 969.884 34.384C968.945 35.664 968.263 37.0293 967.836 38.48 967.452 39.888 967.26 41.7227 967.26 43.984L967.26 66.704C967.26 68.368 967.495 69.5413 967.964 70.224 968.476 70.864 969.436 71.3973 970.844 71.824L972.06 72.144 971.42 74 957.276 74 956.572 72.016 957.788 71.696C959.324 71.2267 960.327 70.672 960.796 70.032 961.308 69.3493 961.564 68.112 961.564 66.32L961.564 54.608 942.62 54.608 942.62 66.704C942.62 68.368 942.855 69.5413 943.324 70.224 943.793 70.864 944.732 71.3973 946.14 71.824L947.292 72.144 946.78 74 932.508 74 931.804 72.016Z" fill="#000000"/><path d="M1040.8 72.016 1042.21 71.696C1043.71 71.2267 1044.69 70.672 1045.16 70.032 1045.63 69.3493 1045.86 68.112 1045.86 66.32L1045.86 40.08C1045.86 38.288 1045.6 37.0507 1045.09 36.368 1044.62 35.6427 1043.66 35.088 1042.21 34.704L1040.8 34.384 1041.51 32.4 1054.24 32.4 1055.01 33.296 1054.24 34.384C1053.26 35.6213 1052.58 36.9653 1052.2 38.416 1051.81 39.824 1051.62 41.68 1051.62 43.984L1051.62 66.704C1051.62 68.368 1051.85 69.5413 1052.32 70.224 1052.79 70.864 1053.73 71.3973 1055.14 71.824L1056.29 72.144 1055.78 74 1041.51 74 1040.8 72.016Z" fill="#000000"/><path d="M1169.64 74.832C1169.35 74.5333 1169 74.32 1168.62 74.192 1168.28 74.064 1167.81 74 1167.21 74L1142.76 74 1142.06 72.144 1143.34 71.824C1144.75 71.3973 1145.69 70.864 1146.16 70.224 1146.63 69.5413 1146.86 68.368 1146.86 66.704L1146.86 43.984C1146.86 41.68 1146.67 39.824 1146.28 38.416 1145.9 37.008 1145.24 35.664 1144.3 34.384L1143.53 33.296 1144.3 32.4 1162.03 32.4C1165.4 32.4 1167.57 31.9947 1168.56 31.184L1169.71 30.416 1170.54 31.184 1170.54 41.488 1168.56 42.192 1168.24 40.784C1167.72 38.6933 1167.06 37.3067 1166.25 36.624 1165.44 35.9413 1164.03 35.6 1162.03 35.6L1156.33 35.6C1154.84 35.6 1153.84 35.8987 1153.32 36.496 1152.85 37.0933 1152.62 38.288 1152.62 40.08L1152.62 51.216 1159.98 51.216C1160.96 51.216 1161.79 51.024 1162.48 50.64 1163.16 50.256 1163.86 49.5733 1164.59 48.592L1165.04 47.952 1166.19 48.592 1166.19 58.512 1164.27 59.216 1163.88 57.744C1163.46 56.4213 1162.82 55.5467 1161.96 55.12 1161.11 54.6933 1159.62 54.48 1157.48 54.48L1152.62 54.48 1152.62 66.32C1152.62 67.5573 1152.71 68.496 1152.88 69.136 1153.09 69.7333 1153.45 70.1387 1153.96 70.352 1154.48 70.5653 1155.27 70.672 1156.33 70.672L1162.54 70.672C1163.95 70.672 1165.04 70.544 1165.8 70.288 1166.57 69.9893 1167.17 69.4773 1167.6 68.752 1168.07 68.0267 1168.49 66.96 1168.88 65.552L1169.26 64.272 1171.18 64.848 1171.18 74.832 1170.09 75.408 1169.64 74.832Z" fill="#000000"/><path d="M1277.36 74.832C1277.15 74.5333 1276.85 74.32 1276.47 74.192 1276.08 74.064 1275.55 74 1274.87 74L1251.76 74 1251.06 72.144 1252.34 71.824C1253.75 71.3973 1254.69 70.864 1255.16 70.224 1255.63 69.5413 1255.86 68.368 1255.86 66.704L1255.86 40.08C1255.86 38.288 1255.6 37.0507 1255.09 36.368 1254.62 35.6427 1253.66 35.088 1252.21 34.704L1250.8 34.384 1251.51 32.4 1264.24 32.4 1265.01 33.296 1264.24 34.384C1263.26 35.6213 1262.58 36.9653 1262.2 38.416 1261.81 39.824 1261.62 41.68 1261.62 43.984L1261.62 66.32C1261.62 67.5573 1261.71 68.496 1261.88 69.136 1262.09 69.7333 1262.45 70.1387 1262.96 70.352 1263.48 70.5653 1264.27 70.672 1265.33 70.672L1270.39 70.672C1272.39 70.672 1273.8 70.3307 1274.61 69.648 1275.47 68.9653 1276.15 67.6 1276.66 65.552L1276.98 64.272 1279.03 64.848 1279.03 74.832 1277.81 75.408 1277.36 74.832Z" fill="#000000"/><path d="M843.572 283.04 844.276 282.016C845.257 280.736 845.94 279.413 846.324 278.048 846.708 276.64 846.9 274.741 846.9 272.352L846.9 250.08C846.9 248.245 846.772 247.051 846.516 246.496 846.26 245.899 845.705 245.6 844.852 245.6L842.228 245.6C840.82 245.6 839.732 245.749 838.964 246.048 838.239 246.347 837.641 246.859 837.172 247.584 836.745 248.309 836.34 249.376 835.956 250.784L835.636 252.192 833.652 251.488 833.652 241.184 834.612 240.416 835.636 241.184C836.66 241.995 838.836 242.4 842.164 242.4L857.332 242.4C860.703 242.4 862.879 241.995 863.86 241.184L864.884 240.416 865.844 241.184 865.844 251.488 863.86 252.192 863.54 250.784C862.985 248.693 862.303 247.307 861.492 246.624 860.681 245.941 859.273 245.6 857.268 245.6L854.58 245.6C853.769 245.6 853.215 245.899 852.916 246.496 852.66 247.093 852.532 248.288 852.532 250.08L852.532 276.32C852.532 278.112 852.767 279.349 853.236 280.032 853.748 280.672 854.772 281.227 856.308 281.696L857.716 282.016 857.012 284 844.276 284 843.572 283.04Z" fill="#000000"/><path d="M938.844 284.832C936.583 284.832 934.663 284.448 933.084 283.68 931.505 282.869 930.311 281.824 929.5 280.544 928.732 279.264 928.348 277.92 928.348 276.512 928.348 274.592 928.988 272.949 930.268 271.584 931.591 270.176 933.404 269.472 935.708 269.472 936.049 269.472 936.305 269.536 936.476 269.664 936.689 269.792 936.796 269.941 936.796 270.112 936.796 270.283 936.519 270.667 935.964 271.264 935.409 271.861 934.94 272.565 934.556 273.376 934.172 274.144 933.98 275.147 933.98 276.384 933.98 277.963 934.449 279.264 935.388 280.288 936.327 281.312 937.607 281.824 939.228 281.824 943.281 281.824 945.308 279.157 945.308 273.824L945.308 250.08C945.308 248.331 945.052 247.093 944.54 246.368 944.028 245.643 943.025 245.088 941.532 244.704L940.252 244.384 940.956 242.4 953.564 242.4 954.396 243.296 953.564 244.384C952.625 245.621 951.964 246.965 951.58 248.416 951.239 249.824 951.068 251.68 951.068 253.984L951.068 270.304C951.068 275.339 949.98 279.029 947.804 281.376 945.671 283.68 942.684 284.832 938.844 284.832Z" fill="#000000"/><path d="M1062.36 284.832C1062.15 284.533 1061.85 284.32 1061.47 284.192 1061.08 284.064 1060.55 284 1059.87 284L1036.76 284 1036.06 282.144 1037.34 281.824C1038.75 281.397 1039.69 280.864 1040.16 280.224 1040.63 279.541 1040.86 278.368 1040.86 276.704L1040.86 250.08C1040.86 248.288 1040.6 247.051 1040.09 246.368 1039.62 245.643 1038.66 245.088 1037.21 244.704L1035.8 244.384 1036.51 242.4 1049.24 242.4 1050.01 243.296 1049.24 244.384C1048.26 245.621 1047.58 246.965 1047.2 248.416 1046.81 249.824 1046.62 251.68 1046.62 253.984L1046.62 276.32C1046.62 277.557 1046.71 278.496 1046.88 279.136 1047.09 279.733 1047.45 280.139 1047.96 280.352 1048.48 280.565 1049.27 280.672 1050.33 280.672L1055.39 280.672C1057.39 280.672 1058.8 280.331 1059.61 279.648 1060.47 278.965 1061.15 277.6 1061.66 275.552L1061.98 274.272 1064.03 274.848 1064.03 284.832 1062.81 285.408 1062.36 284.832Z" fill="#000000"/><path d="M1151.8 282.016 1153.21 281.696C1154.71 281.227 1155.69 280.672 1156.16 280.032 1156.63 279.349 1156.86 278.112 1156.86 276.32L1156.86 250.08C1156.86 248.288 1156.6 247.051 1156.09 246.368 1155.62 245.643 1154.66 245.088 1153.21 244.704L1151.8 244.384 1152.51 242.4 1165.24 242.4 1166.01 243.296 1165.24 244.384C1164.26 245.621 1163.58 246.965 1163.2 248.416 1162.81 249.824 1162.62 251.68 1162.62 253.984L1162.62 276.704C1162.62 278.368 1162.85 279.541 1163.32 280.224 1163.79 280.864 1164.73 281.397 1166.14 281.824L1167.29 282.144 1166.78 284 1152.51 284 1151.8 282.016Z" fill="#000000"/><path d="M1288.5 296.864C1286.54 296.864 1284.77 296.181 1283.19 294.816 1281.65 293.493 1280.27 291.424 1279.03 288.608L1276.72 283.744C1274.59 284.469 1272.24 284.832 1269.68 284.832 1265.76 284.832 1262.35 283.957 1259.44 282.208 1256.59 280.459 1254.39 277.963 1252.85 274.72 1251.32 271.477 1250.55 267.659 1250.55 263.264 1250.55 258.827 1251.32 254.987 1252.85 251.744 1254.43 248.459 1256.65 245.941 1259.51 244.192 1262.41 242.443 1265.8 241.568 1269.68 241.568 1273.61 241.568 1277.02 242.464 1279.92 244.256 1282.83 246.005 1285.04 248.523 1286.58 251.808 1288.16 255.051 1288.95 258.869 1288.95 263.264 1288.95 267.232 1288.27 270.773 1286.9 273.888 1285.58 276.96 1283.68 279.435 1281.2 281.312L1284.15 287.776C1284.79 289.312 1285.6 290.443 1286.58 291.168 1287.56 291.893 1288.76 292.256 1290.16 292.256 1290.97 292.256 1291.68 292.128 1292.28 291.872 1292.92 291.616 1293.28 291.488 1293.36 291.488 1293.49 291.488 1293.62 291.531 1293.75 291.616 1293.88 291.744 1293.94 291.893 1293.94 292.064 1293.94 293.429 1293.41 294.56 1292.34 295.456 1291.32 296.395 1290.04 296.864 1288.5 296.864ZM1278.77 276.704C1280.01 275.04 1280.97 273.077 1281.65 270.816 1282.33 268.512 1282.68 266.059 1282.68 263.456 1282.68 259.872 1282.14 256.672 1281.08 253.856 1280.01 250.997 1278.52 248.779 1276.6 247.2 1274.68 245.621 1272.5 244.832 1270.07 244.832 1267.47 244.832 1265.16 245.643 1263.16 247.264 1261.15 248.843 1259.59 251.061 1258.48 253.92 1257.37 256.779 1256.82 260.064 1256.82 263.776 1256.82 269.28 1257.97 273.568 1260.28 276.64 1260.19 276.469 1260.15 276.085 1260.15 275.488 1260.15 273.611 1260.79 272.117 1262.07 271.008 1263.39 269.899 1265.18 269.344 1267.44 269.344 1269.58 269.344 1271.6 269.984 1273.52 271.264 1275.49 272.501 1277.24 274.315 1278.77 276.704ZM1269.43 281.44C1271.43 281.44 1273.29 280.949 1275 279.968 1273.89 277.664 1272.56 275.872 1271.03 274.592 1269.49 273.269 1267.96 272.608 1266.42 272.608 1265.31 272.608 1264.41 272.949 1263.73 273.632 1263.05 274.315 1262.71 275.211 1262.71 276.32 1262.71 277.856 1263.33 279.093 1264.56 280.032 1265.8 280.971 1267.42 281.44 1269.43 281.44Z" fill="#000000"/><path d="M837.428 183.016 839.924 182.44C840.991 182.184 841.759 181.885 842.228 181.544 842.74 181.203 843.103 180.733 843.316 180.136 843.529 179.496 843.636 178.557 843.636 177.32L843.636 149.288 836.532 153.896C835.679 153.768 834.911 153.32 834.228 152.552 833.545 151.784 832.969 150.909 832.5 149.928L848.564 142.44C849.545 142.653 850.313 143.379 850.868 144.616L849.396 145.576 849.396 173.352C849.396 175.741 849.588 177.64 849.972 179.048 850.356 180.456 851.039 181.779 852.02 183.016L852.66 184.04 852.02 185 838.132 185 837.428 183.016Z" fill="#000000"/><path d="M1352.43 183.016 1354.92 182.44C1355.99 182.184 1356.76 181.885 1357.23 181.544 1357.74 181.203 1358.1 180.733 1358.32 180.136 1358.53 179.496 1358.64 178.557 1358.64 177.32L1358.64 149.288 1351.53 153.896C1350.68 153.768 1349.91 153.32 1349.23 152.552 1348.55 151.784 1347.97 150.909 1347.5 149.928L1363.56 142.44C1364.55 142.653 1365.31 143.379 1365.87 144.616L1364.4 145.576 1364.4 173.352C1364.4 175.741 1364.59 177.64 1364.97 179.048 1365.36 180.456 1366.04 181.779 1367.02 183.016L1367.66 184.04 1367.02 185 1353.13 185 1352.43 183.016Z" fill="#000000"/><path d="M931.676 182.056C937.863 176.979 942.556 172.755 945.756 169.384 948.956 166.013 951.132 163.133 952.284 160.744 953.436 158.355 954.012 155.901 954.012 153.384 954.012 150.995 953.265 149.139 951.772 147.816 950.279 146.451 948.508 145.768 946.46 145.768 944.369 145.768 942.556 146.429 941.02 147.752 939.484 149.032 938.716 150.845 938.716 153.192 938.716 154.131 938.844 154.92 939.1 155.56 939.356 156.157 939.655 156.712 939.996 157.224 940.337 157.736 940.508 158.056 940.508 158.184 940.508 158.525 940.401 158.739 940.188 158.824 940.017 158.867 939.676 158.888 939.164 158.888 937.415 158.888 935.943 158.312 934.748 157.16 933.596 156.008 933.02 154.536 933.02 152.744 933.02 150.568 933.639 148.712 934.876 147.176 936.156 145.64 937.82 144.488 939.868 143.72 941.916 142.952 944.113 142.568 946.46 142.568 950.812 142.568 954.247 143.507 956.764 145.384 959.324 147.261 960.604 149.949 960.604 153.448 960.604 157.203 958.791 161.171 955.164 165.352 951.58 169.491 946.46 174.291 939.804 179.752L961.692 179.752C961.692 180.776 961.543 181.779 961.244 182.76 960.945 183.699 960.455 184.445 959.772 185L933.212 185 931.676 182.056Z" fill="#000000"/><path d="M1052.27 185.832C1049.92 185.832 1047.72 185.469 1045.68 184.744 1043.63 184.019 1041.96 182.952 1040.68 181.544 1039.45 180.136 1038.83 178.429 1038.83 176.424 1038.83 174.632 1039.4 173.181 1040.56 172.072 1041.75 170.92 1043.22 170.344 1044.97 170.344 1045.48 170.344 1045.83 170.387 1046 170.472 1046.17 170.515 1046.25 170.685 1046.25 170.984 1046.25 171.112 1046.08 171.432 1045.74 171.944 1045.4 172.456 1045.1 173.032 1044.84 173.672 1044.63 174.269 1044.52 175.016 1044.52 175.912 1044.52 177.832 1045.25 179.347 1046.7 180.456 1048.19 181.565 1050.01 182.12 1052.14 182.12 1054.4 182.12 1056.36 181.416 1058.03 180.008 1059.73 178.6 1060.59 176.573 1060.59 173.928 1060.59 171.709 1059.86 169.704 1058.41 167.912 1057 166.12 1054.4 165.224 1050.6 165.224 1049.28 165.224 1048.21 165.331 1047.4 165.544 1046.59 165.715 1046.1 165.8 1045.93 165.8 1045.33 165.8 1045.04 165.48 1045.04 164.84 1045.04 164.328 1045.21 163.944 1045.55 163.688 1045.93 163.389 1046.85 163.112 1048.3 162.856 1052.69 162.045 1055.62 160.744 1057.07 158.952 1058.56 157.117 1059.31 155.112 1059.31 152.936 1059.31 150.675 1058.58 148.925 1057.13 147.688 1055.68 146.408 1054 145.768 1052.08 145.768 1050.28 145.768 1048.75 146.301 1047.47 147.368 1046.23 148.392 1045.61 149.843 1045.61 151.72 1045.61 152.701 1045.74 153.533 1046 154.216 1046.29 154.856 1046.59 155.432 1046.89 155.944 1047.19 156.413 1047.34 156.691 1047.34 156.776 1047.34 157.245 1046.93 157.48 1046.12 157.48 1044.33 157.48 1042.84 156.904 1041.64 155.752 1040.49 154.6 1039.92 153.128 1039.92 151.336 1039.92 148.563 1041.11 146.408 1043.5 144.872 1045.89 143.336 1048.77 142.568 1052.14 142.568 1054.4 142.568 1056.58 142.952 1058.67 143.72 1060.76 144.488 1062.44 145.64 1063.72 147.176 1065.05 148.669 1065.71 150.483 1065.71 152.616 1065.71 155.091 1064.96 157.224 1063.47 159.016 1061.97 160.765 1059.86 162.152 1057.13 163.176 1060.29 163.901 1062.7 165.267 1064.36 167.272 1066.03 169.277 1066.86 171.624 1066.86 174.312 1066.86 177.981 1065.54 180.819 1062.89 182.824 1060.29 184.829 1056.75 185.832 1052.27 185.832Z" fill="#000000"/><path d="M1155.76 183.016 1158.19 182.44C1159.25 182.184 1160.02 181.907 1160.49 181.608 1161 181.267 1161.35 180.776 1161.52 180.136 1161.73 179.496 1161.84 178.557 1161.84 177.32L1161.84 175.656 1141.29 175.656 1154.67 143.4 1158.38 143.4 1159.47 144.296 1146.92 171.88 1161.84 171.88 1161.84 164.136C1161.84 162.899 1161.73 161.917 1161.52 161.192 1161.35 160.424 1161 159.635 1160.49 158.824L1161.26 157.864 1167.6 157.16 1167.6 171.88 1172.97 171.88C1172.97 173.715 1172.55 174.973 1171.69 175.656L1167.66 175.656C1167.7 177.235 1167.94 178.6 1168.36 179.752 1168.79 180.861 1169.41 181.949 1170.22 183.016L1170.92 184.04 1170.22 185 1156.4 185 1155.76 183.016Z" fill="#000000"/><path d="M1265.27 185.832C1262.92 185.832 1260.72 185.469 1258.68 184.744 1256.63 184.019 1254.96 182.952 1253.68 181.544 1252.45 180.136 1251.83 178.429 1251.83 176.424 1251.83 174.632 1252.4 173.181 1253.56 172.072 1254.75 170.92 1256.22 170.344 1257.97 170.344 1258.48 170.344 1258.83 170.387 1259 170.472 1259.17 170.515 1259.25 170.685 1259.25 170.984 1259.25 171.112 1259.08 171.432 1258.74 171.944 1258.4 172.456 1258.1 173.032 1257.84 173.672 1257.63 174.269 1257.52 175.016 1257.52 175.912 1257.52 177.832 1258.25 179.347 1259.7 180.456 1261.19 181.565 1263.01 182.12 1265.14 182.12 1266.55 182.12 1267.89 181.8 1269.17 181.16 1270.49 180.52 1271.56 179.581 1272.37 178.344 1273.18 177.064 1273.59 175.549 1273.59 173.8 1273.59 171.283 1272.73 169.043 1271.03 167.08 1269.32 165.117 1266.16 164.136 1261.56 164.136 1260.11 164.136 1258.04 164.392 1255.35 164.904L1254.13 162.664 1255.16 143.4 1277.75 143.4C1277.75 144.424 1277.58 145.427 1277.24 146.408 1276.94 147.347 1276.47 148.093 1275.83 148.648L1258.8 148.648 1257.97 161.768C1260.32 161.213 1262.73 160.936 1265.2 160.936 1268.53 160.936 1271.28 161.533 1273.46 162.728 1275.68 163.923 1277.3 165.501 1278.32 167.464 1279.35 169.384 1279.86 171.496 1279.86 173.8 1279.86 177.469 1278.52 180.392 1275.83 182.568 1273.18 184.744 1269.66 185.832 1265.27 185.832Z" fill="#000000"/></svg>