<svg width="1569" height="283" viewBox="0 0 1569 283" xmlns="http://www.w3.org/2000/svg" xmlns:xlink="http://www.w3.org/1999/xlink" fill="none" overflow="hidden"><path d="M36 29.5 1492 29.5C1511.61 29.5 1527.5 45.3939 1527.5 65L1527.5 155.5 0.5 155.5 0.5 65C0.5 45.3939 16.3939 29.5 36 29.5Z" stroke="#000000" fill="#FFFFFF"/><path d="M36 282.5 1492 282.5C1511.61 282.5 1527.5 266.606 1527.5 247L1527.5 156.5 0.5 156.5 0.5 247C0.5 266.606 16.3939 282.5 36 282.5Z" stroke="#000000" fill="#FFFFFF"/><path d="M38.792 110.624C37.384 110.624 36.072 110.224 34.856 109.424 33.672 108.592 32.712 107.392 31.976 105.824 31.272 104.224 30.92 102.288 30.92 100.016 30.92 96.272 31.928 93.312 33.944 91.136 35.992 88.96 38.744 87.872 42.2 87.872 43.352 87.872 44.92 88.048 46.904 88.4 48.376 88.656 49.704 88.832 50.888 88.928L51.464 89.456 50.84 90.272C50.616 90.656 50.456 90.96 50.36 91.184 50.296 91.376 50.264 91.648 50.264 92L50.264 106.16C50.264 107.056 50.728 107.504 51.656 107.504 52.36 107.504 53.08 107.248 53.816 106.736L54.632 107.84C53.864 108.704 53.048 109.392 52.184 109.904 51.32 110.384 50.536 110.624 49.832 110.624 48.616 110.624 47.736 110.272 47.192 109.568 46.648 108.832 46.376 107.648 46.376 106.016 45.224 107.712 44.024 108.912 42.776 109.616 41.56 110.288 40.232 110.624 38.792 110.624ZM40.472 107.216C42.904 107.216 44.872 105.904 46.376 103.28L46.376 91.52C45.128 90.688 43.72 90.272 42.152 90.272 40.072 90.272 38.44 91.056 37.256 92.624 36.104 94.16 35.528 96.352 35.528 99.2 35.528 101.952 35.992 103.984 36.92 105.296 37.88 106.576 39.064 107.216 40.472 107.216ZM85.8696 110.624C83.5976 110.624 81.6136 110.064 79.9176 108.944 78.2216 107.792 76.9096 106.16 75.9816 104.048 75.0856 101.936 74.6376 99.472 74.6376 96.656 74.6376 93.264 75.0696 90.176 75.9336 87.392 76.7976 84.608 78.1096 82.4 79.8696 80.768 81.6616 79.136 83.8536 78.32 86.4456 78.32 86.9256 78.32 87.5496 78.352 88.3176 78.416L89.8536 78.464C90.9416 78.464 91.7416 78.304 92.2536 77.984 92.6696 77.696 93.0536 77.216 93.4056 76.544 93.6296 76.032 93.8696 75.776 94.1256 75.776 94.3496 75.776 94.5896 76.08 94.8456 76.688 95.1336 77.264 95.2776 77.824 95.2776 78.368 95.2776 79.68 94.8936 80.656 94.1256 81.296 93.3576 81.936 92.3176 82.256 91.0056 82.256 90.0136 82.256 88.8296 82.112 87.4536 81.824 85.9176 81.568 84.7976 81.44 84.0936 81.44 83.3256 81.44 82.6696 81.52 82.1256 81.68 81.0376 81.968 80.2376 83.088 79.7256 85.04 79.2136 86.992 78.9256 89.52 78.8616 92.624L79.2456 92.624C80.0456 91.28 81.0536 90.256 82.2696 89.552 83.4856 88.848 84.8616 88.496 86.3976 88.496 88.1256 88.496 89.7416 88.912 91.2456 89.744 92.7496 90.544 93.9656 91.744 94.8936 93.344 95.8216 94.944 96.2856 96.88 96.2856 99.152 96.2856 101.328 95.8696 103.296 95.0376 105.056 94.2056 106.784 93.0056 108.144 91.4376 109.136 89.8696 110.128 88.0136 110.624 85.8696 110.624ZM85.2456 108.272C87.2296 108.272 88.7976 107.408 89.9496 105.68 91.1336 103.952 91.7256 101.84 91.7256 99.344 91.7256 97.968 91.5016 96.624 91.0536 95.312 90.6056 94 89.9016 92.912 88.9416 92.048 87.9816 91.184 86.7656 90.752 85.2936 90.752 83.3736 90.752 81.8696 91.504 80.7816 93.008 79.6936 94.48 79.1496 96.56 79.1496 99.248 79.1496 101.872 79.6776 104.032 80.7336 105.728 81.7896 107.424 83.2936 108.272 85.2456 108.272ZM118.966 108.608 119.878 108.368C120.902 108.144 121.574 107.776 121.894 107.264 122.246 106.752 122.422 105.872 122.422 104.624L122.422 92.048C122.422 91.664 122.358 91.408 122.23 91.28 122.102 91.152 121.894 91.088 121.606 91.088L119.254 91.088 118.774 89.6C119.958 89.152 121.542 88.752 123.526 88.4 125.51 88.048 127.43 87.872 129.286 87.872 132.806 87.872 135.414 88.384 137.11 89.408 138.838 90.432 139.702 91.888 139.702 93.776 139.702 94.832 139.43 95.792 138.886 96.656 138.342 97.52 137.59 98.24 136.63 98.816 138.07 99.2 139.174 99.824 139.942 100.688 140.742 101.552 141.142 102.624 141.142 103.904 141.142 107.968 137.846 110 131.254 110L119.446 110 118.966 108.608ZM131.35 107.84C132.79 107.84 134.022 107.504 135.046 106.832 136.102 106.128 136.63 105.088 136.63 103.712 136.63 102.56 136.166 101.68 135.238 101.072 134.342 100.432 133.094 100.08 131.494 100.016L131.158 100.016C130.262 100.016 129.494 99.888 128.854 99.632 128.246 99.376 127.942 99.056 127.942 98.672 127.942 98.128 128.102 97.856 128.422 97.856 128.518 97.856 128.742 97.92 129.094 98.048 129.446 98.144 129.894 98.192 130.438 98.192 132.006 98.192 133.222 97.84 134.086 97.136 134.982 96.432 135.43 95.44 135.43 94.16 135.43 92.88 134.95 91.888 133.99 91.184 133.062 90.48 131.638 90.128 129.718 90.128 128.374 90.128 127.478 90.304 127.03 90.656 126.582 91.008 126.358 91.44 126.358 91.952L126.358 102.704C126.358 104.848 126.854 106.24 127.846 106.88 128.838 107.52 130.006 107.84 131.35 107.84ZM160.928 109.328 161.408 108.656C162.08 107.76 162.544 106.88 162.8 106.016 163.088 105.152 163.232 103.936 163.232 102.368L163.232 96.704C163.232 95.104 163.088 93.808 162.8 92.816 162.544 91.792 162.08 90.848 161.408 89.984L160.928 89.216 161.408 88.64 172.064 88.64C173.28 88.64 174.24 88.576 174.944 88.448 175.68 88.32 176.256 88.112 176.672 87.824L177.344 87.248 177.968 87.824 177.968 94.976 176.672 95.36 176.336 94.496C176.112 93.472 175.84 92.72 175.52 92.24 175.232 91.76 174.816 91.424 174.272 91.232 173.76 91.04 173.008 90.944 172.016 90.944L169.712 90.944C168.656 90.944 167.952 91.136 167.6 91.52 167.28 91.872 167.12 92.672 167.12 93.92L167.12 104.72C167.12 105.936 167.28 106.784 167.6 107.264 167.952 107.712 168.656 108.08 169.712 108.368L170.576 108.656 170.096 110 161.408 110 160.928 109.328ZM227.202 116.912C226.626 114.384 225.922 112.592 225.09 111.536 224.258 110.512 222.978 110 221.25 110L211.506 110C210.322 110 209.378 110.24 208.674 110.72 207.97 111.2 207.394 111.904 206.946 112.832 206.498 113.792 206.034 115.152 205.554 116.912L205.266 117.776 203.922 117.248 203.922 108.32C205.714 108.128 207.058 107.52 207.954 106.496 208.85 105.472 209.458 104.176 209.778 102.608 210.13 101.008 210.466 98.624 210.786 95.456L211.026 93.296C211.122 92.816 211.17 92.416 211.17 92.096 211.17 91.392 210.962 90.912 210.546 90.656 210.162 90.4 209.426 90.176 208.338 89.984L207.378 89.696 207.858 88.4 226.626 88.4 227.154 89.024 226.626 89.696C225.954 90.56 225.49 91.488 225.234 92.48 225.01 93.44 224.898 94.768 224.898 96.464L224.898 105.776C224.898 106.608 225.25 107.248 225.954 107.696 226.69 108.112 227.634 108.32 228.786 108.32L228.786 117.296 227.442 117.824 227.202 116.912ZM218.37 107.744C219.426 107.744 220.114 107.552 220.434 107.168 220.754 106.784 220.914 105.968 220.914 104.72L220.914 93.776C220.914 92.56 220.754 91.76 220.434 91.376 220.114 90.992 219.426 90.8 218.37 90.8L216.738 90.8C215.906 90.8 215.282 90.912 214.866 91.136 214.482 91.328 214.258 91.744 214.194 92.384 213.81 95.744 213.442 98.4 213.09 100.352 212.738 102.272 212.274 103.856 211.698 105.104 211.122 106.352 210.37 107.232 209.442 107.744L218.37 107.744ZM260.143 110.624C258.127 110.624 256.367 110.16 254.863 109.232 253.359 108.304 252.191 107.008 251.359 105.344 250.527 103.648 250.111 101.696 250.111 99.488 250.111 97.184 250.575 95.152 251.503 93.392 252.431 91.632 253.743 90.272 255.439 89.312 257.167 88.352 259.151 87.872 261.391 87.872 263.759 87.872 265.583 88.496 266.863 89.744 268.175 90.992 268.831 92.496 268.831 94.256 268.831 95.472 268.495 96.64 267.823 97.76 267.183 98.88 266.223 99.792 264.943 100.496 263.695 101.2 262.223 101.552 260.527 101.552 259.567 101.552 258.527 101.392 257.407 101.072 256.287 100.72 255.727 100.208 255.727 99.536 255.727 99.28 255.791 99.056 255.919 98.864 256.047 98.672 256.191 98.576 256.351 98.576 256.447 98.576 256.735 98.672 257.215 98.864 257.727 99.024 258.383 99.104 259.183 99.104 260.943 99.104 262.303 98.624 263.263 97.664 264.223 96.704 264.703 95.552 264.703 94.208 264.703 93.056 264.319 92.064 263.551 91.232 262.815 90.4 261.823 89.984 260.575 89.984 258.687 89.984 257.215 90.816 256.159 92.48 255.135 94.112 254.623 96.448 254.623 99.488 254.623 102.08 255.167 104.112 256.255 105.584 257.375 107.024 258.975 107.744 261.055 107.744 263.615 107.744 265.727 106.912 267.391 105.248 267.487 105.152 267.615 105.104 267.775 105.104 268.031 105.104 268.287 105.232 268.543 105.488 268.831 105.744 268.975 106.016 268.975 106.304 268.975 106.4 268.943 106.496 268.879 106.592 268.815 106.656 268.783 106.704 268.783 106.736 267.695 108.016 266.399 108.992 264.895 109.664 263.423 110.304 261.839 110.624 260.143 110.624ZM308.108 110.624C306.092 110.624 304.332 110.16 302.828 109.232 301.324 108.304 300.156 107.008 299.324 105.344 298.492 103.648 298.076 101.696 298.076 99.488 298.076 97.184 298.54 95.152 299.468 93.392 300.396 91.632 301.708 90.272 303.404 89.312 305.132 88.352 307.116 87.872 309.356 87.872 311.724 87.872 313.548 88.496 314.828 89.744 316.14 90.992 316.796 92.496 316.796 94.256 316.796 95.472 316.46 96.64 315.788 97.76 315.148 98.88 314.188 99.792 312.908 100.496 311.66 101.2 310.188 101.552 308.492 101.552 307.532 101.552 306.492 101.392 305.372 101.072 304.252 100.72 303.692 100.208 303.692 99.536 303.692 99.28 303.756 99.056 303.884 98.864 304.012 98.672 304.156 98.576 304.316 98.576 304.412 98.576 304.7 98.672 305.18 98.864 305.692 99.024 306.348 99.104 307.148 99.104 308.908 99.104 310.268 98.624 311.228 97.664 312.188 96.704 312.668 95.552 312.668 94.208 312.668 93.056 312.284 92.064 311.516 91.232 310.78 90.4 309.788 89.984 308.54 89.984 306.652 89.984 305.18 90.816 304.124 92.48 303.1 94.112 302.588 96.448 302.588 99.488 302.588 102.08 303.132 104.112 304.22 105.584 305.34 107.024 306.94 107.744 309.02 107.744 311.58 107.744 313.692 106.912 315.356 105.248 315.452 105.152 315.58 105.104 315.74 105.104 315.996 105.104 316.252 105.232 316.508 105.488 316.796 105.744 316.94 106.016 316.94 106.304 316.94 106.4 316.908 106.496 316.844 106.592 316.78 106.656 316.748 106.704 316.748 106.736 315.66 108.016 314.364 108.992 312.86 109.664 311.388 110.304 309.804 110.624 308.108 110.624ZM304.412 84.224C303.9 84.224 303.324 83.888 302.684 83.216 302.076 82.544 301.772 81.936 301.772 81.392 301.772 80.848 302.076 80.24 302.684 79.568 303.324 78.896 303.9 78.56 304.412 78.56 304.956 78.56 305.548 78.896 306.188 79.568 306.86 80.24 307.196 80.848 307.196 81.392 307.196 81.936 306.86 82.544 306.188 83.216 305.548 83.888 304.956 84.224 304.412 84.224ZM312.62 84.224C312.14 84.224 311.58 83.888 310.94 83.216 310.332 82.544 310.028 81.936 310.028 81.392 310.028 80.848 310.332 80.24 310.94 79.568 311.548 78.896 312.108 78.56 312.62 78.56 313.164 78.56 313.772 78.896 314.444 79.568 315.116 80.24 315.452 80.848 315.452 81.392 315.452 81.936 315.116 82.544 314.444 83.216 313.772 83.888 313.164 84.224 312.62 84.224ZM354.421 110.624C353.109 110.624 351.893 110.08 350.773 108.992L351.397 107.792C351.909 108.176 352.437 108.368 352.981 108.368 353.301 108.368 353.573 108.272 353.797 108.08 354.053 107.856 354.293 107.552 354.517 107.168L357.397 101.696C358.037 100.576 358.965 99.696 360.181 99.056L355.525 92.192C355.109 91.552 354.661 91.072 354.181 90.752 353.701 90.4 353.125 90.144 352.453 89.984L351.541 89.744 351.973 88.4 359.029 88.4 359.749 89.024 359.413 89.744C359.349 89.904 359.253 90.176 359.125 90.56 358.997 90.912 358.933 91.232 358.933 91.52 358.933 91.936 358.981 92.304 359.077 92.624 359.173 92.912 359.381 93.28 359.701 93.728L363.013 98.48 363.781 98.48C364.325 98.48 364.597 98.704 364.597 99.152 364.597 99.376 364.517 99.568 364.357 99.728 364.197 99.888 363.925 100.064 363.541 100.256 363.093 100.48 362.693 100.736 362.341 101.024 361.989 101.312 361.669 101.712 361.381 102.224L359.749 105.44C358.789 107.424 357.957 108.784 357.253 109.52 356.549 110.256 355.605 110.624 354.421 110.624ZM362.197 108.656 363.109 108.368C364.133 108.08 364.805 107.712 365.125 107.264 365.477 106.784 365.653 105.936 365.653 104.72L365.653 93.68C365.653 92.464 365.477 91.616 365.125 91.136 364.805 90.656 364.133 90.272 363.109 89.984L362.197 89.696 362.725 88.4 371.365 88.4 371.893 88.976 371.365 89.696C370.693 90.592 370.229 91.536 369.973 92.528 369.717 93.52 369.589 94.832 369.589 96.464L369.589 105.008C369.589 106.224 369.685 107.056 369.877 107.504 370.101 107.92 370.565 108.24 371.269 108.464L372.037 108.704 371.557 110 362.725 110 362.197 108.656ZM380.869 110.624C379.653 110.624 378.693 110.256 377.989 109.52 377.317 108.784 376.485 107.424 375.493 105.44L373.861 102.224C373.605 101.712 373.301 101.328 372.949 101.072 372.629 100.784 372.213 100.496 371.701 100.208 371.349 100.048 371.093 99.888 370.933 99.728 370.773 99.568 370.693 99.376 370.693 99.152 370.693 98.992 370.741 98.848 370.837 98.72 370.965 98.56 371.173 98.48 371.461 98.48L372.277 98.48 375.541 93.728C375.893 93.28 376.117 92.896 376.213 92.576 376.309 92.256 376.357 91.904 376.357 91.52 376.357 91.168 376.277 90.816 376.117 90.464 375.989 90.08 375.909 89.84 375.877 89.744L375.493 89.024 376.213 88.4 383.317 88.4 383.797 89.744 382.885 89.984C381.509 90.336 380.453 91.072 379.717 92.192L375.157 99.056C376.341 99.664 377.237 100.544 377.845 101.696L380.773 107.168C381.061 107.616 381.301 107.936 381.493 108.128 381.717 108.288 381.989 108.368 382.309 108.368 382.853 108.368 383.365 108.176 383.845 107.792L384.565 108.992C383.477 110.08 382.245 110.624 380.869 110.624ZM415.744 110.624C413.408 110.624 411.424 110.144 409.792 109.184 408.192 108.224 407.392 106.88 407.392 105.152 407.392 104.256 407.696 103.52 408.304 102.944 408.912 102.336 409.68 102.032 410.608 102.032 410.864 102.032 411.088 102.08 411.28 102.176 411.472 102.24 411.568 102.352 411.568 102.512 411.568 102.64 411.488 102.928 411.328 103.376 411.2 103.824 411.136 104.368 411.136 105.008 411.136 106.032 411.552 106.832 412.384 107.408 413.216 107.984 414.336 108.272 415.744 108.272 417.44 108.272 418.704 107.92 419.536 107.216 420.4 106.48 420.832 105.312 420.832 103.712 420.832 102.4 420.304 101.392 419.248 100.688 418.224 99.952 416.832 99.552 415.072 99.488L414.64 99.488C414.032 99.488 413.728 99.248 413.728 98.768 413.728 98.416 413.888 98.16 414.208 98 414.56 97.84 415.152 97.68 415.984 97.52 417.648 97.264 418.8 96.816 419.44 96.176 420.08 95.504 420.4 94.592 420.4 93.44 420.4 92.512 420.016 91.744 419.248 91.136 418.48 90.496 417.376 90.176 415.936 90.176 413.024 90.176 411.12 91.664 410.224 94.64L409.984 95.504 408.688 95.072 408.688 87.968 409.264 87.392 409.984 87.968C410.4 88.256 410.912 88.4 411.52 88.4 411.744 88.4 412.24 88.336 413.008 88.208 414.288 87.984 415.28 87.872 415.984 87.872 418.768 87.872 420.832 88.336 422.176 89.264 423.52 90.16 424.192 91.44 424.192 93.104 424.192 95.728 422.736 97.472 419.824 98.336 421.616 98.848 422.928 99.632 423.76 100.688 424.624 101.712 425.056 102.848 425.056 104.096 425.056 105.216 424.704 106.272 424 107.264 423.296 108.256 422.24 109.072 420.832 109.712 419.424 110.32 417.728 110.624 415.744 110.624ZM443.667 108.656 444.579 108.368C445.571 108.08 446.227 107.712 446.547 107.264 446.899 106.784 447.075 105.936 447.075 104.72L447.075 93.68C447.075 92.464 446.899 91.616 446.547 91.136 446.227 90.656 445.571 90.272 444.579 89.984L443.667 89.696 444.147 88.4 452.835 88.4 453.363 88.976 452.835 89.696C452.163 90.624 451.683 91.584 451.395 92.576 451.139 93.536 451.011 94.832 451.011 96.464L451.011 102.56 461.523 92.672C461.363 91.808 461.107 91.2 460.755 90.848 460.435 90.496 459.923 90.208 459.219 89.984L458.355 89.696 458.739 88.4 467.523 88.4 468.003 88.976 467.523 89.696C466.851 90.624 466.371 91.584 466.083 92.576 465.827 93.536 465.699 94.832 465.699 96.464L465.699 105.008C465.699 106.16 465.859 106.944 466.179 107.36 466.499 107.776 467.155 108.144 468.147 108.464L468.963 108.704 468.579 110 458.739 110 458.355 108.656 459.219 108.368C460.243 108.08 460.915 107.712 461.235 107.264 461.587 106.784 461.763 105.936 461.763 104.72L461.763 95.936 451.251 105.824C451.379 106.72 451.603 107.344 451.923 107.696 452.275 108.016 452.803 108.272 453.507 108.464L454.371 108.704 453.939 110 444.147 110 443.667 108.656ZM488.01 108.656 488.922 108.368C489.914 108.08 490.57 107.712 490.89 107.264 491.242 106.784 491.418 105.936 491.418 104.72L491.418 93.68C491.418 92.464 491.242 91.616 490.89 91.136 490.57 90.656 489.914 90.272 488.922 89.984L488.01 89.696 488.49 88.4 497.178 88.4 497.706 88.976 497.178 89.696C496.506 90.624 496.026 91.584 495.738 92.576 495.482 93.536 495.354 94.832 495.354 96.464L495.354 102.56 505.866 92.672C505.706 91.808 505.45 91.2 505.098 90.848 504.778 90.496 504.266 90.208 503.562 89.984L502.698 89.696 503.082 88.4 511.866 88.4 512.346 88.976 511.866 89.696C511.194 90.624 510.714 91.584 510.426 92.576 510.17 93.536 510.042 94.832 510.042 96.464L510.042 105.008C510.042 106.16 510.202 106.944 510.522 107.36 510.842 107.776 511.498 108.144 512.49 108.464L513.306 108.704 512.922 110 503.082 110 502.698 108.656 503.562 108.368C504.586 108.08 505.258 107.712 505.578 107.264 505.93 106.784 506.106 105.936 506.106 104.72L506.106 95.936 495.594 105.824C495.722 106.72 495.946 107.344 496.266 107.696 496.618 108.016 497.146 108.272 497.85 108.464L498.714 108.704 498.282 110 488.49 110 488.01 108.656ZM500.586 85.184C498.506 85.184 496.858 84.848 495.642 84.176 494.458 83.472 493.866 82.464 493.866 81.152 493.866 80.224 494.17 79.488 494.778 78.944 495.386 78.368 496.122 78.08 496.986 78.08 497.21 78.08 497.402 78.144 497.562 78.272 497.722 78.4 497.802 78.544 497.802 78.704 497.802 78.8 497.69 79.04 497.466 79.424 497.242 79.808 497.13 80.336 497.13 81.008 497.13 82.576 498.282 83.36 500.586 83.36 501.834 83.36 502.746 83.152 503.322 82.736 503.898 82.32 504.186 81.76 504.186 81.056 504.186 80.384 504.074 79.856 503.85 79.472 503.658 79.056 503.562 78.8 503.562 78.704 503.562 78.512 503.626 78.368 503.754 78.272 503.914 78.144 504.138 78.08 504.426 78.08 505.226 78.08 505.914 78.368 506.49 78.944 507.098 79.488 507.402 80.224 507.402 81.152 507.402 82.464 506.794 83.472 505.578 84.176 504.362 84.848 502.698 85.184 500.586 85.184ZM534.206 108.656 535.07 108.368C536.094 108.08 536.766 107.712 537.086 107.264 537.438 106.784 537.614 105.936 537.614 104.72L537.614 93.68C537.614 92.464 537.438 91.616 537.086 91.136 536.766 90.656 536.094 90.272 535.07 89.984L534.206 89.696 534.638 88.4 543.278 88.4 543.806 88.976 543.278 89.696C542.638 90.624 542.174 91.584 541.886 92.576 541.63 93.568 541.502 94.864 541.502 96.464L541.502 105.008C541.502 106.16 541.662 106.944 541.982 107.36 542.302 107.776 542.958 108.144 543.95 108.464L544.814 108.704 544.382 110 534.638 110 534.206 108.656ZM553.694 110.624C552.51 110.624 551.518 110.304 550.718 109.664 549.95 109.024 549.166 108.032 548.366 106.688L545.342 101.648C545.118 101.264 544.846 100.96 544.526 100.736 544.206 100.512 543.87 100.336 543.518 100.208 543.198 100.048 542.99 99.936 542.894 99.872 542.766 99.808 542.702 99.632 542.702 99.344 542.702 98.768 542.942 98.48 543.422 98.48L544.238 98.48 548.126 93.728C548.734 93.024 549.038 92.192 549.038 91.232 549.038 90.72 548.926 90.224 548.702 89.744L548.366 89.024 549.086 88.4 556.142 88.4 556.622 89.744 555.758 89.984C555.118 90.176 554.542 90.448 554.03 90.8 553.55 91.12 553.07 91.584 552.59 92.192L547.118 99.008C548.558 99.712 549.614 100.608 550.286 101.696L553.646 107.168C553.902 107.584 554.126 107.888 554.318 108.08 554.542 108.272 554.798 108.368 555.086 108.368 555.662 108.368 556.206 108.176 556.718 107.792L557.39 108.992C556.334 110.08 555.102 110.624 553.694 110.624ZM581.676 110.624C580.524 110.624 579.596 110.272 578.892 109.568 578.188 108.832 577.836 107.872 577.836 106.688 577.836 105.856 578.028 105.2 578.412 104.72 578.796 104.24 579.308 104 579.948 104 580.524 104 580.86 104.448 580.956 105.344 581.02 105.792 581.164 106.192 581.388 106.544 581.644 106.864 582.012 107.024 582.492 107.024 584.892 107.024 586.444 102.448 587.148 93.296L587.196 92.48C587.196 91.616 587.004 91.024 586.62 90.704 586.236 90.384 585.468 90.144 584.316 89.984L583.404 89.696 583.884 88.4 601.212 88.4 601.788 89.024 601.212 89.744C600.54 90.64 600.06 91.584 599.772 92.576 599.516 93.568 599.388 94.864 599.388 96.464L599.388 105.008C599.388 106.128 599.564 106.912 599.916 107.36 600.268 107.808 600.924 108.176 601.884 108.464L602.7 108.656 602.268 110 592.476 110 591.996 108.656 592.908 108.368C593.932 108.08 594.62 107.696 594.972 107.216 595.324 106.736 595.5 105.872 595.5 104.624L595.5 93.728C595.5 92.48 595.324 91.664 594.972 91.28 594.652 90.896 593.964 90.704 592.908 90.704L592.14 90.704C591.308 90.704 590.684 90.816 590.268 91.04 589.884 91.232 589.676 91.648 589.644 92.288 589.228 97.28 588.604 101.12 587.772 103.808 586.972 106.496 586.06 108.304 585.036 109.232 584.044 110.16 582.924 110.624 581.676 110.624ZM619.517 108.656 620.525 108.368C621.517 108.08 622.173 107.68 622.493 107.168 622.845 106.656 623.117 105.84 623.309 104.72L625.037 92.912C625.069 92.784 625.085 92.592 625.085 92.336 625.085 91.696 624.877 91.2 624.461 90.848 624.077 90.496 623.469 90.208 622.637 89.984L621.821 89.696 622.205 88.4 629.501 88.4 635.741 101.648 642.077 88.4 647.741 88.4 648.413 88.976 647.837 89.696C646.813 91.072 646.301 92.4 646.301 93.68 646.301 94.064 646.349 94.448 646.445 94.832L647.933 102.224C647.997 102.48 648.061 102.832 648.125 103.28 648.509 104.976 648.845 106.24 649.133 107.072 649.421 107.872 649.933 108.64 650.669 109.376L650.189 110 641.405 110 640.925 108.656 641.789 108.368C642.621 108.144 643.229 107.792 643.613 107.312 643.997 106.832 644.189 106.192 644.189 105.392 644.189 104.976 644.141 104.512 644.045 104L642.317 93.152 635.789 107.12 634.445 107.12 627.869 93.152 626.237 103.616C626.173 104.064 626.141 104.384 626.141 104.576 626.141 105.888 626.621 107.248 627.581 108.656L628.109 109.376 627.533 110 620.045 110 619.517 108.656ZM668.835 108.656 669.747 108.368C670.739 108.08 671.395 107.712 671.715 107.264 672.067 106.784 672.243 105.936 672.243 104.72L672.243 93.68C672.243 92.464 672.067 91.616 671.715 91.136 671.395 90.656 670.739 90.272 669.747 89.984L668.835 89.696 669.315 88.4 677.955 88.4 678.483 88.976 677.955 89.696C677.315 90.56 676.851 91.504 676.563 92.528 676.307 93.52 676.179 94.832 676.179 96.464L676.179 97.856 686.643 97.856 686.643 93.68C686.643 92.464 686.467 91.616 686.115 91.136 685.795 90.656 685.123 90.272 684.099 89.984L683.139 89.696 683.667 88.4 692.307 88.4 692.883 88.976 692.307 89.696C691.667 90.56 691.219 91.488 690.963 92.48 690.707 93.472 690.579 94.8 690.579 96.464L690.579 105.008C690.579 106.16 690.739 106.96 691.059 107.408 691.379 107.824 692.019 108.176 692.979 108.464L693.747 108.704 693.363 110 683.667 110 683.139 108.656 684.099 108.368C685.123 108.08 685.795 107.712 686.115 107.264 686.467 106.784 686.643 105.936 686.643 104.72L686.643 100.4 676.179 100.4 676.179 105.008C676.179 106.16 676.339 106.96 676.659 107.408 677.011 107.824 677.667 108.176 678.627 108.464L679.491 108.704 679.059 110 669.315 110 668.835 108.656ZM723.267 110.624C720.003 110.624 717.411 109.6 715.491 107.552 713.571 105.472 712.611 102.688 712.611 99.2 712.611 95.712 713.571 92.96 715.491 90.944 717.411 88.896 720.003 87.872 723.267 87.872 725.411 87.872 727.283 88.336 728.883 89.264 730.483 90.192 731.715 91.504 732.579 93.2 733.443 94.896 733.875 96.896 733.875 99.2 733.875 101.504 733.427 103.52 732.531 105.248 731.667 106.976 730.435 108.304 728.835 109.232 727.235 110.16 725.379 110.624 723.267 110.624ZM723.171 108.272C724.995 108.272 726.467 107.456 727.587 105.824 728.739 104.16 729.315 101.984 729.315 99.296 729.315 97.92 729.123 96.544 728.739 95.168 728.355 93.76 727.715 92.576 726.819 91.616 725.955 90.624 724.819 90.128 723.411 90.128 721.523 90.128 720.003 90.96 718.851 92.624 717.731 94.288 717.171 96.496 717.171 99.248 717.171 102 717.699 104.192 718.755 105.824 719.843 107.456 721.315 108.272 723.171 108.272ZM752.741 109.28 753.317 108.512C754.053 107.584 754.549 106.592 754.805 105.536 755.093 104.48 755.237 103.056 755.237 101.264L755.237 97.136C755.237 95.344 755.093 93.92 754.805 92.864 754.517 91.776 754.021 90.784 753.317 89.888L752.741 89.024 753.317 88.4 774.773 88.4 775.349 89.024 774.773 89.888C774.069 90.784 773.573 91.776 773.285 92.864 772.997 93.92 772.853 95.344 772.853 97.136L772.853 104.528C772.853 105.808 773.029 106.704 773.381 107.216 773.733 107.728 774.437 108.112 775.493 108.368L776.405 108.608 775.877 110 765.653 110 765.125 108.512 766.133 108.272C767.253 107.92 767.989 107.504 768.341 107.024 768.725 106.512 768.917 105.584 768.917 104.24L768.917 94.112C768.917 92.768 768.725 91.888 768.341 91.472 767.989 91.024 767.253 90.8 766.133 90.8L761.909 90.8C760.789 90.8 760.053 91.024 759.701 91.472 759.349 91.888 759.173 92.768 759.173 94.112L759.173 104.24C759.173 105.584 759.349 106.512 759.701 107.024 760.053 107.504 760.789 107.92 761.909 108.272L762.965 108.512 762.389 110 753.317 110 752.741 109.28ZM795.876 120.944 796.356 120.224C796.9 119.488 797.284 118.704 797.508 117.872 797.732 117.072 797.844 115.984 797.844 114.608L797.844 93.44C797.844 93.024 797.78 92.704 797.652 92.48 797.524 92.256 797.284 92.096 796.932 92L794.676 91.472 794.676 90.128C795.124 89.712 795.988 89.312 797.268 88.928 798.548 88.544 799.668 88.352 800.628 88.352 801.364 88.352 801.732 89.024 801.732 90.368L801.732 90.56C803.588 88.768 805.684 87.872 808.02 87.872 809.78 87.872 811.364 88.32 812.772 89.216 814.18 90.112 815.268 91.36 816.036 92.96 816.836 94.528 817.236 96.336 817.236 98.384 817.236 100.688 816.82 102.784 815.988 104.672 815.156 106.528 814.004 107.984 812.532 109.04 811.092 110.096 809.476 110.624 807.684 110.624 805.956 110.624 804.516 110.224 803.364 109.424 803.076 109.264 802.932 109.008 802.932 108.656 802.932 108.336 802.98 108.08 803.076 107.888 803.204 107.664 803.38 107.552 803.604 107.552 803.7 107.552 804.004 107.68 804.516 107.936 805.06 108.16 805.764 108.272 806.628 108.272 808.42 108.272 809.86 107.424 810.948 105.728 812.068 104.032 812.628 101.856 812.628 99.2 812.628 96.704 812.068 94.672 810.948 93.104 809.86 91.504 808.404 90.704 806.58 90.704 805.62 90.704 804.756 90.832 803.988 91.088 803.22 91.344 802.468 91.776 801.732 92.384L801.732 116.768C801.732 117.888 801.844 118.672 802.068 119.12 802.324 119.568 802.82 119.872 803.556 120.032L804.42 120.224 804.036 121.52 796.356 121.52 795.876 120.944ZM848.968 110.624C846.952 110.624 845.144 110.128 843.544 109.136 841.944 108.144 840.68 106.784 839.752 105.056 838.856 103.328 838.408 101.392 838.408 99.248 838.408 96.944 838.84 94.944 839.704 93.248 840.568 91.52 841.8 90.192 843.4 89.264 845 88.336 846.856 87.872 848.968 87.872 851.208 87.872 853.032 88.416 854.44 89.504 855.88 90.56 856.6 91.936 856.6 93.632 856.6 94.88 856.2 95.904 855.4 96.704 854.6 97.472 853.576 97.856 852.328 97.856 852.04 97.856 851.832 97.824 851.704 97.76 851.576 97.696 851.512 97.584 851.512 97.424 851.512 97.328 851.608 97.12 851.8 96.8 852.024 96.48 852.216 96.096 852.376 95.648 852.536 95.168 852.616 94.56 852.616 93.824 852.616 92.672 852.232 91.776 851.464 91.136 850.728 90.464 849.736 90.128 848.488 90.128 846.824 90.128 845.48 90.944 844.456 92.576 843.464 94.176 842.968 96.304 842.968 98.96 842.968 101.648 843.56 103.776 844.744 105.344 845.96 106.912 847.592 107.696 849.64 107.696 850.696 107.696 851.688 107.52 852.616 107.168 853.544 106.816 854.472 106.256 855.4 105.488 855.464 105.424 855.592 105.392 855.784 105.392 856.04 105.392 856.28 105.536 856.504 105.824 856.76 106.08 856.888 106.352 856.888 106.64 856.888 106.864 856.856 106.976 856.792 106.976 855.768 108.16 854.568 109.072 853.192 109.712 851.848 110.32 850.44 110.624 848.968 110.624ZM888.712 109.328 889.24 108.656C889.912 107.792 890.376 106.864 890.632 105.872 890.888 104.88 891.016 103.568 891.016 101.936L891.016 93.92C891.016 92.704 890.92 91.904 890.728 91.52 890.568 91.136 890.2 90.944 889.624 90.944L889.192 90.944C888.2 90.944 887.432 91.04 886.888 91.232 886.376 91.424 885.96 91.76 885.64 92.24 885.352 92.72 885.08 93.472 884.824 94.496L884.536 95.36 883.192 94.976 883.192 87.824 883.864 87.248 884.536 87.824C884.92 88.112 885.48 88.32 886.216 88.448 886.952 88.576 887.928 88.64 889.144 88.64L896.872 88.64C898.088 88.64 899.048 88.576 899.752 88.448 900.456 88.32 901 88.112 901.384 87.824L902.056 87.248 902.776 87.824 902.776 94.976 901.384 95.36 901.192 94.496C900.904 93.472 900.6 92.72 900.28 92.24 899.992 91.76 899.592 91.424 899.08 91.232 898.568 91.04 897.832 90.944 896.872 90.944L896.296 90.944C895.752 90.944 895.384 91.136 895.192 91.52 895.032 91.904 894.952 92.704 894.952 93.92L894.952 104.72C894.952 105.936 895.112 106.784 895.432 107.264 895.752 107.712 896.424 108.08 897.448 108.368L898.456 108.656 897.928 110 889.24 110 888.712 109.328ZM935.723 122.144C934.123 122.144 932.747 121.84 931.595 121.232 930.475 120.656 929.627 119.888 929.051 118.928 928.507 117.968 928.235 116.96 928.235 115.904 928.235 114.432 928.731 113.184 929.723 112.16 930.715 111.136 932.075 110.624 933.803 110.624 934.059 110.624 934.251 110.656 934.379 110.72 934.507 110.816 934.571 110.928 934.571 111.056 934.571 111.184 934.363 111.456 933.947 111.872 933.563 112.32 933.211 112.848 932.891 113.456 932.603 114.064 932.459 114.832 932.459 115.76 932.459 116.912 932.795 117.872 933.467 118.64 934.171 119.44 935.099 119.84 936.251 119.84 938.043 119.84 939.371 119.088 940.235 117.584 941.099 116.112 941.531 114.128 941.531 111.632L941.531 105.2C940.827 106.48 939.803 107.488 938.459 108.224 937.147 108.96 935.675 109.328 934.043 109.328 931.995 109.328 930.395 108.704 929.243 107.456 928.123 106.176 927.563 104.4 927.563 102.128L927.563 92.528C927.563 92.144 927.499 91.872 927.371 91.712 927.243 91.552 927.019 91.472 926.699 91.472L924.731 91.472 924.395 90.416C925.131 89.648 926.027 89.024 927.083 88.544 928.171 88.064 929.163 87.824 930.059 87.824 930.475 87.824 930.811 87.952 931.067 88.208 931.355 88.432 931.499 88.736 931.499 89.12L931.499 101.12C931.499 102.848 931.851 104.16 932.555 105.056 933.259 105.952 934.267 106.4 935.579 106.4 937.531 106.4 939.051 105.68 940.139 104.24 941.227 102.8 941.771 100.768 941.771 98.144 941.771 95.744 941.675 93.968 941.483 92.816 941.291 91.664 940.811 90.608 940.043 89.648L939.563 88.976 940.043 88.352 945.371 87.824 945.371 110.96C945.371 114.512 944.507 117.264 942.779 119.216 941.051 121.168 938.699 122.144 935.723 122.144ZM978.653 120.944 979.181 120.224C979.693 119.456 980.045 118.656 980.237 117.824 980.461 117.024 980.573 115.952 980.573 114.608L980.573 92.24C979.325 91.216 977.949 90.704 976.445 90.704 974.685 90.704 973.245 91.536 972.125 93.2 971.005 94.832 970.445 97.152 970.445 100.16 970.445 101.824 970.685 103.28 971.165 104.528 971.645 105.744 972.269 106.672 973.037 107.312 973.805 107.952 974.637 108.272 975.533 108.272 976.557 108.272 977.341 108.16 977.885 107.936 978.429 107.68 978.749 107.552 978.845 107.552 979.037 107.552 979.165 107.648 979.229 107.84 979.293 108.032 979.325 108.304 979.325 108.656 979.325 109.04 979.213 109.296 978.989 109.424 977.645 110.224 976.109 110.624 974.381 110.624 971.757 110.624 969.677 109.616 968.141 107.6 966.605 105.552 965.837 102.768 965.837 99.248 965.837 95.632 966.685 92.832 968.381 90.848 970.077 88.864 972.285 87.872 975.005 87.872 977.085 87.872 978.941 88.72 980.573 90.416L980.573 81.056C980.573 80.608 980.509 80.288 980.381 80.096 980.253 79.872 980.013 79.728 979.661 79.664L977.357 79.184 977.357 77.744C977.869 77.328 978.765 76.928 980.045 76.544 981.357 76.16 982.493 75.968 983.453 75.968 984.125 75.968 984.461 76.64 984.461 77.984L984.461 90.416C986.093 88.72 987.965 87.872 990.077 87.872 991.837 87.872 993.405 88.32 994.781 89.216 996.189 90.08 997.277 91.376 998.045 93.104 998.845 94.8 999.245 96.848 999.245 99.248 999.245 102.768 998.477 105.552 996.941 107.6 995.405 109.616 993.325 110.624 990.701 110.624 988.877 110.624 987.341 110.224 986.093 109.424 985.805 109.264 985.661 109.008 985.661 108.656 985.661 107.92 985.853 107.552 986.237 107.552 986.333 107.552 986.637 107.68 987.149 107.936 987.693 108.16 988.461 108.272 989.453 108.272 990.349 108.272 991.181 107.952 991.949 107.312 992.749 106.672 993.389 105.744 993.869 104.528 994.349 103.28 994.589 101.824 994.589 100.16 994.589 97.184 994.029 94.864 992.909 93.2 991.789 91.536 990.365 90.704 988.637 90.704 987.101 90.704 985.709 91.216 984.461 92.24L984.461 116.768C984.461 117.888 984.589 118.672 984.845 119.12 985.101 119.568 985.581 119.872 986.285 120.032L987.245 120.224 986.765 121.52 979.181 121.52 978.653 120.944ZM1034.69 110.624C1032.7 110.624 1031.17 109.6 1030.08 107.552L1026.53 101.552C1023.94 104.464 1022.64 106.352 1022.64 107.216 1022.64 107.504 1022.7 107.76 1022.83 107.984 1022.99 108.176 1023.22 108.4 1023.5 108.656L1024.32 109.328 1023.84 110 1017.07 110 1016.54 109.088C1019.9 105.792 1022.93 102.736 1025.62 99.92L1020.82 91.76C1020.56 91.312 1020.29 91.008 1020 90.848 1019.71 90.656 1019.38 90.56 1018.99 90.56 1018.67 90.56 1018.13 90.736 1017.36 91.088L1016.4 89.84C1017.62 88.528 1018.96 87.872 1020.43 87.872 1022.45 87.872 1023.98 88.864 1025.04 90.848L1028.54 96.8C1031.1 93.856 1032.38 91.952 1032.38 91.088 1032.38 90.832 1032.32 90.608 1032.19 90.416 1032.06 90.224 1031.86 89.984 1031.57 89.696L1030.61 89.024 1031.18 88.4 1038 88.4 1038.43 89.264 1037.28 90.416C1034.3 93.328 1031.7 96 1029.46 98.432L1034.3 106.64C1034.56 107.12 1034.82 107.44 1035.07 107.6 1035.36 107.76 1035.71 107.84 1036.13 107.84 1036.64 107.84 1037.17 107.664 1037.71 107.312L1038.72 108.608C1038.02 109.312 1037.34 109.824 1036.7 110.144 1036.1 110.464 1035.42 110.624 1034.69 110.624ZM1080.36 116.912C1079.79 114.416 1079.07 112.64 1078.2 111.584 1077.34 110.528 1076.04 110 1074.32 110L1056.94 110 1056.46 108.656 1057.37 108.416C1058.36 108.192 1059.02 107.824 1059.34 107.312 1059.69 106.8 1059.87 105.936 1059.87 104.72L1059.87 93.68C1059.87 92.464 1059.69 91.616 1059.34 91.136 1059.02 90.656 1058.36 90.272 1057.37 89.984L1056.46 89.696 1056.94 88.4 1065.58 88.4 1066.11 89.024 1065.58 89.696C1064.91 90.592 1064.44 91.536 1064.19 92.528 1063.93 93.52 1063.8 94.832 1063.8 96.464L1063.8 104.72C1063.8 105.936 1063.96 106.752 1064.28 107.168 1064.64 107.552 1065.34 107.744 1066.4 107.744L1071.48 107.744C1072.54 107.744 1073.24 107.552 1073.6 107.168 1073.95 106.752 1074.12 105.936 1074.12 104.72L1074.12 93.68C1074.12 92.464 1073.95 91.616 1073.6 91.136 1073.24 90.656 1072.54 90.272 1071.48 89.984L1070.57 89.696 1071.15 88.4 1079.79 88.4 1080.32 89.024 1079.79 89.696C1079.12 90.592 1078.65 91.536 1078.4 92.528 1078.14 93.52 1078.01 94.832 1078.01 96.464L1078.01 105.776C1078.01 106.608 1078.38 107.248 1079.12 107.696 1079.85 108.112 1080.8 108.32 1081.95 108.32L1081.95 117.296 1080.56 117.824 1080.36 116.912ZM1110.18 108.608 1111.05 108.368C1112.07 108.144 1112.74 107.776 1113.06 107.264 1113.41 106.752 1113.59 105.872 1113.59 104.624L1113.59 100.736C1112.73 101.408 1111.78 101.936 1110.76 102.32 1109.73 102.704 1108.53 102.896 1107.16 102.896 1102.71 102.896 1100.49 100.752 1100.49 96.464L1100.49 95.312C1100.49 93.904 1100.45 92.912 1100.39 92.336 1100.36 91.728 1100.26 91.264 1100.1 90.944 1099.97 90.624 1099.72 90.192 1099.33 89.648L1098.81 89.024 1099.29 88.352 1104.52 87.824 1104.52 95.84C1104.52 97.312 1104.87 98.352 1105.57 98.96 1106.28 99.568 1107.3 99.872 1108.65 99.872 1110.6 99.872 1112.25 99.296 1113.59 98.144L1113.59 93.68C1113.59 92.464 1113.41 91.632 1113.06 91.184 1112.74 90.704 1112.07 90.304 1111.05 89.984L1110.18 89.696 1110.66 88.4 1119.35 88.4 1119.88 89.024 1119.35 89.696C1118.68 90.592 1118.21 91.536 1117.96 92.528 1117.7 93.52 1117.57 94.832 1117.57 96.464L1117.57 105.008C1117.57 106.128 1117.73 106.912 1118.05 107.36 1118.37 107.808 1119.03 108.176 1120.02 108.464L1120.89 108.656 1120.45 110 1110.66 110 1110.18 108.608ZM1139.94 108.656 1140.86 108.368C1141.88 108.08 1142.55 107.712 1142.87 107.264 1143.19 106.784 1143.35 105.936 1143.35 104.72L1143.35 93.68C1143.35 92.432 1143.19 91.584 1142.87 91.136 1142.55 90.656 1141.88 90.272 1140.86 89.984L1139.94 89.696 1140.42 88.4 1149.16 88.4 1149.64 88.976 1149.16 89.696C1148.49 90.592 1148.01 91.552 1147.72 92.576 1147.43 93.568 1147.29 94.864 1147.29 96.464L1147.29 104.72C1147.29 105.936 1147.46 106.752 1147.82 107.168 1148.17 107.552 1148.87 107.744 1149.93 107.744L1154.06 107.744C1155.14 107.744 1155.88 107.552 1156.26 107.168 1156.65 106.752 1156.84 105.936 1156.84 104.72L1156.84 93.68C1156.84 92.464 1156.66 91.616 1156.31 91.136 1155.96 90.656 1155.27 90.272 1154.25 89.984L1153.34 89.696 1153.82 88.4 1162.41 88.4 1162.89 88.976 1162.41 89.696C1161.74 90.56 1161.26 91.488 1160.97 92.48 1160.71 93.472 1160.58 94.8 1160.58 96.464L1160.58 105.008C1160.58 106.16 1160.74 106.912 1161.06 107.264 1161.38 107.584 1162.06 107.744 1163.08 107.744L1167.5 107.744C1168.55 107.744 1169.24 107.552 1169.56 107.168 1169.91 106.752 1170.09 105.936 1170.09 104.72L1170.09 93.68C1170.09 92.464 1169.91 91.616 1169.56 91.136 1169.21 90.656 1168.52 90.272 1167.5 89.984L1166.58 89.696 1167.02 88.4 1175.85 88.4 1176.38 88.976 1175.85 89.696C1175.18 90.56 1174.7 91.488 1174.41 92.48 1174.15 93.472 1174.02 94.8 1174.02 96.464L1174.02 105.008C1174.02 106.16 1174.18 106.96 1174.5 107.408 1174.86 107.824 1175.51 108.176 1176.47 108.464L1177.29 108.704 1176.86 110 1140.42 110 1139.94 108.656ZM1232.77 116.912C1232.16 114.416 1231.42 112.64 1230.56 111.584 1229.73 110.528 1228.45 110 1226.72 110L1196.81 110 1196.33 108.656 1197.25 108.416C1198.27 108.192 1198.94 107.84 1199.26 107.36 1199.58 106.848 1199.74 105.968 1199.74 104.72L1199.74 93.68C1199.74 92.432 1199.58 91.584 1199.26 91.136 1198.94 90.656 1198.27 90.272 1197.25 89.984L1196.33 89.696 1196.81 88.4 1205.55 88.4 1206.03 89.024 1205.55 89.696C1204.88 90.624 1204.4 91.584 1204.11 92.576 1203.82 93.568 1203.68 94.864 1203.68 96.464L1203.68 104.72C1203.68 105.936 1203.85 106.752 1204.21 107.168 1204.56 107.552 1205.26 107.744 1206.32 107.744L1210.45 107.744C1211.53 107.744 1212.27 107.552 1212.65 107.168 1213.04 106.752 1213.23 105.936 1213.23 104.72L1213.23 93.68C1213.23 92.464 1213.05 91.616 1212.7 91.136 1212.35 90.656 1211.66 90.272 1210.64 89.984L1209.73 89.696 1210.21 88.4 1218.8 88.4 1219.28 89.024 1218.8 89.696C1218.13 90.592 1217.65 91.536 1217.36 92.528 1217.1 93.52 1216.97 94.832 1216.97 96.464L1216.97 105.008C1216.97 106.16 1217.13 106.912 1217.45 107.264 1217.77 107.584 1218.45 107.744 1219.47 107.744L1223.89 107.744C1224.94 107.744 1225.63 107.552 1225.95 107.168 1226.3 106.752 1226.48 105.936 1226.48 104.72L1226.48 93.68C1226.48 92.464 1226.3 91.616 1225.95 91.136 1225.6 90.656 1224.91 90.272 1223.89 89.984L1222.97 89.696 1223.41 88.4 1232.24 88.4 1232.77 89.024 1232.24 89.696C1231.57 90.592 1231.09 91.536 1230.8 92.528 1230.54 93.52 1230.41 94.832 1230.41 96.464L1230.41 105.824C1230.41 106.656 1230.78 107.28 1231.52 107.696 1232.25 108.112 1233.2 108.32 1234.35 108.32L1234.35 117.296 1233.01 117.824 1232.77 116.912ZM1255.23 108.656 1256.14 108.368C1257.16 108.08 1257.85 107.696 1258.2 107.216 1258.55 106.736 1258.73 105.904 1258.73 104.72L1258.73 92.576C1258.73 92 1258.63 91.584 1258.44 91.328 1258.25 91.072 1257.9 90.944 1257.39 90.944L1257.24 90.944C1256.25 90.944 1255.48 91.04 1254.94 91.232 1254.43 91.424 1254.01 91.76 1253.69 92.24 1253.4 92.72 1253.13 93.472 1252.87 94.496L1252.59 95.36 1251.24 94.976 1251.24 87.824 1251.91 87.248 1252.59 87.824C1252.97 88.112 1253.53 88.32 1254.27 88.448 1255 88.576 1255.98 88.64 1257.19 88.64L1264.49 88.64 1265.02 89.168 1264.49 89.936C1263.82 90.8 1263.34 91.728 1263.05 92.72 1262.79 93.712 1262.67 95.04 1262.67 96.704L1262.67 101.936C1262.67 103.728 1262.91 105.056 1263.39 105.92 1263.87 106.784 1264.44 107.328 1265.11 107.552 1265.79 107.776 1266.59 107.888 1267.51 107.888 1268.99 107.888 1270.17 107.488 1271.07 106.688 1271.96 105.856 1272.41 104.768 1272.41 103.424 1272.41 102.208 1271.91 101.2 1270.92 100.4 1269.96 99.568 1268.7 99.152 1267.13 99.152 1266.3 99.152 1265.64 99.232 1265.16 99.392 1264.68 99.52 1264.38 99.584 1264.25 99.584 1263.83 99.584 1263.63 99.312 1263.63 98.768 1263.63 98.224 1264.04 97.824 1264.87 97.568 1265.71 97.312 1266.67 97.184 1267.75 97.184 1270.7 97.184 1272.95 97.792 1274.52 99.008 1276.12 100.224 1276.92 101.744 1276.92 103.568 1276.92 105.552 1276.12 107.12 1274.52 108.272 1272.92 109.424 1270.39 110 1266.94 110L1255.75 110 1255.23 108.656ZM1295.15 108.656 1296.06 108.368C1297.05 108.08 1297.71 107.696 1298.03 107.216 1298.38 106.736 1298.56 105.904 1298.56 104.72L1298.56 93.68C1298.56 92.496 1298.38 91.664 1298.03 91.184 1297.68 90.672 1297.02 90.272 1296.06 89.984L1295.15 89.696 1295.63 88.4 1304.32 88.4 1304.84 88.976 1304.32 89.696C1303.64 90.592 1303.16 91.536 1302.88 92.528 1302.62 93.52 1302.49 94.832 1302.49 96.464L1302.49 101.936C1302.49 103.696 1302.75 105.024 1303.26 105.92 1303.77 106.784 1304.36 107.328 1305.04 107.552 1305.74 107.776 1306.56 107.888 1307.48 107.888 1308.76 107.888 1309.82 107.472 1310.65 106.64 1311.48 105.808 1311.9 104.736 1311.9 103.424 1311.9 102.24 1311.44 101.232 1310.51 100.4 1309.58 99.568 1308.4 99.152 1306.96 99.152 1306.12 99.152 1305.45 99.232 1304.94 99.392 1304.46 99.52 1304.16 99.584 1304.03 99.584 1303.9 99.584 1303.79 99.504 1303.69 99.344 1303.6 99.152 1303.55 98.96 1303.55 98.768 1303.55 98.224 1303.96 97.824 1304.8 97.568 1305.63 97.312 1306.6 97.184 1307.72 97.184 1309.52 97.184 1311.07 97.472 1312.38 98.048 1313.69 98.624 1314.68 99.408 1315.36 100.4 1316.03 101.36 1316.36 102.416 1316.36 103.568 1316.36 105.552 1315.58 107.12 1314.01 108.272 1312.48 109.424 1310.06 110 1306.76 110L1295.63 110 1295.15 108.656ZM1317.61 108.656 1318.52 108.368C1319.55 108.08 1320.22 107.712 1320.54 107.264 1320.89 106.784 1321.07 105.936 1321.07 104.72L1321.07 93.68C1321.07 92.464 1320.89 91.616 1320.54 91.136 1320.22 90.656 1319.55 90.272 1318.52 89.984L1317.61 89.696 1318.04 88.4 1326.83 88.4 1327.31 88.976 1326.83 89.696C1326.16 90.56 1325.68 91.488 1325.39 92.48 1325.13 93.472 1325 94.8 1325 96.464L1325 105.008C1325 106.16 1325.16 106.96 1325.48 107.408 1325.8 107.824 1326.44 108.176 1327.4 108.464L1328.22 108.704 1327.84 110 1318.04 110 1317.61 108.656ZM1347.08 108.656 1348 108.368C1348.99 108.08 1349.64 107.696 1349.96 107.216 1350.32 106.736 1350.49 105.904 1350.49 104.72L1350.49 93.68C1350.49 92.496 1350.32 91.664 1349.96 91.184 1349.61 90.672 1348.96 90.272 1348 89.984L1347.08 89.696 1347.56 88.4 1356.25 88.4 1356.78 88.976 1356.25 89.696C1355.58 90.592 1355.1 91.536 1354.81 92.528 1354.56 93.52 1354.43 94.832 1354.43 96.464L1354.43 101.936C1354.43 103.696 1354.67 105.024 1355.15 105.92 1355.66 106.784 1356.25 107.328 1356.92 107.552 1357.63 107.776 1358.46 107.888 1359.42 107.888 1360.86 107.888 1362.01 107.488 1362.88 106.688 1363.77 105.856 1364.22 104.768 1364.22 103.424 1364.22 102.208 1363.72 101.2 1362.73 100.4 1361.74 99.568 1360.46 99.152 1358.89 99.152 1358.06 99.152 1357.39 99.232 1356.88 99.392 1356.4 99.52 1356.09 99.584 1355.96 99.584 1355.84 99.584 1355.72 99.504 1355.63 99.344 1355.53 99.152 1355.48 98.96 1355.48 98.768 1355.48 98.224 1355.9 97.824 1356.73 97.568 1357.56 97.312 1358.54 97.184 1359.66 97.184 1362.57 97.184 1364.81 97.792 1366.38 99.008 1367.98 100.224 1368.78 101.744 1368.78 103.568 1368.78 105.552 1367.96 107.12 1366.33 108.272 1364.73 109.424 1362.19 110 1358.7 110L1347.56 110 1347.08 108.656ZM1395.38 110.624C1393.07 110.624 1391.1 110.144 1389.47 109.184 1387.87 108.224 1387.07 106.88 1387.07 105.152 1387.07 104.256 1387.38 103.52 1387.98 102.944 1388.59 102.336 1389.36 102.032 1390.29 102.032 1390.9 102.032 1391.2 102.192 1391.2 102.512 1391.2 102.64 1391.14 102.928 1391.01 103.376 1390.88 103.824 1390.82 104.368 1390.82 105.008 1390.82 106.032 1391.22 106.832 1392.02 107.408 1392.85 107.984 1393.87 108.272 1395.09 108.272 1396.94 108.272 1398.45 107.552 1399.6 106.112 1400.75 104.64 1401.41 102.656 1401.57 100.16L1392.35 100.16C1392.35 98.944 1392.66 98.128 1393.26 97.712L1401.57 97.712C1401.34 95.408 1400.66 93.584 1399.5 92.24 1398.38 90.864 1396.96 90.176 1395.23 90.176 1392.32 90.176 1390.43 91.664 1389.57 94.64L1389.33 95.504 1387.89 95.072 1387.89 87.968 1388.61 87.392 1389.33 87.968C1389.74 88.256 1390.26 88.4 1390.86 88.4 1391.06 88.4 1391.54 88.336 1392.3 88.208 1393.58 87.984 1394.58 87.872 1395.28 87.872 1397.46 87.872 1399.36 88.336 1400.99 89.264 1402.62 90.192 1403.87 91.52 1404.74 93.248 1405.63 94.944 1406.08 96.944 1406.08 99.248 1406.08 101.392 1405.62 103.328 1404.69 105.056 1403.79 106.784 1402.53 108.144 1400.9 109.136 1399.26 110.128 1397.42 110.624 1395.38 110.624ZM1447.32 110.624C1444.31 110.624 1441.91 109.712 1440.12 107.888 1438.36 106.032 1437.4 103.536 1437.24 100.4L1431.91 100.4 1431.91 105.008C1431.91 106.16 1432.07 106.96 1432.39 107.408 1432.75 107.824 1433.4 108.176 1434.36 108.464L1435.23 108.704 1434.79 110 1425.05 110 1424.57 108.656 1425.48 108.368C1426.47 108.08 1427.13 107.712 1427.45 107.264 1427.8 106.784 1427.98 105.936 1427.98 104.72L1427.98 93.68C1427.98 92.464 1427.8 91.616 1427.45 91.136 1427.13 90.656 1426.47 90.272 1425.48 89.984L1424.57 89.696 1425.05 88.4 1433.69 88.4 1434.22 88.976 1433.69 89.696C1433.05 90.56 1432.59 91.504 1432.3 92.528 1432.04 93.52 1431.91 94.832 1431.91 96.464L1431.91 97.856 1437.24 97.856C1437.43 94.752 1438.41 92.32 1440.17 90.56 1441.93 88.768 1444.31 87.872 1447.32 87.872 1449.4 87.872 1451.21 88.336 1452.75 89.264 1454.31 90.192 1455.51 91.504 1456.35 93.2 1457.21 94.896 1457.64 96.896 1457.64 99.2 1457.64 101.504 1457.21 103.52 1456.35 105.248 1455.51 106.944 1454.31 108.272 1452.75 109.232 1451.18 110.16 1449.37 110.624 1447.32 110.624ZM1447.18 108.272C1448.3 108.272 1449.31 107.904 1450.2 107.168 1451.13 106.4 1451.85 105.344 1452.36 104 1452.91 102.624 1453.18 101.056 1453.18 99.296 1453.18 97.92 1452.99 96.544 1452.6 95.168 1452.25 93.76 1451.64 92.576 1450.78 91.616 1449.95 90.624 1448.84 90.128 1447.47 90.128 1445.61 90.128 1444.17 90.96 1443.15 92.624 1442.15 94.256 1441.66 96.464 1441.66 99.248 1441.66 102.064 1442.12 104.272 1443.05 105.872 1444.01 107.472 1445.39 108.272 1447.18 108.272ZM1477.37 110.624C1475.99 110.624 1474.76 110.08 1473.67 108.992L1474.35 107.792C1474.86 108.176 1475.39 108.368 1475.93 108.368 1476.25 108.368 1476.52 108.288 1476.75 108.128 1476.97 107.936 1477.21 107.616 1477.47 107.168L1479.87 102.992C1480.6 101.744 1481.39 100.912 1482.22 100.496 1480.46 100.08 1479.08 99.344 1478.09 98.288 1477.13 97.2 1476.65 95.888 1476.65 94.352 1476.65 92.272 1477.48 90.672 1479.15 89.552 1480.84 88.432 1483.45 87.872 1486.97 87.872 1488.83 87.872 1490.75 88.048 1492.73 88.4 1494.75 88.752 1496.33 89.152 1497.48 89.6L1497.05 91.088 1494.7 91.088C1494.38 91.088 1494.14 91.152 1493.98 91.28 1493.85 91.408 1493.79 91.664 1493.79 92.048L1493.79 104.624C1493.79 105.872 1493.95 106.736 1494.27 107.216 1494.62 107.696 1495.31 108.08 1496.33 108.368L1497.29 108.656 1496.86 110 1488.03 110 1487.55 109.376 1488.03 108.656C1488.7 107.824 1489.16 106.912 1489.42 105.92 1489.71 104.928 1489.85 103.6 1489.85 101.936L1489.85 91.952C1489.85 90.736 1488.76 90.128 1486.59 90.128 1484.67 90.128 1483.23 90.528 1482.27 91.328 1481.31 92.128 1480.83 93.232 1480.83 94.64 1480.83 95.952 1481.23 96.992 1482.03 97.76 1482.86 98.528 1483.99 98.912 1485.43 98.912 1486.04 98.912 1486.51 98.864 1486.83 98.768 1487.15 98.64 1487.35 98.576 1487.45 98.576 1487.83 98.576 1488.03 98.816 1488.03 99.296 1488.03 99.648 1487.82 99.952 1487.4 100.208 1487.02 100.464 1486.49 100.624 1485.82 100.688 1485.34 100.976 1484.94 101.44 1484.62 102.08L1481.55 107.552C1480.94 108.736 1480.35 109.552 1479.77 110 1479.23 110.416 1478.43 110.624 1477.37 110.624Z" fill="#000000"/><path d="M31.928 234.624C30.552 234.624 29.32 234.08 28.232 232.992L28.904 231.792C29.416 232.176 29.944 232.368 30.488 232.368 30.808 232.368 31.08 232.288 31.304 232.128 31.528 231.936 31.768 231.616 32.024 231.168L34.424 226.992C35.16 225.744 35.944 224.912 36.776 224.496 35.016 224.08 33.64 223.344 32.648 222.288 31.688 221.2 31.208 219.888 31.208 218.352 31.208 216.272 32.04 214.672 33.704 213.552 35.4 212.432 38.008 211.872 41.528 211.872 43.384 211.872 45.304 212.048 47.288 212.4 49.304 212.752 50.888 213.152 52.04 213.6L51.608 215.088 49.256 215.088C48.936 215.088 48.696 215.152 48.536 215.28 48.408 215.408 48.344 215.664 48.344 216.048L48.344 228.624C48.344 229.872 48.504 230.736 48.824 231.216 49.176 231.696 49.864 232.08 50.888 232.368L51.848 232.656 51.416 234 42.584 234 42.104 233.376 42.584 232.656C43.256 231.824 43.72 230.912 43.976 229.92 44.264 228.928 44.408 227.6 44.408 225.936L44.408 215.952C44.408 214.736 43.32 214.128 41.144 214.128 39.224 214.128 37.784 214.528 36.824 215.328 35.864 216.128 35.384 217.232 35.384 218.64 35.384 219.952 35.784 220.992 36.584 221.76 37.416 222.528 38.552 222.912 39.992 222.912 40.6 222.912 41.064 222.864 41.384 222.768 41.704 222.64 41.912 222.576 42.008 222.576 42.392 222.576 42.584 222.816 42.584 223.296 42.584 223.648 42.376 223.952 41.96 224.208 41.576 224.464 41.048 224.624 40.376 224.688 39.896 224.976 39.496 225.44 39.176 226.08L36.104 231.552C35.496 232.736 34.904 233.552 34.328 234 33.784 234.416 32.984 234.624 31.928 234.624ZM93.239 234.624C90.231 234.624 87.831 233.712 86.039 231.888 84.279 230.032 83.319 227.536 83.159 224.4L77.831 224.4 77.831 229.008C77.831 230.16 77.991 230.96 78.311 231.408 78.663 231.824 79.319 232.176 80.279 232.464L81.143 232.704 80.711 234 70.967 234 70.487 232.656 71.399 232.368C72.391 232.08 73.047 231.712 73.367 231.264 73.719 230.784 73.895 229.936 73.895 228.72L73.895 217.68C73.895 216.464 73.719 215.616 73.367 215.136 73.047 214.656 72.391 214.272 71.399 213.984L70.487 213.696 70.967 212.4 79.607 212.4 80.135 212.976 79.607 213.696C78.967 214.56 78.503 215.504 78.215 216.528 77.959 217.52 77.831 218.832 77.831 220.464L77.831 221.856 83.159 221.856C83.351 218.752 84.327 216.32 86.087 214.56 87.847 212.768 90.231 211.872 93.239 211.872 95.319 211.872 97.127 212.336 98.663 213.264 100.231 214.192 101.431 215.504 102.263 217.2 103.127 218.896 103.559 220.896 103.559 223.2 103.559 225.504 103.127 227.52 102.263 229.248 101.431 230.944 100.231 232.272 98.663 233.232 97.095 234.16 95.287 234.624 93.239 234.624ZM93.095 232.272C94.215 232.272 95.223 231.904 96.119 231.168 97.047 230.4 97.767 229.344 98.279 228 98.823 226.624 99.095 225.056 99.095 223.296 99.095 221.92 98.903 220.544 98.519 219.168 98.167 217.76 97.559 216.576 96.695 215.616 95.863 214.624 94.759 214.128 93.383 214.128 91.527 214.128 90.087 214.96 89.063 216.624 88.071 218.256 87.575 220.464 87.575 223.248 87.575 226.064 88.039 228.272 88.967 229.872 89.927 231.472 91.303 232.272 93.095 232.272ZM130.871 234.624C128.567 234.624 126.599 234.144 124.967 233.184 123.367 232.224 122.567 230.88 122.567 229.152 122.567 228.256 122.871 227.52 123.479 226.944 124.087 226.336 124.855 226.032 125.783 226.032 126.391 226.032 126.695 226.192 126.695 226.512 126.695 226.64 126.631 226.928 126.503 227.376 126.375 227.824 126.311 228.368 126.311 229.008 126.311 230.032 126.711 230.832 127.511 231.408 128.343 231.984 129.367 232.272 130.583 232.272 132.439 232.272 133.943 231.552 135.095 230.112 136.247 228.64 136.903 226.656 137.063 224.16L127.847 224.16C127.847 222.944 128.151 222.128 128.759 221.712L137.063 221.712C136.839 219.408 136.151 217.584 134.999 216.24 133.879 214.864 132.455 214.176 130.727 214.176 127.815 214.176 125.927 215.664 125.063 218.64L124.823 219.504 123.383 219.072 123.383 211.968 124.103 211.392 124.823 211.968C125.239 212.256 125.751 212.4 126.359 212.4 126.551 212.4 127.031 212.336 127.799 212.208 129.079 211.984 130.071 211.872 130.775 211.872 132.951 211.872 134.855 212.336 136.487 213.264 138.119 214.192 139.367 215.52 140.231 217.248 141.127 218.944 141.575 220.944 141.575 223.248 141.575 225.392 141.111 227.328 140.183 229.056 139.287 230.784 138.023 232.144 136.391 233.136 134.759 234.128 132.919 234.624 130.871 234.624ZM160.065 232.656 160.977 232.368C161.969 232.08 162.625 231.696 162.945 231.216 163.297 230.736 163.473 229.904 163.473 228.72L163.473 217.68C163.473 216.496 163.297 215.664 162.945 215.184 162.593 214.672 161.937 214.272 160.977 213.984L160.065 213.696 160.545 212.4 169.233 212.4 169.761 212.976 169.233 213.696C168.561 214.592 168.081 215.536 167.793 216.528 167.537 217.52 167.409 218.832 167.409 220.464L167.409 225.936C167.409 227.696 167.649 229.024 168.129 229.92 168.641 230.784 169.233 231.328 169.905 231.552 170.609 231.776 171.441 231.888 172.401 231.888 173.841 231.888 174.993 231.488 175.857 230.688 176.753 229.856 177.201 228.768 177.201 227.424 177.201 226.208 176.705 225.2 175.713 224.4 174.721 223.568 173.441 223.152 171.873 223.152 171.041 223.152 170.369 223.232 169.857 223.392 169.377 223.52 169.073 223.584 168.945 223.584 168.817 223.584 168.705 223.504 168.609 223.344 168.513 223.152 168.465 222.96 168.465 222.768 168.465 222.224 168.881 221.824 169.713 221.568 170.545 221.312 171.521 221.184 172.641 221.184 175.553 221.184 177.793 221.792 179.361 223.008 180.961 224.224 181.761 225.744 181.761 227.568 181.761 229.552 180.945 231.12 179.313 232.272 177.713 233.424 175.169 234 171.681 234L160.545 234 160.065 232.656ZM199.956 232.656 200.868 232.368C201.86 232.08 202.516 231.696 202.836 231.216 203.188 230.736 203.364 229.904 203.364 228.72L203.364 217.68C203.364 216.496 203.188 215.664 202.836 215.184 202.484 214.672 201.828 214.272 200.868 213.984L199.956 213.696 200.436 212.4 209.124 212.4 209.652 212.976 209.124 213.696C208.452 214.592 207.972 215.536 207.684 216.528 207.428 217.52 207.3 218.832 207.3 220.464L207.3 225.936C207.3 227.696 207.556 229.024 208.068 229.92 208.58 230.784 209.172 231.328 209.844 231.552 210.548 231.776 211.364 231.888 212.292 231.888 213.572 231.888 214.628 231.472 215.46 230.64 216.292 229.808 216.708 228.736 216.708 227.424 216.708 226.24 216.244 225.232 215.316 224.4 214.388 223.568 213.204 223.152 211.764 223.152 210.932 223.152 210.26 223.232 209.748 223.392 209.268 223.52 208.964 223.584 208.836 223.584 208.708 223.584 208.596 223.504 208.5 223.344 208.404 223.152 208.356 222.96 208.356 222.768 208.356 222.224 208.772 221.824 209.604 221.568 210.436 221.312 211.412 221.184 212.532 221.184 214.324 221.184 215.876 221.472 217.188 222.048 218.5 222.624 219.492 223.408 220.164 224.4 220.836 225.36 221.172 226.416 221.172 227.568 221.172 229.552 220.388 231.12 218.82 232.272 217.284 233.424 214.868 234 211.572 234L200.436 234 199.956 232.656ZM222.42 232.656 223.332 232.368C224.356 232.08 225.028 231.712 225.348 231.264 225.7 230.784 225.876 229.936 225.876 228.72L225.876 217.68C225.876 216.464 225.7 215.616 225.348 215.136 225.028 214.656 224.356 214.272 223.332 213.984L222.42 213.696 222.852 212.4 231.636 212.4 232.116 212.976 231.636 213.696C230.964 214.56 230.484 215.488 230.196 216.48 229.94 217.472 229.812 218.8 229.812 220.464L229.812 229.008C229.812 230.16 229.972 230.96 230.292 231.408 230.612 231.824 231.252 232.176 232.212 232.464L233.028 232.704 232.644 234 222.852 234 222.42 232.656ZM254.629 232.656 255.541 232.368C256.565 232.08 257.253 231.696 257.605 231.216 257.957 230.736 258.133 229.904 258.133 228.72L258.133 216.576C258.133 216 258.037 215.584 257.845 215.328 257.653 215.072 257.301 214.944 256.789 214.944L256.645 214.944C255.653 214.944 254.885 215.04 254.341 215.232 253.829 215.424 253.413 215.76 253.093 216.24 252.805 216.72 252.533 217.472 252.277 218.496L251.989 219.36 250.645 218.976 250.645 211.824 251.317 211.248 251.989 211.824C252.373 212.112 252.933 212.32 253.669 212.448 254.405 212.576 255.381 212.64 256.597 212.64L263.893 212.64 264.421 213.168 263.893 213.936C263.221 214.8 262.741 215.728 262.453 216.72 262.197 217.712 262.069 219.04 262.069 220.704L262.069 225.936C262.069 227.728 262.309 229.056 262.789 229.92 263.269 230.784 263.845 231.328 264.517 231.552 265.189 231.776 265.989 231.888 266.917 231.888 268.389 231.888 269.573 231.488 270.469 230.688 271.365 229.856 271.813 228.768 271.813 227.424 271.813 226.208 271.317 225.2 270.325 224.4 269.365 223.568 268.101 223.152 266.533 223.152 265.701 223.152 265.045 223.232 264.565 223.392 264.085 223.52 263.781 223.584 263.653 223.584 263.237 223.584 263.029 223.312 263.029 222.768 263.029 222.224 263.445 221.824 264.277 221.568 265.109 221.312 266.069 221.184 267.157 221.184 270.101 221.184 272.357 221.792 273.925 223.008 275.525 224.224 276.325 225.744 276.325 227.568 276.325 229.552 275.525 231.12 273.925 232.272 272.325 233.424 269.797 234 266.341 234L255.157 234 254.629 232.656ZM330.982 240.912C330.374 238.416 329.638 236.64 328.774 235.584 327.942 234.528 326.662 234 324.934 234L295.03 234 294.55 232.656 295.462 232.416C296.486 232.192 297.158 231.84 297.478 231.36 297.798 230.848 297.958 229.968 297.958 228.72L297.958 217.68C297.958 216.432 297.798 215.584 297.478 215.136 297.158 214.656 296.486 214.272 295.462 213.984L294.55 213.696 295.03 212.4 303.766 212.4 304.246 213.024 303.766 213.696C303.094 214.624 302.614 215.584 302.326 216.576 302.038 217.568 301.894 218.864 301.894 220.464L301.894 228.72C301.894 229.936 302.07 230.752 302.422 231.168 302.774 231.552 303.478 231.744 304.534 231.744L308.662 231.744C309.75 231.744 310.486 231.552 310.87 231.168 311.254 230.752 311.446 229.936 311.446 228.72L311.446 217.68C311.446 216.464 311.27 215.616 310.918 215.136 310.566 214.656 309.878 214.272 308.854 213.984L307.942 213.696 308.422 212.4 317.014 212.4 317.494 213.024 317.014 213.696C316.342 214.592 315.862 215.536 315.574 216.528 315.318 217.52 315.19 218.832 315.19 220.464L315.19 229.008C315.19 230.16 315.35 230.912 315.67 231.264 315.99 231.584 316.662 231.744 317.686 231.744L322.102 231.744C323.158 231.744 323.846 231.552 324.166 231.168 324.518 230.752 324.694 229.936 324.694 228.72L324.694 217.68C324.694 216.464 324.518 215.616 324.166 215.136 323.814 214.656 323.126 214.272 322.102 213.984L321.19 213.696 321.622 212.4 330.454 212.4 330.982 213.024 330.454 213.696C329.782 214.592 329.302 215.536 329.014 216.528 328.758 217.52 328.63 218.832 328.63 220.464L328.63 229.824C328.63 230.656 328.998 231.28 329.734 231.696 330.47 232.112 331.414 232.32 332.566 232.32L332.566 241.296 331.222 241.824 330.982 240.912ZM350.706 232.656 351.618 232.368C352.642 232.08 353.314 231.712 353.634 231.264 353.954 230.784 354.114 229.936 354.114 228.72L354.114 217.68C354.114 216.432 353.954 215.584 353.634 215.136 353.314 214.656 352.642 214.272 351.618 213.984L350.706 213.696 351.186 212.4 359.922 212.4 360.402 212.976 359.922 213.696C359.25 214.592 358.77 215.552 358.482 216.576 358.194 217.568 358.05 218.864 358.05 220.464L358.05 228.72C358.05 229.936 358.226 230.752 358.578 231.168 358.93 231.552 359.634 231.744 360.69 231.744L364.818 231.744C365.906 231.744 366.642 231.552 367.026 231.168 367.41 230.752 367.602 229.936 367.602 228.72L367.602 217.68C367.602 216.464 367.426 215.616 367.074 215.136 366.722 214.656 366.034 214.272 365.01 213.984L364.098 213.696 364.578 212.4 373.17 212.4 373.65 212.976 373.17 213.696C372.498 214.56 372.018 215.488 371.73 216.48 371.474 217.472 371.346 218.8 371.346 220.464L371.346 229.008C371.346 230.16 371.506 230.912 371.826 231.264 372.146 231.584 372.818 231.744 373.842 231.744L378.258 231.744C379.314 231.744 380.002 231.552 380.322 231.168 380.674 230.752 380.85 229.936 380.85 228.72L380.85 217.68C380.85 216.464 380.674 215.616 380.322 215.136 379.97 214.656 379.282 214.272 378.258 213.984L377.346 213.696 377.778 212.4 386.61 212.4 387.138 212.976 386.61 213.696C385.938 214.56 385.458 215.488 385.17 216.48 384.914 217.472 384.786 218.8 384.786 220.464L384.786 229.008C384.786 230.16 384.946 230.96 385.266 231.408 385.618 231.824 386.274 232.176 387.234 232.464L388.05 232.704 387.618 234 351.186 234 350.706 232.656ZM417.224 232.608 418.088 232.368C419.112 232.144 419.784 231.776 420.104 231.264 420.456 230.752 420.632 229.872 420.632 228.624L420.632 224.736C419.768 225.408 418.824 225.936 417.8 226.32 416.776 226.704 415.576 226.896 414.2 226.896 409.752 226.896 407.528 224.752 407.528 220.464L407.528 219.312C407.528 217.904 407.496 216.912 407.432 216.336 407.4 215.728 407.304 215.264 407.144 214.944 407.016 214.624 406.76 214.192 406.376 213.648L405.848 213.024 406.328 212.352 411.56 211.824 411.56 219.84C411.56 221.312 411.912 222.352 412.616 222.96 413.32 223.568 414.344 223.872 415.688 223.872 417.64 223.872 419.288 223.296 420.632 222.144L420.632 217.68C420.632 216.464 420.456 215.632 420.104 215.184 419.784 214.704 419.112 214.304 418.088 213.984L417.224 213.696 417.704 212.4 426.392 212.4 426.92 213.024 426.392 213.696C425.72 214.592 425.256 215.536 425 216.528 424.744 217.52 424.616 218.832 424.616 220.464L424.616 229.008C424.616 230.128 424.776 230.912 425.096 231.36 425.416 231.808 426.072 232.176 427.064 232.464L427.928 232.656 427.496 234 417.704 234 417.224 232.608ZM470.891 240.912C470.315 238.416 469.595 236.64 468.731 235.584 467.867 234.528 466.571 234 464.843 234L447.467 234 446.987 232.656 447.899 232.416C448.891 232.192 449.547 231.824 449.867 231.312 450.219 230.8 450.395 229.936 450.395 228.72L450.395 217.68C450.395 216.464 450.219 215.616 449.867 215.136 449.547 214.656 448.891 214.272 447.899 213.984L446.987 213.696 447.467 212.4 456.107 212.4 456.635 213.024 456.107 213.696C455.435 214.592 454.971 215.536 454.715 216.528 454.459 217.52 454.331 218.832 454.331 220.464L454.331 228.72C454.331 229.936 454.491 230.752 454.811 231.168 455.163 231.552 455.867 231.744 456.923 231.744L462.011 231.744C463.067 231.744 463.771 231.552 464.123 231.168 464.475 230.752 464.651 229.936 464.651 228.72L464.651 217.68C464.651 216.464 464.475 215.616 464.123 215.136 463.771 214.656 463.067 214.272 462.011 213.984L461.099 213.696 461.675 212.4 470.315 212.4 470.843 213.024 470.315 213.696C469.643 214.592 469.179 215.536 468.923 216.528 468.667 217.52 468.539 218.832 468.539 220.464L468.539 229.776C468.539 230.608 468.907 231.248 469.643 231.696 470.379 232.112 471.323 232.32 472.475 232.32L472.475 241.296 471.083 241.824 470.891 240.912ZM507.621 234.624C505.637 234.624 504.101 233.6 503.013 231.552L499.461 225.552C496.869 228.464 495.573 230.352 495.573 231.216 495.573 231.504 495.637 231.76 495.765 231.984 495.925 232.176 496.149 232.4 496.437 232.656L497.253 233.328 496.773 234 490.005 234 489.477 233.088C492.837 229.792 495.861 226.736 498.549 223.92L493.749 215.76C493.493 215.312 493.221 215.008 492.933 214.848 492.645 214.656 492.309 214.56 491.925 214.56 491.605 214.56 491.061 214.736 490.293 215.088L489.333 213.84C490.549 212.528 491.893 211.872 493.365 211.872 495.381 211.872 496.917 212.864 497.973 214.848L501.477 220.8C504.037 217.856 505.317 215.952 505.317 215.088 505.317 214.832 505.253 214.608 505.125 214.416 504.997 214.224 504.789 213.984 504.501 213.696L503.541 213.024 504.117 212.4 510.933 212.4 511.365 213.264 510.213 214.416C507.237 217.328 504.629 220 502.389 222.432L507.237 230.64C507.493 231.12 507.749 231.44 508.005 231.6 508.293 231.76 508.645 231.84 509.061 231.84 509.573 231.84 510.101 231.664 510.645 231.312L511.653 232.608C510.949 233.312 510.277 233.824 509.637 234.144 509.029 234.464 508.357 234.624 507.621 234.624ZM541.633 244.944 542.161 244.224C542.673 243.456 543.025 242.656 543.217 241.824 543.441 241.024 543.553 239.952 543.553 238.608L543.553 216.24C542.305 215.216 540.929 214.704 539.425 214.704 537.665 214.704 536.225 215.536 535.105 217.2 533.985 218.832 533.425 221.152 533.425 224.16 533.425 225.824 533.665 227.28 534.145 228.528 534.625 229.744 535.249 230.672 536.017 231.312 536.785 231.952 537.617 232.272 538.513 232.272 539.537 232.272 540.321 232.16 540.865 231.936 541.409 231.68 541.729 231.552 541.825 231.552 542.017 231.552 542.145 231.648 542.209 231.84 542.273 232.032 542.305 232.304 542.305 232.656 542.305 233.04 542.193 233.296 541.969 233.424 540.625 234.224 539.089 234.624 537.361 234.624 534.737 234.624 532.657 233.616 531.121 231.6 529.585 229.552 528.817 226.768 528.817 223.248 528.817 219.632 529.665 216.832 531.361 214.848 533.057 212.864 535.265 211.872 537.985 211.872 540.065 211.872 541.921 212.72 543.553 214.416L543.553 205.056C543.553 204.608 543.489 204.288 543.361 204.096 543.233 203.872 542.993 203.728 542.641 203.664L540.337 203.184 540.337 201.744C540.849 201.328 541.745 200.928 543.025 200.544 544.337 200.16 545.473 199.968 546.433 199.968 547.105 199.968 547.441 200.64 547.441 201.984L547.441 214.416C549.073 212.72 550.945 211.872 553.057 211.872 554.817 211.872 556.385 212.32 557.761 213.216 559.169 214.08 560.257 215.376 561.025 217.104 561.825 218.8 562.225 220.848 562.225 223.248 562.225 226.768 561.457 229.552 559.921 231.6 558.385 233.616 556.305 234.624 553.681 234.624 551.857 234.624 550.321 234.224 549.073 233.424 548.785 233.264 548.641 233.008 548.641 232.656 548.641 231.92 548.833 231.552 549.217 231.552 549.313 231.552 549.617 231.68 550.129 231.936 550.673 232.16 551.441 232.272 552.433 232.272 553.329 232.272 554.161 231.952 554.929 231.312 555.729 230.672 556.369 229.744 556.849 228.528 557.329 227.28 557.569 225.824 557.569 224.16 557.569 221.184 557.009 218.864 555.889 217.2 554.769 215.536 553.345 214.704 551.617 214.704 550.081 214.704 548.689 215.216 547.441 216.24L547.441 240.768C547.441 241.888 547.569 242.672 547.825 243.12 548.081 243.568 548.561 243.872 549.265 244.032L550.225 244.224 549.745 245.52 542.161 245.52 541.633 244.944ZM591.188 246.144C589.588 246.144 588.212 245.84 587.06 245.232 585.94 244.656 585.092 243.888 584.516 242.928 583.972 241.968 583.7 240.96 583.7 239.904 583.7 238.432 584.196 237.184 585.188 236.16 586.18 235.136 587.54 234.624 589.268 234.624 589.524 234.624 589.716 234.656 589.844 234.72 589.972 234.816 590.036 234.928 590.036 235.056 590.036 235.184 589.828 235.456 589.412 235.872 589.028 236.32 588.676 236.848 588.356 237.456 588.068 238.064 587.924 238.832 587.924 239.76 587.924 240.912 588.26 241.872 588.932 242.64 589.636 243.44 590.564 243.84 591.716 243.84 593.508 243.84 594.836 243.088 595.7 241.584 596.564 240.112 596.996 238.128 596.996 235.632L596.996 229.2C596.292 230.48 595.268 231.488 593.924 232.224 592.612 232.96 591.14 233.328 589.508 233.328 587.46 233.328 585.86 232.704 584.708 231.456 583.588 230.176 583.028 228.4 583.028 226.128L583.028 216.528C583.028 216.144 582.964 215.872 582.836 215.712 582.708 215.552 582.484 215.472 582.164 215.472L580.196 215.472 579.86 214.416C580.596 213.648 581.492 213.024 582.548 212.544 583.636 212.064 584.628 211.824 585.524 211.824 585.94 211.824 586.276 211.952 586.532 212.208 586.82 212.432 586.964 212.736 586.964 213.12L586.964 225.12C586.964 226.848 587.316 228.16 588.02 229.056 588.724 229.952 589.732 230.4 591.044 230.4 592.996 230.4 594.516 229.68 595.604 228.24 596.692 226.8 597.236 224.768 597.236 222.144 597.236 219.744 597.14 217.968 596.948 216.816 596.756 215.664 596.276 214.608 595.508 213.648L595.028 212.976 595.508 212.352 600.836 211.824 600.836 234.96C600.836 238.512 599.972 241.264 598.244 243.216 596.516 245.168 594.164 246.144 591.188 246.144ZM631.396 233.328 631.924 232.656C632.596 231.792 633.06 230.864 633.316 229.872 633.572 228.88 633.7 227.568 633.7 225.936L633.7 217.92C633.7 216.704 633.604 215.904 633.412 215.52 633.252 215.136 632.884 214.944 632.308 214.944L631.876 214.944C630.884 214.944 630.116 215.04 629.572 215.232 629.06 215.424 628.644 215.76 628.324 216.24 628.036 216.72 627.764 217.472 627.508 218.496L627.22 219.36 625.876 218.976 625.876 211.824 626.548 211.248 627.22 211.824C627.604 212.112 628.164 212.32 628.9 212.448 629.636 212.576 630.612 212.64 631.828 212.64L639.556 212.64C640.772 212.64 641.732 212.576 642.436 212.448 643.14 212.32 643.684 212.112 644.068 211.824L644.74 211.248 645.46 211.824 645.46 218.976 644.068 219.36 643.876 218.496C643.588 217.472 643.284 216.72 642.964 216.24 642.676 215.76 642.276 215.424 641.764 215.232 641.252 215.04 640.516 214.944 639.556 214.944L638.98 214.944C638.436 214.944 638.068 215.136 637.876 215.52 637.716 215.904 637.636 216.704 637.636 217.92L637.636 228.72C637.636 229.936 637.796 230.784 638.116 231.264 638.436 231.712 639.108 232.08 640.132 232.368L641.14 232.656 640.612 234 631.924 234 631.396 233.328ZM683.46 234.624C681.444 234.624 679.636 234.128 678.036 233.136 676.436 232.144 675.172 230.784 674.244 229.056 673.348 227.328 672.9 225.392 672.9 223.248 672.9 220.944 673.332 218.944 674.196 217.248 675.06 215.52 676.292 214.192 677.892 213.264 679.492 212.336 681.348 211.872 683.46 211.872 685.7 211.872 687.524 212.416 688.932 213.504 690.372 214.56 691.092 215.936 691.092 217.632 691.092 218.88 690.692 219.904 689.892 220.704 689.092 221.472 688.068 221.856 686.82 221.856 686.532 221.856 686.324 221.824 686.196 221.76 686.068 221.696 686.004 221.584 686.004 221.424 686.004 221.328 686.1 221.12 686.292 220.8 686.516 220.48 686.708 220.096 686.868 219.648 687.028 219.168 687.108 218.56 687.108 217.824 687.108 216.672 686.724 215.776 685.956 215.136 685.22 214.464 684.228 214.128 682.98 214.128 681.316 214.128 679.972 214.944 678.948 216.576 677.956 218.176 677.46 220.304 677.46 222.96 677.46 225.648 678.052 227.776 679.236 229.344 680.452 230.912 682.084 231.696 684.132 231.696 685.188 231.696 686.18 231.52 687.108 231.168 688.036 230.816 688.964 230.256 689.892 229.488 689.956 229.424 690.084 229.392 690.276 229.392 690.532 229.392 690.772 229.536 690.996 229.824 691.252 230.08 691.38 230.352 691.38 230.64 691.38 230.864 691.348 230.976 691.284 230.976 690.26 232.16 689.06 233.072 687.684 233.712 686.34 234.32 684.932 234.624 683.46 234.624ZM714.427 244.944 714.907 244.224C715.451 243.488 715.835 242.704 716.059 241.872 716.283 241.072 716.395 239.984 716.395 238.608L716.395 217.44C716.395 217.024 716.331 216.704 716.203 216.48 716.075 216.256 715.835 216.096 715.483 216L713.227 215.472 713.227 214.128C713.675 213.712 714.539 213.312 715.819 212.928 717.099 212.544 718.219 212.352 719.179 212.352 719.915 212.352 720.283 213.024 720.283 214.368L720.283 214.56C722.139 212.768 724.235 211.872 726.571 211.872 728.331 211.872 729.915 212.32 731.323 213.216 732.731 214.112 733.819 215.36 734.587 216.96 735.387 218.528 735.787 220.336 735.787 222.384 735.787 224.688 735.371 226.784 734.539 228.672 733.707 230.528 732.555 231.984 731.083 233.04 729.643 234.096 728.027 234.624 726.235 234.624 724.507 234.624 723.067 234.224 721.915 233.424 721.627 233.264 721.483 233.008 721.483 232.656 721.483 232.336 721.531 232.08 721.627 231.888 721.755 231.664 721.931 231.552 722.155 231.552 722.251 231.552 722.555 231.68 723.067 231.936 723.611 232.16 724.315 232.272 725.179 232.272 726.971 232.272 728.411 231.424 729.499 229.728 730.619 228.032 731.179 225.856 731.179 223.2 731.179 220.704 730.619 218.672 729.499 217.104 728.411 215.504 726.955 214.704 725.131 214.704 724.171 214.704 723.307 214.832 722.539 215.088 721.771 215.344 721.019 215.776 720.283 216.384L720.283 240.768C720.283 241.888 720.395 242.672 720.619 243.12 720.875 243.568 721.371 243.872 722.107 244.032L722.971 244.224 722.587 245.52 714.907 245.52 714.427 244.944ZM754.682 233.28 755.258 232.512C755.994 231.584 756.49 230.592 756.746 229.536 757.034 228.48 757.178 227.056 757.178 225.264L757.178 221.136C757.178 219.344 757.034 217.92 756.746 216.864 756.458 215.776 755.962 214.784 755.258 213.888L754.682 213.024 755.258 212.4 776.714 212.4 777.29 213.024 776.714 213.888C776.01 214.784 775.514 215.776 775.226 216.864 774.938 217.92 774.794 219.344 774.794 221.136L774.794 228.528C774.794 229.808 774.97 230.704 775.322 231.216 775.674 231.728 776.378 232.112 777.434 232.368L778.346 232.608 777.818 234 767.594 234 767.066 232.512 768.074 232.272C769.194 231.92 769.93 231.504 770.282 231.024 770.666 230.512 770.858 229.584 770.858 228.24L770.858 218.112C770.858 216.768 770.666 215.888 770.282 215.472 769.93 215.024 769.194 214.8 768.074 214.8L763.85 214.8C762.73 214.8 761.994 215.024 761.642 215.472 761.29 215.888 761.114 216.768 761.114 218.112L761.114 228.24C761.114 229.584 761.29 230.512 761.642 231.024 761.994 231.504 762.73 231.92 763.85 232.272L764.906 232.512 764.33 234 755.258 234 754.682 233.28ZM807.849 234.624C804.585 234.624 801.993 233.6 800.073 231.552 798.153 229.472 797.193 226.688 797.193 223.2 797.193 219.712 798.153 216.96 800.073 214.944 801.993 212.896 804.585 211.872 807.849 211.872 809.993 211.872 811.865 212.336 813.465 213.264 815.065 214.192 816.297 215.504 817.161 217.2 818.025 218.896 818.457 220.896 818.457 223.2 818.457 225.504 818.009 227.52 817.113 229.248 816.249 230.976 815.017 232.304 813.417 233.232 811.817 234.16 809.961 234.624 807.849 234.624ZM807.753 232.272C809.577 232.272 811.049 231.456 812.169 229.824 813.321 228.16 813.897 225.984 813.897 223.296 813.897 221.92 813.705 220.544 813.321 219.168 812.937 217.76 812.297 216.576 811.401 215.616 810.537 214.624 809.401 214.128 807.993 214.128 806.105 214.128 804.585 214.96 803.433 216.624 802.313 218.288 801.753 220.496 801.753 223.248 801.753 226 802.281 228.192 803.337 229.824 804.425 231.456 805.897 232.272 807.753 232.272ZM837.323 232.656 838.235 232.368C839.227 232.08 839.883 231.712 840.203 231.264 840.555 230.784 840.731 229.936 840.731 228.72L840.731 217.68C840.731 216.464 840.555 215.616 840.203 215.136 839.883 214.656 839.227 214.272 838.235 213.984L837.323 213.696 837.803 212.4 846.443 212.4 846.971 212.976 846.443 213.696C845.803 214.56 845.339 215.504 845.051 216.528 844.795 217.52 844.667 218.832 844.667 220.464L844.667 221.856 855.131 221.856 855.131 217.68C855.131 216.464 854.955 215.616 854.603 215.136 854.283 214.656 853.611 214.272 852.587 213.984L851.627 213.696 852.155 212.4 860.795 212.4 861.371 212.976 860.795 213.696C860.155 214.56 859.707 215.488 859.451 216.48 859.195 217.472 859.067 218.8 859.067 220.464L859.067 229.008C859.067 230.16 859.227 230.96 859.547 231.408 859.867 231.824 860.507 232.176 861.467 232.464L862.235 232.704 861.851 234 852.155 234 851.627 232.656 852.587 232.368C853.611 232.08 854.283 231.712 854.603 231.264 854.955 230.784 855.131 229.936 855.131 228.72L855.131 224.4 844.667 224.4 844.667 229.008C844.667 230.16 844.827 230.96 845.147 231.408 845.499 231.824 846.155 232.176 847.115 232.464L847.979 232.704 847.547 234 837.803 234 837.323 232.656ZM879.084 232.656 880.092 232.368C881.084 232.08 881.74 231.68 882.06 231.168 882.412 230.656 882.684 229.84 882.876 228.72L884.604 216.912C884.636 216.784 884.652 216.592 884.652 216.336 884.652 215.696 884.444 215.2 884.028 214.848 883.644 214.496 883.036 214.208 882.204 213.984L881.388 213.696 881.772 212.4 889.068 212.4 895.308 225.648 901.644 212.4 907.308 212.4 907.98 212.976 907.404 213.696C906.38 215.072 905.868 216.4 905.868 217.68 905.868 218.064 905.916 218.448 906.012 218.832L907.5 226.224C907.564 226.48 907.628 226.832 907.692 227.28 908.076 228.976 908.412 230.24 908.7 231.072 908.988 231.872 909.5 232.64 910.236 233.376L909.756 234 900.972 234 900.492 232.656 901.356 232.368C902.188 232.144 902.796 231.792 903.18 231.312 903.564 230.832 903.756 230.192 903.756 229.392 903.756 228.976 903.708 228.512 903.612 228L901.884 217.152 895.356 231.12 894.012 231.12 887.436 217.152 885.804 227.616C885.74 228.064 885.708 228.384 885.708 228.576 885.708 229.888 886.188 231.248 887.148 232.656L887.676 233.376 887.1 234 879.612 234 879.084 232.656ZM929.649 234.624C928.497 234.624 927.569 234.272 926.865 233.568 926.161 232.832 925.809 231.872 925.809 230.688 925.809 229.856 926.001 229.2 926.385 228.72 926.769 228.24 927.281 228 927.921 228 928.497 228 928.833 228.448 928.929 229.344 928.993 229.792 929.137 230.192 929.361 230.544 929.617 230.864 929.985 231.024 930.465 231.024 932.865 231.024 934.417 226.448 935.121 217.296L935.169 216.48C935.169 215.616 934.977 215.024 934.593 214.704 934.209 214.384 933.441 214.144 932.289 213.984L931.377 213.696 931.857 212.4 949.185 212.4 949.761 213.024 949.185 213.744C948.513 214.64 948.033 215.584 947.745 216.576 947.489 217.568 947.361 218.864 947.361 220.464L947.361 229.008C947.361 230.128 947.537 230.912 947.889 231.36 948.241 231.808 948.897 232.176 949.857 232.464L950.673 232.656 950.241 234 940.449 234 939.969 232.656 940.881 232.368C941.905 232.08 942.593 231.696 942.945 231.216 943.297 230.736 943.473 229.872 943.473 228.624L943.473 217.728C943.473 216.48 943.297 215.664 942.945 215.28 942.625 214.896 941.937 214.704 940.881 214.704L940.113 214.704C939.281 214.704 938.657 214.816 938.241 215.04 937.857 215.232 937.649 215.648 937.617 216.288 937.201 221.28 936.577 225.12 935.745 227.808 934.945 230.496 934.033 232.304 933.009 233.232 932.017 234.16 930.897 234.624 929.649 234.624ZM969.698 232.656 970.562 232.368C971.586 232.08 972.258 231.712 972.578 231.264 972.93 230.784 973.106 229.936 973.106 228.72L973.106 217.68C973.106 216.464 972.93 215.616 972.578 215.136 972.258 214.656 971.586 214.272 970.562 213.984L969.698 213.696 970.13 212.4 978.77 212.4 979.298 212.976 978.77 213.696C978.13 214.624 977.666 215.584 977.378 216.576 977.122 217.568 976.994 218.864 976.994 220.464L976.994 229.008C976.994 230.16 977.154 230.944 977.474 231.36 977.794 231.776 978.45 232.144 979.442 232.464L980.306 232.704 979.874 234 970.13 234 969.698 232.656ZM989.186 234.624C988.002 234.624 987.01 234.304 986.21 233.664 985.442 233.024 984.658 232.032 983.858 230.688L980.834 225.648C980.61 225.264 980.338 224.96 980.018 224.736 979.698 224.512 979.362 224.336 979.01 224.208 978.69 224.048 978.482 223.936 978.386 223.872 978.258 223.808 978.194 223.632 978.194 223.344 978.194 222.768 978.434 222.48 978.914 222.48L979.73 222.48 983.618 217.728C984.226 217.024 984.53 216.192 984.53 215.232 984.53 214.72 984.418 214.224 984.194 213.744L983.858 213.024 984.578 212.4 991.634 212.4 992.114 213.744 991.25 213.984C990.61 214.176 990.034 214.448 989.522 214.8 989.042 215.12 988.562 215.584 988.082 216.192L982.61 223.008C984.05 223.712 985.106 224.608 985.778 225.696L989.138 231.168C989.394 231.584 989.618 231.888 989.81 232.08 990.034 232.272 990.29 232.368 990.578 232.368 991.154 232.368 991.698 232.176 992.21 231.792L992.882 232.992C991.826 234.08 990.594 234.624 989.186 234.624ZM1015.61 232.656 1016.52 232.368C1017.52 232.08 1018.17 231.712 1018.49 231.264 1018.84 230.784 1019.02 229.936 1019.02 228.72L1019.02 217.68C1019.02 216.464 1018.84 215.616 1018.49 215.136 1018.17 214.656 1017.52 214.272 1016.52 213.984L1015.61 213.696 1016.09 212.4 1024.78 212.4 1025.31 212.976 1024.78 213.696C1024.11 214.624 1023.63 215.584 1023.34 216.576 1023.08 217.536 1022.96 218.832 1022.96 220.464L1022.96 226.56 1033.47 216.672C1033.31 215.808 1033.05 215.2 1032.7 214.848 1032.38 214.496 1031.87 214.208 1031.16 213.984L1030.3 213.696 1030.68 212.4 1039.47 212.4 1039.95 212.976 1039.47 213.696C1038.8 214.624 1038.32 215.584 1038.03 216.576 1037.77 217.536 1037.64 218.832 1037.64 220.464L1037.64 229.008C1037.64 230.16 1037.8 230.944 1038.12 231.36 1038.44 231.776 1039.1 232.144 1040.09 232.464L1040.91 232.704 1040.52 234 1030.68 234 1030.3 232.656 1031.16 232.368C1032.19 232.08 1032.86 231.712 1033.18 231.264 1033.53 230.784 1033.71 229.936 1033.71 228.72L1033.71 219.936 1023.2 229.824C1023.32 230.72 1023.55 231.344 1023.87 231.696 1024.22 232.016 1024.75 232.272 1025.45 232.464L1026.32 232.704 1025.88 234 1016.09 234 1015.61 232.656ZM1028.19 209.184C1026.11 209.184 1024.46 208.848 1023.24 208.176 1022.06 207.472 1021.47 206.464 1021.47 205.152 1021.47 204.224 1021.77 203.488 1022.38 202.944 1022.99 202.368 1023.72 202.08 1024.59 202.08 1024.81 202.08 1025 202.144 1025.16 202.272 1025.32 202.4 1025.4 202.544 1025.4 202.704 1025.4 202.8 1025.29 203.04 1025.07 203.424 1024.84 203.808 1024.73 204.336 1024.73 205.008 1024.73 206.576 1025.88 207.36 1028.19 207.36 1029.44 207.36 1030.35 207.152 1030.92 206.736 1031.5 206.32 1031.79 205.76 1031.79 205.056 1031.79 204.384 1031.68 203.856 1031.45 203.472 1031.26 203.056 1031.16 202.8 1031.16 202.704 1031.16 202.512 1031.23 202.368 1031.36 202.272 1031.52 202.144 1031.74 202.08 1032.03 202.08 1032.83 202.08 1033.52 202.368 1034.09 202.944 1034.7 203.488 1035 204.224 1035 205.152 1035 206.464 1034.4 207.472 1033.18 208.176 1031.96 208.848 1030.3 209.184 1028.19 209.184ZM1059.96 232.656 1060.87 232.368C1061.86 232.08 1062.52 231.712 1062.84 231.264 1063.19 230.784 1063.36 229.936 1063.36 228.72L1063.36 217.68C1063.36 216.464 1063.19 215.616 1062.84 215.136 1062.52 214.656 1061.86 214.272 1060.87 213.984L1059.96 213.696 1060.44 212.4 1069.12 212.4 1069.65 212.976 1069.12 213.696C1068.45 214.624 1067.97 215.584 1067.68 216.576 1067.43 217.536 1067.3 218.832 1067.3 220.464L1067.3 226.56 1077.81 216.672C1077.65 215.808 1077.4 215.2 1077.04 214.848 1076.72 214.496 1076.21 214.208 1075.51 213.984L1074.64 213.696 1075.03 212.4 1083.81 212.4 1084.29 212.976 1083.81 213.696C1083.14 214.624 1082.66 215.584 1082.37 216.576 1082.12 217.536 1081.99 218.832 1081.99 220.464L1081.99 229.008C1081.99 230.16 1082.15 230.944 1082.47 231.36 1082.79 231.776 1083.44 232.144 1084.44 232.464L1085.25 232.704 1084.87 234 1075.03 234 1074.64 232.656 1075.51 232.368C1076.53 232.08 1077.2 231.712 1077.52 231.264 1077.88 230.784 1078.05 229.936 1078.05 228.72L1078.05 219.936 1067.54 229.824C1067.67 230.72 1067.89 231.344 1068.21 231.696 1068.56 232.016 1069.09 232.272 1069.8 232.464L1070.66 232.704 1070.23 234 1060.44 234 1059.96 232.656ZM1112.94 234.624C1110.6 234.624 1108.62 234.144 1106.99 233.184 1105.39 232.224 1104.59 230.88 1104.59 229.152 1104.59 228.256 1104.89 227.52 1105.5 226.944 1106.11 226.336 1106.88 226.032 1107.8 226.032 1108.06 226.032 1108.28 226.08 1108.48 226.176 1108.67 226.24 1108.76 226.352 1108.76 226.512 1108.76 226.64 1108.68 226.928 1108.52 227.376 1108.4 227.824 1108.33 228.368 1108.33 229.008 1108.33 230.032 1108.75 230.832 1109.58 231.408 1110.41 231.984 1111.53 232.272 1112.94 232.272 1114.64 232.272 1115.9 231.92 1116.73 231.216 1117.6 230.48 1118.03 229.312 1118.03 227.712 1118.03 226.4 1117.5 225.392 1116.44 224.688 1115.42 223.952 1114.03 223.552 1112.27 223.488L1111.84 223.488C1111.23 223.488 1110.92 223.248 1110.92 222.768 1110.92 222.416 1111.08 222.16 1111.4 222 1111.76 221.84 1112.35 221.68 1113.18 221.52 1114.84 221.264 1116 220.816 1116.64 220.176 1117.28 219.504 1117.6 218.592 1117.6 217.44 1117.6 216.512 1117.21 215.744 1116.44 215.136 1115.68 214.496 1114.57 214.176 1113.13 214.176 1110.22 214.176 1108.32 215.664 1107.42 218.64L1107.18 219.504 1105.88 219.072 1105.88 211.968 1106.46 211.392 1107.18 211.968C1107.6 212.256 1108.11 212.4 1108.72 212.4 1108.94 212.4 1109.44 212.336 1110.2 212.208 1111.48 211.984 1112.48 211.872 1113.18 211.872 1115.96 211.872 1118.03 212.336 1119.37 213.264 1120.72 214.16 1121.39 215.44 1121.39 217.104 1121.39 219.728 1119.93 221.472 1117.02 222.336 1118.81 222.848 1120.12 223.632 1120.96 224.688 1121.82 225.712 1122.25 226.848 1122.25 228.096 1122.25 229.216 1121.9 230.272 1121.2 231.264 1120.49 232.256 1119.44 233.072 1118.03 233.712 1116.62 234.32 1114.92 234.624 1112.94 234.624ZM1145.04 234.624C1143.73 234.624 1142.51 234.08 1141.39 232.992L1142.01 231.792C1142.53 232.176 1143.05 232.368 1143.6 232.368 1143.92 232.368 1144.19 232.272 1144.41 232.08 1144.67 231.856 1144.91 231.552 1145.13 231.168L1148.01 225.696C1148.65 224.576 1149.58 223.696 1150.8 223.056L1146.14 216.192C1145.73 215.552 1145.28 215.072 1144.8 214.752 1144.32 214.4 1143.74 214.144 1143.07 213.984L1142.16 213.744 1142.59 212.4 1149.65 212.4 1150.37 213.024 1150.03 213.744C1149.97 213.904 1149.87 214.176 1149.74 214.56 1149.61 214.912 1149.55 215.232 1149.55 215.52 1149.55 215.936 1149.6 216.304 1149.69 216.624 1149.79 216.912 1150 217.28 1150.32 217.728L1153.63 222.48 1154.4 222.48C1154.94 222.48 1155.21 222.704 1155.21 223.152 1155.21 223.376 1155.13 223.568 1154.97 223.728 1154.81 223.888 1154.54 224.064 1154.16 224.256 1153.71 224.48 1153.31 224.736 1152.96 225.024 1152.61 225.312 1152.29 225.712 1152 226.224L1150.37 229.44C1149.41 231.424 1148.57 232.784 1147.87 233.52 1147.17 234.256 1146.22 234.624 1145.04 234.624ZM1152.81 232.656 1153.73 232.368C1154.75 232.08 1155.42 231.712 1155.74 231.264 1156.09 230.784 1156.27 229.936 1156.27 228.72L1156.27 217.68C1156.27 216.464 1156.09 215.616 1155.74 215.136 1155.42 214.656 1154.75 214.272 1153.73 213.984L1152.81 213.696 1153.34 212.4 1161.98 212.4 1162.51 212.976 1161.98 213.696C1161.31 214.592 1160.85 215.536 1160.59 216.528 1160.33 217.52 1160.21 218.832 1160.21 220.464L1160.21 229.008C1160.21 230.224 1160.3 231.056 1160.49 231.504 1160.72 231.92 1161.18 232.24 1161.89 232.464L1162.65 232.704 1162.17 234 1153.34 234 1152.81 232.656ZM1171.49 234.624C1170.27 234.624 1169.31 234.256 1168.61 233.52 1167.93 232.784 1167.1 231.424 1166.11 229.44L1164.48 226.224C1164.22 225.712 1163.92 225.328 1163.57 225.072 1163.25 224.784 1162.83 224.496 1162.32 224.208 1161.97 224.048 1161.71 223.888 1161.55 223.728 1161.39 223.568 1161.31 223.376 1161.31 223.152 1161.31 222.992 1161.36 222.848 1161.45 222.72 1161.58 222.56 1161.79 222.48 1162.08 222.48L1162.89 222.48 1166.16 217.728C1166.51 217.28 1166.73 216.896 1166.83 216.576 1166.93 216.256 1166.97 215.904 1166.97 215.52 1166.97 215.168 1166.89 214.816 1166.73 214.464 1166.61 214.08 1166.53 213.84 1166.49 213.744L1166.11 213.024 1166.83 212.4 1173.93 212.4 1174.41 213.744 1173.5 213.984C1172.13 214.336 1171.07 215.072 1170.33 216.192L1165.77 223.056C1166.96 223.664 1167.85 224.544 1168.46 225.696L1171.39 231.168C1171.68 231.616 1171.92 231.936 1172.11 232.128 1172.33 232.288 1172.61 232.368 1172.93 232.368 1173.47 232.368 1173.98 232.176 1174.46 231.792L1175.18 232.992C1174.09 234.08 1172.86 234.624 1171.49 234.624ZM1214.04 234.624C1212.03 234.624 1210.27 234.16 1208.76 233.232 1207.26 232.304 1206.09 231.008 1205.26 229.344 1204.43 227.648 1204.01 225.696 1204.01 223.488 1204.01 221.184 1204.47 219.152 1205.4 217.392 1206.33 215.632 1207.64 214.272 1209.34 213.312 1211.07 212.352 1213.05 211.872 1215.29 211.872 1217.66 211.872 1219.48 212.496 1220.76 213.744 1222.07 214.992 1222.73 216.496 1222.73 218.256 1222.73 219.472 1222.39 220.64 1221.72 221.76 1221.08 222.88 1220.12 223.792 1218.84 224.496 1217.59 225.2 1216.12 225.552 1214.43 225.552 1213.47 225.552 1212.43 225.392 1211.31 225.072 1210.19 224.72 1209.63 224.208 1209.63 223.536 1209.63 223.28 1209.69 223.056 1209.82 222.864 1209.95 222.672 1210.09 222.576 1210.25 222.576 1210.35 222.576 1210.63 222.672 1211.11 222.864 1211.63 223.024 1212.28 223.104 1213.08 223.104 1214.84 223.104 1216.2 222.624 1217.16 221.664 1218.12 220.704 1218.6 219.552 1218.6 218.208 1218.6 217.056 1218.22 216.064 1217.45 215.232 1216.71 214.4 1215.72 213.984 1214.47 213.984 1212.59 213.984 1211.11 214.816 1210.06 216.48 1209.03 218.112 1208.52 220.448 1208.52 223.488 1208.52 226.08 1209.07 228.112 1210.15 229.584 1211.27 231.024 1212.87 231.744 1214.95 231.744 1217.51 231.744 1219.63 230.912 1221.29 229.248 1221.39 229.152 1221.51 229.104 1221.67 229.104 1221.93 229.104 1222.19 229.232 1222.44 229.488 1222.73 229.744 1222.87 230.016 1222.87 230.304 1222.87 230.4 1222.84 230.496 1222.78 230.592 1222.71 230.656 1222.68 230.704 1222.68 230.736 1221.59 232.016 1220.3 232.992 1218.79 233.664 1217.32 234.304 1215.74 234.624 1214.04 234.624ZM1210.35 208.224C1209.83 208.224 1209.26 207.888 1208.62 207.216 1208.01 206.544 1207.71 205.936 1207.71 205.392 1207.71 204.848 1208.01 204.24 1208.62 203.568 1209.26 202.896 1209.83 202.56 1210.35 202.56 1210.89 202.56 1211.48 202.896 1212.12 203.568 1212.79 204.24 1213.13 204.848 1213.13 205.392 1213.13 205.936 1212.79 206.544 1212.12 207.216 1211.48 207.888 1210.89 208.224 1210.35 208.224ZM1218.55 208.224C1218.07 208.224 1217.51 207.888 1216.87 207.216 1216.27 206.544 1215.96 205.936 1215.96 205.392 1215.96 204.848 1216.27 204.24 1216.87 203.568 1217.48 202.896 1218.04 202.56 1218.55 202.56 1219.1 202.56 1219.71 202.896 1220.38 203.568 1221.05 204.24 1221.39 204.848 1221.39 205.392 1221.39 205.936 1221.05 206.544 1220.38 207.216 1219.71 207.888 1219.1 208.224 1218.55 208.224ZM1262.01 234.624C1259.99 234.624 1258.23 234.16 1256.73 233.232 1255.22 232.304 1254.05 231.008 1253.22 229.344 1252.39 227.648 1251.97 225.696 1251.97 223.488 1251.97 221.184 1252.44 219.152 1253.37 217.392 1254.29 215.632 1255.61 214.272 1257.3 213.312 1259.03 212.352 1261.01 211.872 1263.25 211.872 1265.62 211.872 1267.45 212.496 1268.73 213.744 1270.04 214.992 1270.69 216.496 1270.69 218.256 1270.69 219.472 1270.36 220.64 1269.69 221.76 1269.05 222.88 1268.09 223.792 1266.81 224.496 1265.56 225.2 1264.09 225.552 1262.39 225.552 1261.43 225.552 1260.39 225.392 1259.27 225.072 1258.15 224.72 1257.59 224.208 1257.59 223.536 1257.59 223.28 1257.65 223.056 1257.78 222.864 1257.91 222.672 1258.05 222.576 1258.21 222.576 1258.31 222.576 1258.6 222.672 1259.08 222.864 1259.59 223.024 1260.25 223.104 1261.05 223.104 1262.81 223.104 1264.17 222.624 1265.13 221.664 1266.09 220.704 1266.57 219.552 1266.57 218.208 1266.57 217.056 1266.18 216.064 1265.41 215.232 1264.68 214.4 1263.69 213.984 1262.44 213.984 1260.55 213.984 1259.08 214.816 1258.02 216.48 1257 218.112 1256.49 220.448 1256.49 223.488 1256.49 226.08 1257.03 228.112 1258.12 229.584 1259.24 231.024 1260.84 231.744 1262.92 231.744 1265.48 231.744 1267.59 230.912 1269.25 229.248 1269.35 229.152 1269.48 229.104 1269.64 229.104 1269.89 229.104 1270.15 229.232 1270.41 229.488 1270.69 229.744 1270.84 230.016 1270.84 230.304 1270.84 230.4 1270.81 230.496 1270.74 230.592 1270.68 230.656 1270.65 230.704 1270.65 230.736 1269.56 232.016 1268.26 232.992 1266.76 233.664 1265.29 234.304 1263.7 234.624 1262.01 234.624ZM1318.21 240.912C1317.64 238.384 1316.93 236.592 1316.1 235.536 1315.27 234.512 1313.99 234 1312.26 234L1302.52 234C1301.33 234 1300.39 234.24 1299.69 234.72 1298.98 235.2 1298.41 235.904 1297.96 236.832 1297.51 237.792 1297.05 239.152 1296.57 240.912L1296.28 241.776 1294.93 241.248 1294.93 232.32C1296.73 232.128 1298.07 231.52 1298.97 230.496 1299.86 229.472 1300.47 228.176 1300.79 226.608 1301.14 225.008 1301.48 222.624 1301.8 219.456L1302.04 217.296C1302.13 216.816 1302.18 216.416 1302.18 216.096 1302.18 215.392 1301.97 214.912 1301.56 214.656 1301.17 214.4 1300.44 214.176 1299.35 213.984L1298.39 213.696 1298.87 212.4 1317.64 212.4 1318.17 213.024 1317.64 213.696C1316.97 214.56 1316.5 215.488 1316.25 216.48 1316.02 217.44 1315.91 218.768 1315.91 220.464L1315.91 229.776C1315.91 230.608 1316.26 231.248 1316.97 231.696 1317.7 232.112 1318.65 232.32 1319.8 232.32L1319.8 241.296 1318.45 241.824 1318.21 240.912ZM1309.38 231.744C1310.44 231.744 1311.13 231.552 1311.45 231.168 1311.77 230.784 1311.93 229.968 1311.93 228.72L1311.93 217.776C1311.93 216.56 1311.77 215.76 1311.45 215.376 1311.13 214.992 1310.44 214.8 1309.38 214.8L1307.75 214.8C1306.92 214.8 1306.29 214.912 1305.88 215.136 1305.49 215.328 1305.27 215.744 1305.21 216.384 1304.82 219.744 1304.45 222.4 1304.1 224.352 1303.75 226.272 1303.29 227.856 1302.71 229.104 1302.13 230.352 1301.38 231.232 1300.45 231.744L1309.38 231.744ZM1345.94 233.328 1346.42 232.656C1347.1 231.76 1347.56 230.88 1347.82 230.016 1348.1 229.152 1348.25 227.936 1348.25 226.368L1348.25 220.704C1348.25 219.104 1348.1 217.808 1347.82 216.816 1347.56 215.792 1347.1 214.848 1346.42 213.984L1345.94 213.216 1346.42 212.64 1357.08 212.64C1358.3 212.64 1359.26 212.576 1359.96 212.448 1360.7 212.32 1361.27 212.112 1361.69 211.824L1362.36 211.248 1362.98 211.824 1362.98 218.976 1361.69 219.36 1361.35 218.496C1361.13 217.472 1360.86 216.72 1360.54 216.24 1360.25 215.76 1359.83 215.424 1359.29 215.232 1358.78 215.04 1358.02 214.944 1357.03 214.944L1354.73 214.944C1353.67 214.944 1352.97 215.136 1352.62 215.52 1352.3 215.872 1352.14 216.672 1352.14 217.92L1352.14 228.72C1352.14 229.936 1352.3 230.784 1352.62 231.264 1352.97 231.712 1353.67 232.08 1354.73 232.368L1355.59 232.656 1355.11 234 1346.42 234 1345.94 233.328ZM1384.19 232.608 1385.1 232.368C1386.12 232.144 1386.79 231.776 1387.11 231.264 1387.47 230.752 1387.64 229.872 1387.64 228.624L1387.64 216.048C1387.64 215.664 1387.58 215.408 1387.45 215.28 1387.32 215.152 1387.11 215.088 1386.83 215.088L1384.47 215.088 1383.99 213.6C1385.18 213.152 1386.76 212.752 1388.75 212.4 1390.73 212.048 1392.65 211.872 1394.51 211.872 1398.03 211.872 1400.63 212.384 1402.33 213.408 1404.06 214.432 1404.92 215.888 1404.92 217.776 1404.92 218.832 1404.65 219.792 1404.11 220.656 1403.56 221.52 1402.81 222.24 1401.85 222.816 1403.29 223.2 1404.39 223.824 1405.16 224.688 1405.96 225.552 1406.36 226.624 1406.36 227.904 1406.36 231.968 1403.07 234 1396.47 234L1384.67 234 1384.19 232.608ZM1396.57 231.84C1398.01 231.84 1399.24 231.504 1400.27 230.832 1401.32 230.128 1401.85 229.088 1401.85 227.712 1401.85 226.56 1401.39 225.68 1400.46 225.072 1399.56 224.432 1398.31 224.08 1396.71 224.016L1396.38 224.016C1395.48 224.016 1394.71 223.888 1394.07 223.632 1393.47 223.376 1393.16 223.056 1393.16 222.672 1393.16 222.128 1393.32 221.856 1393.64 221.856 1393.74 221.856 1393.96 221.92 1394.31 222.048 1394.67 222.144 1395.11 222.192 1395.66 222.192 1397.23 222.192 1398.44 221.84 1399.31 221.136 1400.2 220.432 1400.65 219.44 1400.65 218.16 1400.65 216.88 1400.17 215.888 1399.21 215.184 1398.28 214.48 1396.86 214.128 1394.94 214.128 1393.59 214.128 1392.7 214.304 1392.25 214.656 1391.8 215.008 1391.58 215.44 1391.58 215.952L1391.58 226.704C1391.58 228.848 1392.07 230.24 1393.07 230.88 1394.06 231.52 1395.23 231.84 1396.57 231.84ZM1436.8 234.624C1434.53 234.624 1432.55 234.064 1430.85 232.944 1429.16 231.792 1427.84 230.16 1426.92 228.048 1426.02 225.936 1425.57 223.472 1425.57 220.656 1425.57 217.264 1426 214.176 1426.87 211.392 1427.73 208.608 1429.04 206.4 1430.8 204.768 1432.6 203.136 1434.79 202.32 1437.38 202.32 1437.86 202.32 1438.48 202.352 1439.25 202.416L1440.79 202.464C1441.88 202.464 1442.68 202.304 1443.19 201.984 1443.6 201.696 1443.99 201.216 1444.34 200.544 1444.56 200.032 1444.8 199.776 1445.06 199.776 1445.28 199.776 1445.52 200.08 1445.78 200.688 1446.07 201.264 1446.21 201.824 1446.21 202.368 1446.21 203.68 1445.83 204.656 1445.06 205.296 1444.29 205.936 1443.25 206.256 1441.94 206.256 1440.95 206.256 1439.76 206.112 1438.39 205.824 1436.85 205.568 1435.73 205.44 1435.03 205.44 1434.26 205.44 1433.6 205.52 1433.06 205.68 1431.97 205.968 1431.17 207.088 1430.66 209.04 1430.15 210.992 1429.86 213.52 1429.8 216.624L1430.18 216.624C1430.98 215.28 1431.99 214.256 1433.2 213.552 1434.42 212.848 1435.8 212.496 1437.33 212.496 1439.06 212.496 1440.68 212.912 1442.18 213.744 1443.68 214.544 1444.9 215.744 1445.83 217.344 1446.76 218.944 1447.22 220.88 1447.22 223.152 1447.22 225.328 1446.8 227.296 1445.97 229.056 1445.14 230.784 1443.94 232.144 1442.37 233.136 1440.8 234.128 1438.95 234.624 1436.8 234.624ZM1436.18 232.272C1438.16 232.272 1439.73 231.408 1440.88 229.68 1442.07 227.952 1442.66 225.84 1442.66 223.344 1442.66 221.968 1442.44 220.624 1441.99 219.312 1441.54 218 1440.84 216.912 1439.88 216.048 1438.92 215.184 1437.7 214.752 1436.23 214.752 1434.31 214.752 1432.8 215.504 1431.72 217.008 1430.63 218.48 1430.08 220.56 1430.08 223.248 1430.08 225.872 1430.61 228.032 1431.67 229.728 1432.72 231.424 1434.23 232.272 1436.18 232.272ZM1473.95 234.624C1472.54 234.624 1471.23 234.224 1470.02 233.424 1468.83 232.592 1467.87 231.392 1467.14 229.824 1466.43 228.224 1466.08 226.288 1466.08 224.016 1466.08 220.272 1467.09 217.312 1469.1 215.136 1471.15 212.96 1473.9 211.872 1477.36 211.872 1478.51 211.872 1480.08 212.048 1482.06 212.4 1483.54 212.656 1484.86 212.832 1486.05 212.928L1486.62 213.456 1486 214.272C1485.78 214.656 1485.62 214.96 1485.52 215.184 1485.46 215.376 1485.42 215.648 1485.42 216L1485.42 230.16C1485.42 231.056 1485.89 231.504 1486.82 231.504 1487.52 231.504 1488.24 231.248 1488.98 230.736L1489.79 231.84C1489.02 232.704 1488.21 233.392 1487.34 233.904 1486.48 234.384 1485.7 234.624 1484.99 234.624 1483.78 234.624 1482.9 234.272 1482.35 233.568 1481.81 232.832 1481.54 231.648 1481.54 230.016 1480.38 231.712 1479.18 232.912 1477.94 233.616 1476.72 234.288 1475.39 234.624 1473.95 234.624ZM1475.63 231.216C1478.06 231.216 1480.03 229.904 1481.54 227.28L1481.54 215.52C1480.29 214.688 1478.88 214.272 1477.31 214.272 1475.23 214.272 1473.6 215.056 1472.42 216.624 1471.26 218.16 1470.69 220.352 1470.69 223.2 1470.69 225.952 1471.15 227.984 1472.08 229.296 1473.04 230.576 1474.22 231.216 1475.63 231.216Z" fill="#000000"/></svg>