<svg width="630" height="630" viewBox="0 0 630 630" xmlns="http://www.w3.org/2000/svg" xmlns:xlink="http://www.w3.org/1999/xlink" fill="none" overflow="hidden"><rect x="0.5" y="0.5" rx="22.5" width="629" height="629" stroke="#000000" fill="#FFFCFC"/><path d="M150.928 72.016 153.424 71.44C154.491 71.184 155.259 70.8853 155.728 70.544 156.24 70.2027 156.603 69.7333 156.816 69.136 157.029 68.496 157.136 67.5573 157.136 66.32L157.136 38.288 150.032 42.896C149.179 42.768 148.411 42.32 147.728 41.552 147.045 40.784 146.469 39.9093 146 38.928L162.064 31.44C163.045 31.6533 163.813 32.3787 164.368 33.616L162.896 34.576 162.896 62.352C162.896 64.7413 163.088 66.64 163.472 68.048 163.856 69.456 164.539 70.7787 165.52 72.016L166.16 73.04 165.52 74 151.632 74 150.928 72.016Z" fill="#000000"/><line x1="105.5" y1="2.18557e-08" x2="105.5" y2="629" stroke="#000000"/><line x1="210.5" y1="2.18557e-08" x2="210.5" y2="629" stroke="#000000"/><line x1="0" y1="-0.5" x2="629" y2="-0.5" stroke="#000000" transform="matrix(2.19866e-08 1 1 -8.69024e-08 420 0)"/><line x1="0" y1="-0.5" x2="629" y2="-0.5" stroke="#000000" transform="matrix(2.10257e-08 1 1 -9.08737e-08 315 0)"/><line x1="0" y1="-0.5" x2="629" y2="-0.5" stroke="#000000" transform="matrix(2.10257e-08 1 1 -9.08737e-08 525 0)"/><line x1="0.5" y1="524" x2="629.5" y2="524" stroke="#000000"/><line x1="0.5" y1="419" x2="629.5" y2="419" stroke="#000000"/><line x1="0" y1="-0.5" x2="629" y2="-0.5" stroke="#000000" transform="matrix(1 -1.00617e-08 -7.49775e-08 -1 0.5 209.5)"/><line x1="0" y1="-0.5" x2="629" y2="-0.5" stroke="#000000" transform="matrix(1 -9.10084e-09 -7.89488e-08 -1 0.5 314.5)"/><line x1="0" y1="-0.5" x2="629" y2="-0.5" stroke="#000000" transform="matrix(1 -9.10084e-09 -7.89488e-08 -1 0.5 104.5)"/><path d="M60.344 77.712 43 28.688 47.096 28.688 64.568 77.712 60.344 77.712Z" fill="#000000"/><path d="M245.176 71.056C251.363 65.9787 256.056 61.7547 259.256 58.384 262.456 55.0133 264.632 52.1333 265.784 49.744 266.936 47.3547 267.512 44.9013 267.512 42.384 267.512 39.9947 266.765 38.1387 265.272 36.816 263.779 35.4507 262.008 34.768 259.96 34.768 257.869 34.768 256.056 35.4293 254.52 36.752 252.984 38.032 252.216 39.8453 252.216 42.192 252.216 43.1307 252.344 43.92 252.6 44.56 252.856 45.1573 253.155 45.712 253.496 46.224 253.837 46.736 254.008 47.056 254.008 47.184 254.008 47.5253 253.901 47.7387 253.688 47.824 253.517 47.8667 253.176 47.888 252.664 47.888 250.915 47.888 249.443 47.312 248.248 46.16 247.096 45.008 246.52 43.536 246.52 41.744 246.52 39.568 247.139 37.712 248.376 36.176 249.656 34.64 251.32 33.488 253.368 32.72 255.416 31.952 257.613 31.568 259.96 31.568 264.312 31.568 267.747 32.5067 270.264 34.384 272.824 36.2613 274.104 38.9493 274.104 42.448 274.104 46.2027 272.291 50.1707 268.664 54.352 265.08 58.4907 259.96 63.2907 253.304 68.752L275.192 68.752C275.192 69.776 275.043 70.7787 274.744 71.76 274.445 72.6987 273.955 73.4453 273.272 74L246.712 74 245.176 71.056Z" fill="#000000"/><path d="M368.768 74.832C366.421 74.832 364.224 74.4693 362.176 73.744 360.128 73.0187 358.464 71.952 357.184 70.544 355.947 69.136 355.328 67.4293 355.328 65.424 355.328 63.632 355.904 62.1813 357.056 61.072 358.251 59.92 359.723 59.344 361.472 59.344 361.984 59.344 362.325 59.3867 362.496 59.472 362.667 59.5147 362.752 59.6853 362.752 59.984 362.752 60.112 362.581 60.432 362.24 60.944 361.899 61.456 361.6 62.032 361.344 62.672 361.131 63.2693 361.024 64.016 361.024 64.912 361.024 66.832 361.749 68.3467 363.2 69.456 364.693 70.5653 366.507 71.12 368.64 71.12 370.901 71.12 372.864 70.416 374.528 69.008 376.235 67.6 377.088 65.5733 377.088 62.928 377.088 60.7093 376.363 58.704 374.912 56.912 373.504 55.12 370.901 54.224 367.104 54.224 365.781 54.224 364.715 54.3307 363.904 54.544 363.093 54.7147 362.603 54.8 362.432 54.8 361.835 54.8 361.536 54.48 361.536 53.84 361.536 53.328 361.707 52.944 362.048 52.688 362.432 52.3893 363.349 52.112 364.8 51.856 369.195 51.0453 372.117 49.744 373.568 47.952 375.061 46.1173 375.808 44.112 375.808 41.936 375.808 39.6747 375.083 37.9253 373.632 36.688 372.181 35.408 370.496 34.768 368.576 34.768 366.784 34.768 365.248 35.3013 363.968 36.368 362.731 37.392 362.112 38.8427 362.112 40.72 362.112 41.7013 362.24 42.5333 362.496 43.216 362.795 43.856 363.093 44.432 363.392 44.944 363.691 45.4133 363.84 45.6907 363.84 45.776 363.84 46.2453 363.435 46.48 362.624 46.48 360.832 46.48 359.339 45.904 358.144 44.752 356.992 43.6 356.416 42.128 356.416 40.336 356.416 37.5627 357.611 35.408 360 33.872 362.389 32.336 365.269 31.568 368.64 31.568 370.901 31.568 373.077 31.952 375.168 32.72 377.259 33.488 378.944 34.64 380.224 36.176 381.547 37.6693 382.208 39.4827 382.208 41.616 382.208 44.0907 381.461 46.224 379.968 48.016 378.475 49.7653 376.363 51.152 373.632 52.176 376.789 52.9013 379.2 54.2667 380.864 56.272 382.528 58.2773 383.36 60.624 383.36 63.312 383.36 66.9813 382.037 69.8187 379.392 71.824 376.789 73.8293 373.248 74.832 368.768 74.832Z" fill="#000000"/><path d="M469.256 72.016 471.688 71.44C472.755 71.184 473.523 70.9067 473.992 70.608 474.504 70.2667 474.845 69.776 475.016 69.136 475.229 68.496 475.336 67.5573 475.336 66.32L475.336 64.656 454.792 64.656 468.168 32.4 471.88 32.4 472.968 33.296 460.424 60.88 475.336 60.88 475.336 53.136C475.336 51.8987 475.229 50.9173 475.016 50.192 474.845 49.424 474.504 48.6347 473.992 47.824L474.76 46.864 481.096 46.16 481.096 60.88 486.472 60.88C486.472 62.7147 486.045 63.9733 485.192 64.656L481.16 64.656C481.203 66.2347 481.437 67.6 481.864 68.752 482.291 69.8613 482.909 70.9493 483.72 72.016L484.424 73.04 483.72 74 469.896 74 469.256 72.016Z" fill="#000000"/><path d="M578.768 74.832C576.421 74.832 574.224 74.4693 572.176 73.744 570.128 73.0187 568.464 71.952 567.184 70.544 565.947 69.136 565.328 67.4293 565.328 65.424 565.328 63.632 565.904 62.1813 567.056 61.072 568.251 59.92 569.723 59.344 571.472 59.344 571.984 59.344 572.325 59.3867 572.496 59.472 572.667 59.5147 572.752 59.6853 572.752 59.984 572.752 60.112 572.581 60.432 572.24 60.944 571.899 61.456 571.6 62.032 571.344 62.672 571.131 63.2693 571.024 64.016 571.024 64.912 571.024 66.832 571.749 68.3467 573.2 69.456 574.693 70.5653 576.507 71.12 578.64 71.12 580.048 71.12 581.392 70.8 582.672 70.16 583.995 69.52 585.061 68.5813 585.872 67.344 586.683 66.064 587.088 64.5493 587.088 62.8 587.088 60.2827 586.235 58.0427 584.528 56.08 582.821 54.1173 579.664 53.136 575.056 53.136 573.605 53.136 571.536 53.392 568.848 53.904L567.632 51.664 568.656 32.4 591.248 32.4C591.248 33.424 591.077 34.4267 590.736 35.408 590.437 36.3467 589.968 37.0933 589.328 37.648L572.304 37.648 571.472 50.768C573.819 50.2133 576.229 49.936 578.704 49.936 582.032 49.936 584.784 50.5333 586.96 51.728 589.179 52.9227 590.8 54.5013 591.824 56.464 592.848 58.384 593.36 60.496 593.36 62.8 593.36 66.4693 592.016 69.392 589.328 71.568 586.683 73.744 583.163 74.832 578.768 74.832Z" fill="#000000"/><path d="M165.696 603.832C161.173 603.832 157.504 602.723 154.688 600.504 151.872 598.243 150.464 594.851 150.464 590.328L150.464 569.08C150.464 567.288 150.208 566.051 149.696 565.368 149.227 564.643 148.245 564.088 146.752 563.704L145.344 563.384 146.112 561.4 158.72 561.4 159.488 562.296 158.72 563.384C157.781 564.664 157.12 566.008 156.736 567.416 156.352 568.824 156.16 570.68 156.16 572.984L156.16 590.328C156.16 593.357 157.141 595.747 159.104 597.496 161.067 599.245 163.52 600.12 166.464 600.12 169.365 600.12 171.776 599.245 173.696 597.496 175.616 595.747 176.576 593.357 176.576 590.328L176.576 569.08C176.576 567.288 176.32 566.051 175.808 565.368 175.339 564.643 174.357 564.088 172.864 563.704L171.52 563.384 172.224 561.4 183.232 561.4 184 562.296 183.232 563.384C182.251 564.621 181.568 565.965 181.184 567.416 180.8 568.824 180.608 570.68 180.608 572.984L180.608 590.328C180.608 594.851 179.221 598.243 176.448 600.504 173.717 602.723 170.133 603.832 165.696 603.832Z" fill="#000000"/><path d="M248.504 569.4C247.864 567.608 247.181 566.243 246.456 565.304 245.731 564.365 244.664 563.363 243.256 562.296L244.024 561.4 257.144 561.4 257.72 563.384 256.504 563.704C255.565 563.917 254.883 564.237 254.456 564.664 254.029 565.048 253.816 565.581 253.816 566.264 253.816 566.691 253.923 567.224 254.136 567.864 254.349 568.504 254.477 568.909 254.52 569.08L263.864 598.136 272.056 572.92C272.824 570.616 273.208 568.845 273.208 567.608 273.123 565.389 272.227 564.088 270.52 563.704L269.176 563.384 269.88 561.4 280.888 561.4 281.656 562.296 280.76 563.384C279.395 565.048 278.328 566.968 277.56 569.144L266.36 603 259.832 603 248.504 569.4Z" fill="#000000"/><path d="M347.504 569.4C346.864 567.608 346.181 566.243 345.456 565.304 344.731 564.365 343.664 563.363 342.256 562.296L343.024 561.4 356.144 561.4 356.72 563.384 355.504 563.704C354.565 563.917 353.883 564.237 353.456 564.664 353.029 565.048 352.816 565.581 352.816 566.264 352.816 566.691 352.923 567.224 353.136 567.864 353.349 568.504 353.477 568.909 353.52 569.08L362.864 598.136 371.504 571.192 370.992 569.4C370.437 567.651 369.776 566.307 369.008 565.368 368.283 564.429 367.195 563.405 365.744 562.296L366.576 561.4 379.568 561.4 380.272 563.384 378.864 563.704C377.968 563.875 377.307 564.173 376.88 564.6 376.496 564.984 376.304 565.539 376.304 566.264 376.304 566.776 376.517 567.715 376.944 569.08L386.416 598.136 394.48 572.92C395.291 570.701 395.696 568.931 395.696 567.608 395.611 565.389 394.715 564.088 393.008 563.704L391.728 563.384 392.368 561.4 403.44 561.4 404.208 562.296 403.312 563.384C401.861 565.133 400.773 567.053 400.048 569.144L388.912 603 382.32 603 373.808 577.72 365.36 603 358.832 603 347.504 569.4Z" fill="#000000"/><path d="M453.64 601.016 454.92 600.696C455.901 600.44 456.733 600.099 457.416 599.672 458.141 599.203 458.824 598.499 459.464 597.56L469.832 582.52 459.848 568.504C458.141 565.901 456.413 563.832 454.664 562.296L455.368 561.4 469.192 561.4 469.832 563.384 468.424 563.704C466.973 564.045 466.248 564.877 466.248 566.2 466.248 566.755 466.376 567.352 466.632 567.992 466.888 568.589 467.187 569.144 467.528 569.656L473.48 578.104 479.368 569.272C479.923 568.461 480.285 567.843 480.456 567.416 480.627 566.947 480.712 566.456 480.712 565.944 480.712 565.347 480.435 564.493 479.88 563.384L479.304 562.296 480.52 561.4 491.144 561.4 491.848 563.384 490.504 563.704C489.565 563.917 488.733 564.259 488.008 564.728 487.325 565.197 486.685 565.901 486.088 566.84L475.784 581.432 486.344 596.344C487.155 597.581 487.923 598.627 488.648 599.48 489.416 600.333 490.333 601.187 491.4 602.04L490.568 603 476.808 603 476.104 601.016 477.512 600.696C479.005 600.312 479.752 599.459 479.752 598.136 479.752 597.283 479.304 596.152 478.408 594.744L472.136 585.912 466.056 595.128C465.544 595.939 465.203 596.579 465.032 597.048 464.861 597.475 464.776 597.944 464.776 598.456 464.776 598.968 465.011 599.821 465.48 601.016L466.12 602.04 464.904 603 454.28 603 453.64 601.016Z" fill="#000000"/><path d="M573.904 602.04 574.608 601.016C575.589 599.736 576.293 598.392 576.72 596.984 577.147 595.576 577.36 593.699 577.36 591.352L577.36 585.912 568.08 569.656C566.971 567.736 566.011 566.264 565.2 565.24 564.389 564.173 563.408 563.192 562.256 562.296L563.024 561.4 576.144 561.4 576.72 563.384 575.504 563.704C574.565 563.917 573.883 564.237 573.456 564.664 573.029 565.048 572.816 565.581 572.816 566.264 572.816 566.733 573.413 567.928 574.608 569.848L580.944 580.856 587.408 569.144C587.877 568.205 588.112 567.416 588.112 566.776 588.112 565.965 587.877 565.304 587.408 564.792 586.939 564.237 586.363 563.875 585.68 563.704L584.464 563.384 585.04 561.4 596.112 561.4 596.816 562.296 595.984 563.384C594.363 565.389 593.019 567.437 591.952 569.528L582.864 585.464 582.864 595.32C582.864 597.069 583.141 598.307 583.696 599.032 584.251 599.757 585.275 600.312 586.768 600.696L587.984 601.016 587.344 603 574.608 603 573.904 602.04Z" fill="#000000"/><path d="M148.304 492.016 149.712 491.696C151.163 491.312 152.123 490.779 152.592 490.096 153.104 489.371 153.36 488.112 153.36 486.32L153.36 457.648C153.36 457.136 153.253 456.795 153.04 456.624 152.827 456.411 152.507 456.304 152.08 456.304L148.752 456.304 148.048 454.128C149.712 453.488 151.909 452.912 154.64 452.4 157.371 451.845 159.995 451.568 162.512 451.568 168.187 451.568 172.411 452.848 175.184 455.408 177.957 457.968 179.344 461.275 179.344 465.328 179.344 467.845 178.832 470.128 177.808 472.176 176.827 474.224 175.291 475.867 173.2 477.104 171.152 478.299 168.592 478.896 165.52 478.896 164.155 478.896 162.96 478.725 161.936 478.384 160.912 478 160.4 477.488 160.4 476.848 160.4 476.464 160.464 476.144 160.592 475.888 160.763 475.589 160.997 475.44 161.296 475.44 161.424 475.44 161.744 475.525 162.256 475.696 162.768 475.824 163.387 475.888 164.112 475.888 167.013 475.888 169.275 474.949 170.896 473.072 172.56 471.195 173.392 468.699 173.392 465.584 173.392 462.427 172.517 459.845 170.768 457.84 169.061 455.792 166.629 454.768 163.472 454.768 160.571 454.768 159.12 455.685 159.12 457.52L159.12 482.352C159.12 484.741 159.312 486.64 159.696 488.048 160.08 489.413 160.763 490.736 161.744 492.016L162.512 493.04 161.744 494 149.008 494 148.304 492.016Z" fill="#000000"/><path d="M283 506.864C281.037 506.864 279.267 506.181 277.688 504.816 276.152 503.493 274.765 501.424 273.528 498.608L271.224 493.744C269.091 494.469 266.744 494.832 264.184 494.832 260.259 494.832 256.845 493.957 253.944 492.208 251.085 490.459 248.888 487.963 247.352 484.72 245.816 481.477 245.048 477.659 245.048 473.264 245.048 468.827 245.816 464.987 247.352 461.744 248.931 458.459 251.149 455.941 254.008 454.192 256.909 452.443 260.301 451.568 264.184 451.568 268.109 451.568 271.523 452.464 274.424 454.256 277.325 456.005 279.544 458.523 281.08 461.808 282.659 465.051 283.448 468.869 283.448 473.264 283.448 477.232 282.765 480.773 281.4 483.888 280.077 486.96 278.179 489.435 275.704 491.312L278.648 497.776C279.288 499.312 280.099 500.443 281.08 501.168 282.061 501.893 283.256 502.256 284.664 502.256 285.475 502.256 286.179 502.128 286.776 501.872 287.416 501.616 287.779 501.488 287.864 501.488 287.992 501.488 288.12 501.531 288.248 501.616 288.376 501.744 288.44 501.893 288.44 502.064 288.44 503.429 287.907 504.56 286.84 505.456 285.816 506.395 284.536 506.864 283 506.864ZM273.272 486.704C274.509 485.04 275.469 483.077 276.152 480.816 276.835 478.512 277.176 476.059 277.176 473.456 277.176 469.872 276.643 466.672 275.576 463.856 274.509 460.997 273.016 458.779 271.096 457.2 269.176 455.621 267 454.832 264.568 454.832 261.965 454.832 259.661 455.643 257.656 457.264 255.651 458.843 254.093 461.061 252.984 463.92 251.875 466.779 251.32 470.064 251.32 473.776 251.32 479.28 252.472 483.568 254.776 486.64 254.691 486.469 254.648 486.085 254.648 485.488 254.648 483.611 255.288 482.117 256.568 481.008 257.891 479.899 259.683 479.344 261.944 479.344 264.077 479.344 266.104 479.984 268.024 481.264 269.987 482.501 271.736 484.315 273.272 486.704ZM263.928 491.44C265.933 491.44 267.789 490.949 269.496 489.968 268.387 487.664 267.064 485.872 265.528 484.592 263.992 483.269 262.456 482.608 260.92 482.608 259.811 482.608 258.915 482.949 258.232 483.632 257.549 484.315 257.208 485.211 257.208 486.32 257.208 487.856 257.827 489.093 259.064 490.032 260.301 490.971 261.923 491.44 263.928 491.44Z" fill="#000000"/><path d="M382.656 494.832C380.864 494.832 379.371 494.32 378.176 493.296 377.024 492.272 375.851 490.501 374.656 487.984L370.24 478.704C369.899 477.936 369.493 477.381 369.024 477.04 368.555 476.699 367.659 476.315 366.336 475.888 365.611 475.504 365.248 475.013 365.248 474.416 365.248 473.563 365.568 473.136 366.208 473.136 366.379 473.136 366.677 473.2 367.104 473.328 367.531 473.456 368.149 473.52 368.96 473.52 371.819 473.52 374.059 472.709 375.68 471.088 377.344 469.467 378.176 467.269 378.176 464.496 378.176 461.552 377.301 459.205 375.552 457.456 373.803 455.664 371.413 454.768 368.384 454.768 366.933 454.768 365.824 455.003 365.056 455.472 364.288 455.941 363.904 456.624 363.904 457.52L363.904 482.352C363.904 484.699 364.096 486.576 364.48 487.984 364.864 489.349 365.568 490.693 366.592 492.016L367.296 493.04 366.592 494 353.856 494 353.152 492.016 354.496 491.696C355.947 491.312 356.928 490.757 357.44 490.032 357.952 489.307 358.208 488.069 358.208 486.32L358.208 457.648C358.208 457.179 358.101 456.837 357.888 456.624 357.717 456.411 357.397 456.304 356.928 456.304L353.6 456.304 352.896 454.128C354.731 453.403 357.013 452.805 359.744 452.336 362.517 451.824 365.035 451.568 367.296 451.568 372.629 451.568 376.768 452.677 379.712 454.896 382.699 457.115 384.192 460.229 384.192 464.24 384.192 467.269 383.36 469.829 381.696 471.92 380.032 473.968 377.728 475.355 374.784 476.08 375.808 476.805 376.619 477.744 377.216 478.896L382.592 489.904C383.104 491.056 383.851 491.632 384.832 491.632 385.557 491.632 386.283 491.355 387.008 490.8L388.032 492.528C386.283 494.064 384.491 494.832 382.656 494.832Z" fill="#000000"/><path d="M469.96 494.832C467.187 494.832 464.691 494.448 462.472 493.68 460.296 492.869 458.589 491.76 457.352 490.352 456.157 488.901 455.56 487.28 455.56 485.488 455.56 483.525 456.179 481.904 457.416 480.624 458.696 479.344 460.296 478.704 462.216 478.704 462.6 478.704 462.899 478.768 463.112 478.896 463.325 479.024 463.432 479.173 463.432 479.344 463.432 479.472 463.24 479.813 462.856 480.368 462.515 480.923 462.216 481.541 461.96 482.224 461.704 482.907 461.576 483.717 461.576 484.656 461.576 486.704 462.344 488.368 463.88 489.648 465.416 490.928 467.443 491.568 469.96 491.568 472.179 491.568 473.971 490.992 475.336 489.84 476.701 488.645 477.384 487.024 477.384 484.976 477.384 483.312 476.957 481.904 476.104 480.752 475.251 479.6 474.184 478.661 472.904 477.936 471.667 477.168 469.981 476.315 467.848 475.376 465.416 474.309 463.432 473.307 461.896 472.368 460.403 471.429 459.123 470.192 458.056 468.656 457.032 467.12 456.52 465.179 456.52 462.832 456.52 460.869 456.989 459.035 457.928 457.328 458.909 455.579 460.36 454.192 462.28 453.168 464.2 452.101 466.525 451.568 469.256 451.568 471.731 451.568 473.949 451.931 475.912 452.656 477.875 453.381 479.411 454.384 480.52 455.664 481.629 456.944 482.184 458.416 482.184 460.08 482.184 462.043 481.587 463.664 480.392 464.944 479.24 466.181 477.768 466.8 475.976 466.8 475.208 466.8 474.824 466.565 474.824 466.096 474.824 466.011 474.973 465.712 475.272 465.2 475.613 464.645 475.912 464.027 476.168 463.344 476.424 462.619 476.552 461.787 476.552 460.848 476.552 459.099 475.869 457.648 474.504 456.496 473.139 455.344 471.389 454.768 469.256 454.768 466.952 454.768 465.181 455.429 463.944 456.752 462.707 458.032 462.088 459.611 462.088 461.488 462.088 462.939 462.493 464.176 463.304 465.2 464.115 466.224 465.117 467.099 466.312 467.824 467.507 468.507 469.171 469.317 471.304 470.256 473.864 471.408 475.933 472.475 477.512 473.456 479.133 474.437 480.499 475.76 481.608 477.424 482.717 479.045 483.272 481.072 483.272 483.504 483.272 486.96 482.099 489.712 479.752 491.76 477.448 493.808 474.184 494.832 469.96 494.832Z" fill="#000000"/><path d="M573.072 493.04 573.776 492.016C574.757 490.736 575.44 489.413 575.824 488.048 576.208 486.64 576.4 484.741 576.4 482.352L576.4 460.08C576.4 458.245 576.272 457.051 576.016 456.496 575.76 455.899 575.205 455.6 574.352 455.6L571.728 455.6C570.32 455.6 569.232 455.749 568.464 456.048 567.739 456.347 567.141 456.859 566.672 457.584 566.245 458.309 565.84 459.376 565.456 460.784L565.136 462.192 563.152 461.488 563.152 451.184 564.112 450.416 565.136 451.184C566.16 451.995 568.336 452.4 571.664 452.4L586.832 452.4C590.203 452.4 592.379 451.995 593.36 451.184L594.384 450.416 595.344 451.184 595.344 461.488 593.36 462.192 593.04 460.784C592.485 458.693 591.803 457.307 590.992 456.624 590.181 455.941 588.773 455.6 586.768 455.6L584.08 455.6C583.269 455.6 582.715 455.899 582.416 456.496 582.16 457.093 582.032 458.288 582.032 460.08L582.032 486.32C582.032 488.112 582.267 489.349 582.736 490.032 583.248 490.672 584.272 491.227 585.808 491.696L587.216 492.016 586.512 494 573.776 494 573.072 493.04Z" fill="#000000"/><path d="M143.304 392.016 144.712 391.696C146.205 391.227 147.187 390.672 147.656 390.032 148.125 389.349 148.36 388.112 148.36 386.32L148.36 360.08C148.36 358.288 148.104 357.051 147.592 356.368 147.123 355.643 146.163 355.088 144.712 354.704L143.304 354.384 144.008 352.4 156.744 352.4 157.512 353.296 156.744 354.384C155.763 355.621 155.08 356.965 154.696 358.416 154.312 359.824 154.12 361.68 154.12 363.984L154.12 386.704C154.12 388.368 154.355 389.541 154.824 390.224 155.293 390.864 156.232 391.397 157.64 391.824L158.792 392.144 158.28 394 144.008 394 143.304 392.016ZM173.384 394.832C171.635 394.832 170.163 394.363 168.968 393.424 167.816 392.485 166.728 391.056 165.704 389.136L158.728 376.592C158.344 375.867 157.939 375.333 157.512 374.992 157.128 374.651 156.531 374.309 155.72 373.968 155.592 373.883 155.528 373.669 155.528 373.328 155.528 372.389 155.912 371.92 156.68 371.92L158.024 371.92 165.96 360.272C166.429 359.461 166.728 358.843 166.856 358.416 167.027 357.947 167.112 357.456 167.112 356.944 167.112 356.432 166.984 355.92 166.728 355.408 166.515 354.853 166.387 354.512 166.344 354.384L165.896 353.296 166.92 352.4 177.48 352.4 178.184 354.384 176.84 354.704C175.901 354.917 175.069 355.259 174.344 355.728 173.661 356.155 172.979 356.859 172.296 357.84L161.864 372.944C163.571 373.712 164.915 374.949 165.896 376.656L173.256 389.904C173.725 390.587 174.088 391.056 174.344 391.312 174.643 391.525 175.027 391.632 175.496 391.632 176.307 391.632 177.053 391.355 177.736 390.8L178.696 392.528C177.16 394.064 175.389 394.832 173.384 394.832Z" fill="#000000"/><path d="M271.864 395.832C271.651 395.533 271.352 395.32 270.968 395.192 270.584 395.064 270.051 395 269.368 395L246.264 395 245.56 393.144 246.84 392.824C248.248 392.397 249.187 391.864 249.656 391.224 250.125 390.541 250.36 389.368 250.36 387.704L250.36 361.08C250.36 359.288 250.104 358.051 249.592 357.368 249.123 356.643 248.163 356.088 246.712 355.704L245.304 355.384 246.008 353.4 258.744 353.4 259.512 354.296 258.744 355.384C257.763 356.621 257.08 357.965 256.696 359.416 256.312 360.824 256.12 362.68 256.12 364.984L256.12 387.32C256.12 388.557 256.205 389.496 256.376 390.136 256.589 390.733 256.952 391.139 257.464 391.352 257.976 391.565 258.765 391.672 259.832 391.672L264.888 391.672C266.893 391.672 268.301 391.331 269.112 390.648 269.965 389.965 270.648 388.6 271.16 386.552L271.48 385.272 273.528 385.848 273.528 395.832 272.312 396.408 271.864 395.832Z" fill="#000000"/><path d="M343.896 393.016 345.176 392.696C346.712 392.227 347.757 391.672 348.312 391.032 348.867 390.349 349.208 389.112 349.336 387.32L350.936 364.344C350.979 363.875 351.021 363.192 351.064 362.296 351.149 361.357 351.192 360.547 351.192 359.864 351.192 358.541 350.957 357.603 350.488 357.048 350.019 356.493 349.144 356.045 347.864 355.704L346.456 355.384 347.032 353.4 357.656 353.4 369.624 382.584 381.848 353.4 390.232 353.4 391.128 354.296 390.488 355.384C389.72 356.451 389.165 357.539 388.824 358.648 388.525 359.715 388.376 361.059 388.376 362.68 388.376 363.32 388.397 364.173 388.44 365.24 388.525 366.264 388.589 367.117 388.632 367.8L389.72 383.736C389.933 386.125 390.339 388.131 390.936 389.752 391.576 391.331 392.536 392.76 393.816 394.04L393.048 395 380.312 395 379.608 393.016 380.952 392.696C382.189 392.312 383.064 391.821 383.576 391.224 384.088 390.627 384.344 389.731 384.344 388.536L384.28 386.36 382.488 362.104 370.392 390.904 367.256 390.904 355.096 362.104 353.816 380.088C353.603 383.373 353.496 385.251 353.496 385.72 353.496 387.299 353.645 388.664 353.944 389.816 354.285 390.925 354.819 391.992 355.544 393.016L356.312 394.04 355.352 395 344.472 395 343.896 393.016Z" fill="#000000"/><path d="M454.984 393.016 456.328 392.696C457.821 392.227 458.803 391.672 459.272 391.032 459.741 390.349 459.976 389.112 459.976 387.32L459.976 361.08C459.976 359.288 459.72 358.051 459.208 357.368 458.739 356.643 457.779 356.088 456.328 355.704L454.984 355.384 455.688 353.4 465.032 353.4 487.176 386.232 487.176 361.08C487.176 359.331 486.92 358.093 486.408 357.368 485.896 356.643 484.915 356.088 483.464 355.704L482.056 355.384 482.888 353.4 493.768 353.4 494.6 354.296 493.768 355.384C492.829 356.621 492.168 357.965 491.784 359.416 491.4 360.824 491.208 362.68 491.208 364.984L491.208 389.88C491.208 391.075 491.485 392.12 492.04 393.016L492.744 394.04 492.04 395 486.216 395 464.136 362.168 464.136 383.352C464.136 385.741 464.307 387.64 464.648 389.048 465.032 390.456 465.715 391.779 466.696 393.016L467.464 394.04 466.696 395 455.688 395 454.984 393.016Z" fill="#000000"/><path d="M578.184 394.832C574.003 394.832 570.483 393.893 567.624 392.016 564.765 390.096 562.611 387.515 561.16 384.272 559.752 381.029 559.048 377.36 559.048 373.264 559.048 369.168 559.752 365.477 561.16 362.192 562.611 358.907 564.765 356.325 567.624 354.448 570.483 352.528 574.003 351.568 578.184 351.568 582.365 351.568 585.885 352.528 588.744 354.448 591.645 356.325 593.821 358.907 595.272 362.192 596.723 365.477 597.448 369.168 597.448 373.264 597.448 377.36 596.723 381.029 595.272 384.272 593.821 387.515 591.645 390.096 588.744 392.016 585.885 393.893 582.365 394.832 578.184 394.832ZM577.928 391.44C580.659 391.44 583.005 390.651 584.968 389.072 586.973 387.451 588.509 385.275 589.576 382.544 590.643 379.813 591.176 376.784 591.176 373.456 591.176 370.64 590.771 367.824 589.96 365.008 589.149 362.149 587.805 359.739 585.928 357.776 584.051 355.813 581.597 354.832 578.568 354.832 575.837 354.832 573.469 355.685 571.464 357.392 569.459 359.056 567.923 361.339 566.856 364.24 565.832 367.099 565.32 370.277 565.32 373.776 565.32 378.896 566.408 383.12 568.584 386.448 570.803 389.776 573.917 391.44 577.928 391.44Z" fill="#000000"/><path d="M148.56 283.04 149.328 282.016C150.309 280.736 150.992 279.392 151.376 277.984 151.803 276.576 152.016 274.699 152.016 272.352L152.016 253.984C152.016 251.723 151.803 249.888 151.376 248.48 150.992 247.029 150.309 245.664 149.328 244.384L148.56 243.296 149.328 242.4 166.48 242.4C168.229 242.4 169.616 242.315 170.64 242.144 171.707 241.931 172.56 241.611 173.2 241.184L174.16 240.416 175.056 241.184 175.056 251.488 173.2 252.192 172.752 250.784C172.368 249.333 171.963 248.267 171.536 247.584 171.109 246.859 170.512 246.347 169.744 246.048 168.976 245.749 167.888 245.6 166.48 245.6L161.36 245.6C159.867 245.6 158.885 245.899 158.416 246.496 157.947 247.093 157.712 248.288 157.712 250.08L157.712 261.792 164.56 261.792C165.499 261.792 166.309 261.6 166.992 261.216 167.717 260.832 168.4 260.128 169.04 259.104L169.552 258.464 170.768 259.104 170.768 269.088 168.72 269.728 168.464 268.448C168.08 267.125 167.44 266.229 166.544 265.76 165.648 265.291 164.155 265.056 162.064 265.056L157.712 265.056 157.712 276.32C157.712 278.112 157.947 279.349 158.416 280.032 158.885 280.672 159.867 281.227 161.36 281.696L162.768 282.016 162.064 284 149.328 284 148.56 283.04Z" fill="#000000"/><path d="M264.696 300.192C262.435 300.192 260.493 299.787 258.872 298.976 257.293 298.208 256.099 297.184 255.288 295.904 254.52 294.624 254.136 293.28 254.136 291.872 254.136 289.909 254.776 288.245 256.056 286.88 257.379 285.515 259.192 284.832 261.496 284.832 262.221 284.832 262.584 285.024 262.584 285.408 262.584 285.579 262.307 285.941 261.752 286.496 261.197 287.093 260.707 287.797 260.28 288.608 259.896 289.419 259.704 290.443 259.704 291.68 259.704 293.259 260.237 294.56 261.304 295.584 262.371 296.608 263.821 297.12 265.656 297.12 268.216 297.12 270.115 296.139 271.352 294.176 272.632 292.256 273.272 289.099 273.272 284.704L273.272 279.2C270.157 281.76 266.744 283.04 263.032 283.04 259.107 283.04 255.8 282.123 253.112 280.288 250.424 278.453 248.397 275.957 247.032 272.8 245.709 269.643 245.048 266.101 245.048 262.176 245.048 258.421 245.752 254.987 247.16 251.872 248.611 248.757 250.765 246.261 253.624 244.384 256.525 242.507 260.045 241.568 264.184 241.568 266.872 241.568 269.283 241.952 271.416 242.72 273.549 243.488 275.213 244.576 276.408 245.984 277.603 247.349 278.2 248.907 278.2 250.656 278.2 252.661 277.603 254.304 276.408 255.584 275.256 256.864 273.784 257.504 271.992 257.504 271.437 257.504 271.096 257.461 270.968 257.376 270.883 257.291 270.84 257.077 270.84 256.736 270.84 256.608 270.989 256.288 271.288 255.776 271.629 255.221 271.907 254.603 272.12 253.92 272.333 253.237 272.44 252.427 272.44 251.488 272.44 249.483 271.672 247.861 270.136 246.624 268.643 245.387 266.659 244.768 264.184 244.768 261.155 244.768 258.68 245.643 256.76 247.392 254.84 249.141 253.453 251.317 252.6 253.92 251.747 256.523 251.32 259.189 251.32 261.92 251.32 265.12 251.811 268.043 252.792 270.688 253.773 273.333 255.181 275.424 257.016 276.96 258.893 278.496 261.048 279.264 263.48 279.264 267.405 279.264 270.669 277.963 273.272 275.36L273.272 272.416C273.272 270.667 272.995 269.451 272.44 268.768 271.928 268.043 270.925 267.467 269.432 267.04L268.216 266.656 268.856 264.608 281.08 264.608 281.784 265.632 281.08 266.656C280.099 267.936 279.395 269.301 278.968 270.752 278.584 272.203 278.392 274.08 278.392 276.384L278.392 283.04C278.392 294.475 273.827 300.192 264.696 300.192Z" fill="#000000"/><path d="M349.304 282.016 350.712 281.696C352.205 281.227 353.187 280.672 353.656 280.032 354.125 279.349 354.36 278.112 354.36 276.32L354.36 250.08C354.36 248.288 354.104 247.051 353.592 246.368 353.123 245.643 352.163 245.088 350.712 244.704L349.304 244.384 350.008 242.4 362.744 242.4 363.512 243.296 362.744 244.384C361.763 245.621 361.08 246.965 360.696 248.416 360.312 249.824 360.12 251.68 360.12 253.984L360.12 261.152 379.064 261.152 379.064 250.08C379.064 248.331 378.808 247.093 378.296 246.368 377.784 245.643 376.781 245.088 375.288 244.704L374.072 244.384 374.776 242.4 387.384 242.4 388.28 243.296 387.384 244.384C386.445 245.664 385.763 247.029 385.336 248.48 384.952 249.888 384.76 251.723 384.76 253.984L384.76 276.704C384.76 278.368 384.995 279.541 385.464 280.224 385.976 280.864 386.936 281.397 388.344 281.824L389.56 282.144 388.92 284 374.776 284 374.072 282.016 375.288 281.696C376.824 281.227 377.827 280.672 378.296 280.032 378.808 279.349 379.064 278.112 379.064 276.32L379.064 264.608 360.12 264.608 360.12 276.704C360.12 278.368 360.355 279.541 360.824 280.224 361.293 280.864 362.232 281.397 363.64 281.824L364.792 282.144 364.28 284 350.008 284 349.304 282.016Z" fill="#000000"/><path d="M465.304 282.016 466.712 281.696C468.205 281.227 469.187 280.672 469.656 280.032 470.125 279.349 470.36 278.112 470.36 276.32L470.36 250.08C470.36 248.288 470.104 247.051 469.592 246.368 469.123 245.643 468.163 245.088 466.712 244.704L465.304 244.384 466.008 242.4 478.744 242.4 479.512 243.296 478.744 244.384C477.763 245.621 477.08 246.965 476.696 248.416 476.312 249.824 476.12 251.68 476.12 253.984L476.12 276.704C476.12 278.368 476.355 279.541 476.824 280.224 477.293 280.864 478.232 281.397 479.64 281.824L480.792 282.144 480.28 284 466.008 284 465.304 282.016Z" fill="#000000"/><path d="M571.344 284.832C569.083 284.832 567.163 284.448 565.584 283.68 564.005 282.869 562.811 281.824 562 280.544 561.232 279.264 560.848 277.92 560.848 276.512 560.848 274.592 561.488 272.949 562.768 271.584 564.091 270.176 565.904 269.472 568.208 269.472 568.549 269.472 568.805 269.536 568.976 269.664 569.189 269.792 569.296 269.941 569.296 270.112 569.296 270.283 569.019 270.667 568.464 271.264 567.909 271.861 567.44 272.565 567.056 273.376 566.672 274.144 566.48 275.147 566.48 276.384 566.48 277.963 566.949 279.264 567.888 280.288 568.827 281.312 570.107 281.824 571.728 281.824 575.781 281.824 577.808 279.157 577.808 273.824L577.808 250.08C577.808 248.331 577.552 247.093 577.04 246.368 576.528 245.643 575.525 245.088 574.032 244.704L572.752 244.384 573.456 242.4 586.064 242.4 586.896 243.296 586.064 244.384C585.125 245.621 584.464 246.965 584.08 248.416 583.739 249.824 583.568 251.68 583.568 253.984L583.568 270.304C583.568 275.339 582.48 279.029 580.304 281.376 578.171 283.68 575.184 284.832 571.344 284.832Z" fill="#000000"/><path d="M145.04 183.016 146.384 182.696C147.963 182.227 149.093 181.672 149.776 181.032 150.459 180.349 151.099 179.112 151.696 177.32L160.784 151.08C161.211 149.715 161.424 148.776 161.424 148.264 161.424 147.539 161.211 146.984 160.784 146.6 160.4 146.173 159.76 145.875 158.864 145.704L157.52 145.384 158.224 143.4 169.36 143.4 181.072 176.936C181.712 178.771 182.373 180.136 183.056 181.032 183.781 181.928 184.869 182.931 186.32 184.04L185.552 185 172.432 185 171.792 183.016 173.2 182.696C174.096 182.483 174.736 182.184 175.12 181.8 175.547 181.373 175.76 180.797 175.76 180.072 175.76 179.645 175.653 179.155 175.44 178.6 175.269 178.003 175.141 177.576 175.056 177.32L172.304 169.192 158.928 169.192 157.52 173.416C156.667 176.061 156.24 178.088 156.24 179.496 156.24 180.904 156.517 182.077 157.072 183.016L157.52 184.04 156.432 185 145.808 185 145.04 183.016ZM160.208 165.544 171.152 165.544 165.584 149.288 160.208 165.544Z" fill="#000000"/><path d="M245.56 183.016 246.968 182.696C248.419 182.227 249.379 181.651 249.848 180.968 250.36 180.285 250.616 179.069 250.616 177.32L250.616 148.648C250.616 148.136 250.509 147.795 250.296 147.624 250.125 147.411 249.827 147.304 249.4 147.304L246.008 147.304 245.304 145.128C246.968 144.488 249.165 143.912 251.896 143.4 254.627 142.845 257.229 142.568 259.704 142.568 265.037 142.568 268.984 143.635 271.544 145.768 274.104 147.859 275.384 150.589 275.384 153.96 275.384 156.136 274.872 158.12 273.848 159.912 272.867 161.661 271.352 163.005 269.304 163.944 271.864 164.797 273.869 166.099 275.32 167.848 276.771 169.555 277.496 171.453 277.496 173.544 277.496 177.085 276.301 179.88 273.912 181.928 271.565 183.976 267.768 185 262.52 185L246.328 185 245.56 183.016ZM262.84 181.992C265.528 181.992 267.64 181.203 269.176 179.624 270.712 178.003 271.48 175.891 271.48 173.288 271.48 171.027 270.648 169.128 268.984 167.592 267.363 166.013 265.165 165.224 262.392 165.224 260.899 165.224 259.597 164.989 258.488 164.52 257.933 164.221 257.656 163.773 257.656 163.176 257.656 162.536 257.912 162.216 258.424 162.216 258.637 162.216 259 162.259 259.512 162.344 260.024 162.429 260.643 162.472 261.368 162.472 263.971 162.472 265.997 161.725 267.448 160.232 268.941 158.696 269.688 156.648 269.688 154.088 269.688 151.613 268.856 149.608 267.192 148.072 265.571 146.536 263.288 145.768 260.344 145.768 257.741 145.768 256.44 146.685 256.44 148.52L256.44 174.376C256.44 177.576 257.059 179.645 258.296 180.584 259.576 181.523 261.091 181.992 262.84 181.992Z" fill="#000000"/><path d="M369.544 185.832C365.533 185.832 362.141 184.893 359.368 183.016 356.595 181.096 354.504 178.515 353.096 175.272 351.731 171.987 351.048 168.317 351.048 164.264 351.048 160.125 351.731 156.435 353.096 153.192 354.504 149.907 356.595 147.325 359.368 145.448 362.184 143.528 365.64 142.568 369.736 142.568 372.253 142.568 374.493 142.931 376.456 143.656 378.419 144.381 379.955 145.384 381.064 146.664 382.173 147.944 382.728 149.416 382.728 151.08 382.728 153.043 382.152 154.664 381 155.944 379.848 157.181 378.397 157.8 376.648 157.8 375.752 157.8 375.304 157.565 375.304 157.096 375.304 157.011 375.475 156.712 375.816 156.2 376.157 155.645 376.456 155.027 376.712 154.344 376.968 153.619 377.096 152.787 377.096 151.848 377.096 150.056 376.413 148.605 375.048 147.496 373.725 146.344 371.955 145.768 369.736 145.768 366.877 145.768 364.531 146.664 362.696 148.456 360.904 150.248 359.603 152.552 358.792 155.368 357.981 158.141 357.576 161.107 357.576 164.264 357.576 167.464 358.088 170.408 359.112 173.096 360.136 175.784 361.587 177.917 363.464 179.496 365.384 181.032 367.581 181.8 370.056 181.8 372.531 181.8 374.685 181.352 376.52 180.456 378.397 179.517 379.891 178.237 381 176.616 381.128 176.445 381.256 176.36 381.384 176.36 381.768 176.36 382.173 176.552 382.6 176.936 383.027 177.277 383.24 177.64 383.24 178.024 383.24 178.152 383.197 178.301 383.112 178.472 379.699 183.379 375.176 185.832 369.544 185.832Z" fill="#000000"/><path d="M455.304 183.016 456.712 182.696C457.907 182.312 458.803 181.8 459.4 181.16 460.04 180.477 460.36 179.411 460.36 177.96L460.36 148.648C460.36 148.136 460.253 147.795 460.04 147.624 459.827 147.411 459.507 147.304 459.08 147.304L455.752 147.304 455.048 145.128C456.883 144.488 459.272 143.912 462.216 143.4 465.16 142.845 467.997 142.568 470.728 142.568 478.792 142.568 484.595 144.573 488.136 148.584 491.677 152.595 493.448 157.821 493.448 164.264 493.448 168.189 492.723 171.731 491.272 174.888 489.821 178.003 487.645 180.477 484.744 182.312 481.885 184.104 478.365 185 474.184 185L456.008 185 455.304 183.016ZM472.392 182.056C482.248 182.056 487.176 176.083 487.176 164.136 487.176 160.851 486.6 157.821 485.448 155.048 484.339 152.275 482.632 150.035 480.328 148.328 478.024 146.621 475.187 145.768 471.816 145.768 468.019 145.768 466.12 146.685 466.12 148.52L466.12 174.824C466.12 177.597 466.696 179.496 467.848 180.52 469 181.544 470.515 182.056 472.392 182.056Z" fill="#000000"/><path d="M592.144 185.832C591.845 185.533 591.504 185.32 591.12 185.192 590.779 185.064 590.309 185 589.712 185L565.264 185 564.56 183.144 565.84 182.824C567.248 182.397 568.187 181.864 568.656 181.224 569.125 180.541 569.36 179.368 569.36 177.704L569.36 154.984C569.36 152.68 569.168 150.824 568.784 149.416 568.4 148.008 567.739 146.664 566.8 145.384L566.032 144.296 566.8 143.4 584.528 143.4C587.899 143.4 590.075 142.995 591.056 142.184L592.208 141.416 593.04 142.184 593.04 152.488 591.056 153.192 590.736 151.784C590.224 149.693 589.563 148.307 588.752 147.624 587.941 146.941 586.533 146.6 584.528 146.6L578.832 146.6C577.339 146.6 576.336 146.899 575.824 147.496 575.355 148.093 575.12 149.288 575.12 151.08L575.12 162.216 582.48 162.216C583.461 162.216 584.293 162.024 584.976 161.64 585.659 161.256 586.363 160.573 587.088 159.592L587.536 158.952 588.688 159.592 588.688 169.512 586.768 170.216 586.384 168.744C585.957 167.421 585.317 166.547 584.464 166.12 583.611 165.693 582.117 165.48 579.984 165.48L575.12 165.48 575.12 177.32C575.12 178.557 575.205 179.496 575.376 180.136 575.589 180.733 575.952 181.139 576.464 181.352 576.976 181.565 577.765 181.672 578.832 181.672L585.04 181.672C586.448 181.672 587.536 181.544 588.304 181.288 589.072 180.989 589.669 180.477 590.096 179.752 590.565 179.027 590.992 177.96 591.376 176.552L591.76 175.272 593.68 175.848 593.68 185.832 592.592 186.408 592.144 185.832Z" fill="#000000"/><path d="M47.928 183.016 50.424 182.44C51.4907 182.184 52.2587 181.885 52.728 181.544 53.24 181.203 53.6027 180.733 53.816 180.136 54.0293 179.496 54.136 178.557 54.136 177.32L54.136 149.288 47.032 153.896C46.1787 153.768 45.4107 153.32 44.728 152.552 44.0453 151.784 43.4693 150.909 43 149.928L59.064 142.44C60.0453 142.653 60.8133 143.379 61.368 144.616L59.896 145.576 59.896 173.352C59.896 175.741 60.088 177.64 60.472 179.048 60.856 180.456 61.5387 181.779 62.52 183.016L63.16 184.04 62.52 185 48.632 185 47.928 183.016Z" fill="#000000"/><path d="M43.176 281.056C49.3627 275.979 54.056 271.755 57.256 268.384 60.456 265.013 62.632 262.133 63.784 259.744 64.936 257.355 65.512 254.901 65.512 252.384 65.512 249.995 64.7653 248.139 63.272 246.816 61.7787 245.451 60.008 244.768 57.96 244.768 55.8693 244.768 54.056 245.429 52.52 246.752 50.984 248.032 50.216 249.845 50.216 252.192 50.216 253.131 50.344 253.92 50.6 254.56 50.856 255.157 51.1547 255.712 51.496 256.224 51.8373 256.736 52.008 257.056 52.008 257.184 52.008 257.525 51.9013 257.739 51.688 257.824 51.5173 257.867 51.176 257.888 50.664 257.888 48.9147 257.888 47.4427 257.312 46.248 256.16 45.096 255.008 44.52 253.536 44.52 251.744 44.52 249.568 45.1387 247.712 46.376 246.176 47.656 244.64 49.32 243.488 51.368 242.72 53.416 241.952 55.6133 241.568 57.96 241.568 62.312 241.568 65.7467 242.507 68.264 244.384 70.824 246.261 72.104 248.949 72.104 252.448 72.104 256.203 70.2907 260.171 66.664 264.352 63.08 268.491 57.96 273.291 51.304 278.752L73.192 278.752C73.192 279.776 73.0427 280.779 72.744 281.76 72.4453 282.699 71.9547 283.445 71.272 284L44.712 284 43.176 281.056Z" fill="#000000"/><path d="M53.768 395.832C51.4213 395.832 49.224 395.469 47.176 394.744 45.128 394.019 43.464 392.952 42.184 391.544 40.9467 390.136 40.328 388.429 40.328 386.424 40.328 384.632 40.904 383.181 42.056 382.072 43.2507 380.92 44.7227 380.344 46.472 380.344 46.984 380.344 47.3253 380.387 47.496 380.472 47.6667 380.515 47.752 380.685 47.752 380.984 47.752 381.112 47.5813 381.432 47.24 381.944 46.8987 382.456 46.6 383.032 46.344 383.672 46.1307 384.269 46.024 385.016 46.024 385.912 46.024 387.832 46.7493 389.347 48.2 390.456 49.6933 391.565 51.5067 392.12 53.64 392.12 55.9013 392.12 57.864 391.416 59.528 390.008 61.2347 388.6 62.088 386.573 62.088 383.928 62.088 381.709 61.3627 379.704 59.912 377.912 58.504 376.12 55.9013 375.224 52.104 375.224 50.7813 375.224 49.7147 375.331 48.904 375.544 48.0933 375.715 47.6027 375.8 47.432 375.8 46.8347 375.8 46.536 375.48 46.536 374.84 46.536 374.328 46.7067 373.944 47.048 373.688 47.432 373.389 48.3493 373.112 49.8 372.856 54.1947 372.045 57.1173 370.744 58.568 368.952 60.0613 367.117 60.808 365.112 60.808 362.936 60.808 360.675 60.0827 358.925 58.632 357.688 57.1813 356.408 55.496 355.768 53.576 355.768 51.784 355.768 50.248 356.301 48.968 357.368 47.7307 358.392 47.112 359.843 47.112 361.72 47.112 362.701 47.24 363.533 47.496 364.216 47.7947 364.856 48.0933 365.432 48.392 365.944 48.6907 366.413 48.84 366.691 48.84 366.776 48.84 367.245 48.4347 367.48 47.624 367.48 45.832 367.48 44.3387 366.904 43.144 365.752 41.992 364.6 41.416 363.128 41.416 361.336 41.416 358.563 42.6107 356.408 45 354.872 47.3893 353.336 50.2693 352.568 53.64 352.568 55.9013 352.568 58.0773 352.952 60.168 353.72 62.2587 354.488 63.944 355.64 65.224 357.176 66.5467 358.669 67.208 360.483 67.208 362.616 67.208 365.091 66.4613 367.224 64.968 369.016 63.4747 370.765 61.3627 372.152 58.632 373.176 61.7893 373.901 64.2 375.267 65.864 377.272 67.528 379.277 68.36 381.624 68.36 384.312 68.36 387.981 67.0373 390.819 64.392 392.824 61.7893 394.829 58.248 395.832 53.768 395.832Z" fill="#000000"/><path d="M53.256 492.016 55.688 491.44C56.7547 491.184 57.5227 490.907 57.992 490.608 58.504 490.267 58.8453 489.776 59.016 489.136 59.2293 488.496 59.336 487.557 59.336 486.32L59.336 484.656 38.792 484.656 52.168 452.4 55.88 452.4 56.968 453.296 44.424 480.88 59.336 480.88 59.336 473.136C59.336 471.899 59.2293 470.917 59.016 470.192 58.8453 469.424 58.504 468.635 57.992 467.824L58.76 466.864 65.096 466.16 65.096 480.88 70.472 480.88C70.472 482.715 70.0453 483.973 69.192 484.656L65.16 484.656C65.2027 486.235 65.4373 487.6 65.864 488.752 66.2907 489.861 66.9093 490.949 67.72 492.016L68.424 493.04 67.72 494 53.896 494 53.256 492.016Z" fill="#000000"/><path d="M53.768 603.832C51.4213 603.832 49.224 603.469 47.176 602.744 45.128 602.019 43.464 600.952 42.184 599.544 40.9467 598.136 40.328 596.429 40.328 594.424 40.328 592.632 40.904 591.181 42.056 590.072 43.2507 588.92 44.7227 588.344 46.472 588.344 46.984 588.344 47.3253 588.387 47.496 588.472 47.6667 588.515 47.752 588.685 47.752 588.984 47.752 589.112 47.5813 589.432 47.24 589.944 46.8987 590.456 46.6 591.032 46.344 591.672 46.1307 592.269 46.024 593.016 46.024 593.912 46.024 595.832 46.7493 597.347 48.2 598.456 49.6933 599.565 51.5067 600.12 53.64 600.12 55.048 600.12 56.392 599.8 57.672 599.16 58.9947 598.52 60.0613 597.581 60.872 596.344 61.6827 595.064 62.088 593.549 62.088 591.8 62.088 589.283 61.2347 587.043 59.528 585.08 57.8213 583.117 54.664 582.136 50.056 582.136 48.6053 582.136 46.536 582.392 43.848 582.904L42.632 580.664 43.656 561.4 66.248 561.4C66.248 562.424 66.0773 563.427 65.736 564.408 65.4373 565.347 64.968 566.093 64.328 566.648L47.304 566.648 46.472 579.768C48.8187 579.213 51.2293 578.936 53.704 578.936 57.032 578.936 59.784 579.533 61.96 580.728 64.1787 581.923 65.8 583.501 66.824 585.464 67.848 587.384 68.36 589.496 68.36 591.8 68.36 595.469 67.016 598.392 64.328 600.568 61.6827 602.744 58.1627 603.832 53.768 603.832Z" fill="#000000"/></svg>